<svg width="82" height="83" viewBox="0 0 82 83" fill="none" xmlns="http://www.w3.org/2000/svg">
<ellipse cx="41.055" cy="41.322" rx="40.6947" ry="40.9758" fill="#EAF0F9"/>
<path fill-rule="evenodd" clip-rule="evenodd" d="M16.7878 12.6365C14.7975 12.9286 13.1151 13.7466 11.6488 15.1357C8.22379 18.3799 7.62625 23.3874 10.1975 27.2961C10.719 28.0888 11.9128 29.3387 12.7283 29.9456L13.1084 30.2285L12.7283 30.5108C12.5192 30.6662 11.9588 31.168 11.483 31.6259C8.21695 34.7689 7.67833 39.7972 10.1975 43.6265C10.719 44.4192 11.9128 45.6691 12.7283 46.276L13.1084 46.5589L12.7283 46.8412C11.8509 47.493 10.5805 48.8493 10.0664 49.6833C9.3886 50.7827 9.06753 51.5914 8.80918 52.8512C7.81289 57.7076 10.823 62.5734 15.6695 63.9413C16.6322 64.2129 16.8688 64.2208 25.3989 64.2647C31.4658 64.296 34.2849 64.2671 34.6099 64.1706C35.4897 63.9091 35.8937 62.8598 35.3921 62.1387C34.9357 61.4826 34.9844 61.4859 25.7463 61.4859C18.5445 61.4859 17.0355 61.4551 16.4285 61.2959C14.1806 60.7063 12.3239 58.9544 11.6366 56.7745C11.2727 55.6198 11.2727 53.8283 11.6366 52.6736C12.2549 50.7123 13.7399 49.1526 15.7693 48.333L16.5295 48.026L25.6757 47.9623L34.822 47.8985L35.2104 47.5238C35.5341 47.2114 35.5987 47.0508 35.5987 46.5589C35.5987 46.0669 35.5341 45.9063 35.2104 45.594L34.822 45.2193L25.6757 45.1544C17.6057 45.0972 16.4688 45.065 16.0137 44.881C14.3479 44.2078 13.2047 43.312 12.3868 42.0389C11.0017 39.8828 11.0026 36.8971 12.389 34.7484C13.269 33.3846 14.4378 32.4824 16.0163 31.9489L16.9648 31.6283L38.6039 31.662L60.243 31.6956L61.025 32.0335C61.4551 32.2194 62.0822 32.5631 62.4188 32.7974C63.2729 33.3923 63.9775 33.3966 64.498 32.8099C65.1176 32.1117 64.9218 31.1574 64.0472 30.6131C63.8016 30.4603 63.6007 30.2954 63.6007 30.2468C63.6007 30.1982 63.949 29.903 64.3749 29.5908C65.4384 28.811 66.4279 27.5757 67.0831 26.2096C67.7565 24.8057 68.0354 23.5916 68.0354 22.0633C68.0354 17.2466 64.5158 13.2253 59.7763 12.6268C58.4825 12.4635 17.9051 12.4727 16.7878 12.6365ZM60.8716 15.652C64.0952 16.8764 65.9501 20.2904 65.1798 23.5811C64.6646 25.7816 63.0082 27.6629 60.8716 28.4745L60.1163 28.7613L38.703 28.7951C23.9988 28.8183 17.0865 28.7865 16.641 28.6938C14.4008 28.2272 12.3383 26.3397 11.6366 24.1137C11.2727 22.959 11.2727 21.1675 11.6366 20.0128C12.315 17.861 14.1634 16.0991 16.3743 15.497C16.9342 15.3446 20.3594 15.3205 38.5763 15.341L60.1163 15.3652L60.8716 15.652ZM19.8238 18.0914C18.6554 18.4005 17.629 19.2492 17.1031 20.3409C16.8532 20.8597 16.7951 21.1813 16.7918 22.0633C16.788 23.0576 16.8234 23.2145 17.2181 23.9516C17.6976 24.847 18.0952 25.2335 19.05 25.7331C19.6018 26.0218 19.8556 26.0717 20.7741 26.0717C21.6926 26.0717 21.9464 26.0218 22.4982 25.7331C23.4531 25.2335 23.8507 24.847 24.3301 23.9516C24.7243 23.2154 24.7604 23.0563 24.7579 22.0633C24.7555 21.1417 24.7045 20.881 24.4188 20.3273C23.925 19.3705 23.5381 18.9647 22.6813 18.5049C21.8646 18.0665 20.606 17.8843 19.8238 18.0914ZM32.9639 18.2145C32.1255 18.5159 31.4732 19.0342 30.944 19.8197C30.4043 20.6207 30.2365 21.2951 30.3063 22.3822C30.4014 23.8605 31.208 25.0701 32.5374 25.7274C33.143 26.0268 33.4124 26.0816 34.2683 26.0789C35.5933 26.0747 36.3839 25.7317 37.2378 24.7909C38.6815 23.2004 38.6815 20.9261 37.2378 19.3356C36.1524 18.1399 34.4291 17.6879 32.9639 18.2145ZM21.3471 20.8611C21.7341 21.0461 22.1679 21.6814 22.1679 22.0633C22.1679 22.1473 22.0779 22.4068 21.9681 22.6402C21.7238 23.1584 21.0429 23.5183 20.524 23.4036C20.0563 23.3002 19.5457 22.786 19.443 22.3151C19.332 21.8059 19.6853 21.1119 20.1813 20.8656C20.6894 20.6134 20.8275 20.6128 21.3471 20.8611ZM34.7626 20.8377C35.9361 21.3314 35.8686 22.9336 34.6573 23.3361C33.8563 23.6024 32.9379 22.9225 32.9379 22.0633C32.9379 21.6063 33.3159 21.0315 33.738 20.8466C34.2466 20.6239 34.2541 20.6238 34.7626 20.8377ZM19.8238 34.4218C18.6554 34.7309 17.629 35.5796 17.1031 36.6713C16.8532 37.1901 16.7951 37.5117 16.7918 38.3937C16.788 39.388 16.8234 39.545 17.2181 40.282C17.6976 41.1774 18.0952 41.5639 19.05 42.0635C19.6018 42.3522 19.8556 42.4021 20.7741 42.4021C21.6926 42.4021 21.9464 42.3522 22.4982 42.0635C23.4531 41.5639 23.8507 41.1774 24.3301 40.282C24.7243 39.5458 24.7604 39.3868 24.7579 38.3937C24.7555 37.4721 24.7045 37.2114 24.4188 36.6577C23.925 35.7009 23.5381 35.2951 22.6813 34.8353C21.8646 34.3969 20.606 34.2147 19.8238 34.4218ZM32.9639 34.5449C32.1255 34.8463 31.4732 35.3646 30.944 36.1501C30.4043 36.9511 30.2365 37.6255 30.3063 38.7126C30.4014 40.1909 31.208 41.4005 32.5374 42.0578C33.143 42.3572 33.4124 42.412 34.2683 42.4093C35.5933 42.4051 36.3839 42.0621 37.2378 41.1213C38.6815 39.5308 38.6815 37.2565 37.2378 35.666C36.1524 34.4703 34.4291 34.0183 32.9639 34.5449ZM21.3471 37.1915C21.7341 37.3765 22.1679 38.0118 22.1679 38.3937C22.1679 38.4777 22.0779 38.7372 21.9681 38.9706C21.7238 39.4888 21.0429 39.8487 20.524 39.734C20.0563 39.6306 19.5457 39.1164 19.443 38.6455C19.332 38.1363 19.6853 37.4423 20.1813 37.1961C20.6894 36.9438 20.8275 36.9432 21.3471 37.1915ZM34.7626 37.1681C35.9361 37.6619 35.8686 39.264 34.6573 39.6665C33.8563 39.9328 32.9379 39.2529 32.9379 38.3937C32.9379 37.9367 33.3159 37.3619 33.738 37.177C34.2466 36.9543 34.2541 36.9542 34.7626 37.1681ZM49.4096 39.6147C42.6358 41.9201 41.7024 42.2695 41.387 42.6167L41.0301 43.0098L41.0814 50.1109C41.1375 57.8733 41.1302 57.7873 41.9486 60.2658C43.7534 65.7309 48.575 70.8109 55.2662 74.2972C56.2164 74.7922 57.0364 75.1371 57.2638 75.1371C57.774 75.1371 60.4053 73.7693 62.2973 72.5205C67.5535 69.0512 71.0611 64.8717 72.5822 60.2658C73.4006 57.7873 73.3933 57.8733 73.4494 50.1109L73.5007 43.0098L73.1438 42.6144C72.8266 42.2631 71.9288 41.928 65.0786 39.6047C60.839 38.1667 57.3039 36.9937 57.2228 36.9979C57.1417 37.0021 53.6258 38.1797 49.4096 39.6147ZM64.1529 42.1724L70.8229 44.442V49.6971C70.8229 52.5875 70.7636 55.5338 70.6911 56.2447C70.3863 59.2367 69.1237 62.0977 66.8816 64.8779C64.9251 67.3036 61.2969 70.1873 58.1843 71.7904L57.2599 72.2665L56.1632 71.6924C53.6509 70.3773 50.8025 68.238 48.8293 66.1844C45.8336 63.0663 44.2039 59.8199 43.8397 56.2447C43.7672 55.5338 43.7079 52.5876 43.7079 49.6975V44.4429L50.2649 42.2275C53.8712 41.0091 56.9075 39.9652 57.012 39.908C57.1165 39.8508 57.2653 39.8261 57.3424 39.8533C57.4197 39.8805 60.4844 40.9241 64.1529 42.1724ZM64.8044 49.4359C64.5953 49.544 62.5296 51.5371 60.2141 53.8651C57.634 56.459 55.961 58.0498 55.893 57.9738C55.832 57.9056 54.8553 56.6729 53.7225 55.2344C52.5897 53.7959 51.5233 52.4899 51.3528 52.3319C50.7891 51.8101 49.7661 52.0015 49.3526 52.7062C48.9123 53.4568 49.0485 53.694 52.1921 57.6521C53.7997 59.6763 55.2044 61.367 55.3136 61.4092C55.7728 61.5865 56.3551 61.4749 56.8346 61.1175C57.1064 60.9149 59.4165 58.6328 61.9681 56.0462C66.9883 50.9572 66.9888 50.9565 66.568 50.0636C66.3807 49.6661 65.7499 49.237 65.3554 49.2388C65.2614 49.2393 65.0135 49.328 64.8044 49.4359ZM19.8238 50.7522C18.6554 51.0613 17.629 51.91 17.1031 53.0017C16.8532 53.5205 16.7951 53.8421 16.7918 54.7241C16.788 55.7184 16.8234 55.8754 17.2181 56.6124C17.6976 57.5078 18.0952 57.8943 19.05 58.3939C19.6018 58.6827 19.8556 58.7325 20.7741 58.7325C21.6926 58.7325 21.9464 58.6827 22.4982 58.3939C23.4531 57.8943 23.8507 57.5078 24.3301 56.6124C24.7243 55.8762 24.7604 55.7172 24.7579 54.7241C24.7555 53.8025 24.7045 53.5418 24.4188 52.9881C23.925 52.0313 23.5381 51.6255 22.6813 51.1657C21.8646 50.7273 20.606 50.5451 19.8238 50.7522ZM32.9639 50.8753C32.1255 51.1767 31.4732 51.695 30.944 52.4805C30.4043 53.2815 30.2365 53.9559 30.3063 55.043C30.4014 56.5213 31.208 57.7309 32.5374 58.3882C33.143 58.6876 33.4124 58.7424 34.2683 58.7397C35.5933 58.7355 36.3839 58.3925 37.2378 57.4517C38.6815 55.8612 38.6815 53.5869 37.2378 51.9964C36.1524 50.8007 34.4291 50.3487 32.9639 50.8753ZM21.3471 53.5219C21.7341 53.7069 22.1679 54.3422 22.1679 54.7241C22.1679 54.8081 22.0779 55.0676 21.9681 55.301C21.7238 55.8192 21.0429 56.1791 20.524 56.0644C20.0563 55.961 19.5457 55.4468 19.443 54.9759C19.332 54.4667 19.6853 53.7727 20.1813 53.5265C20.6894 53.2742 20.8275 53.2736 21.3471 53.5219ZM34.7626 53.4985C35.9361 53.9923 35.8686 55.5944 34.6573 55.9969C33.8563 56.2632 32.9379 55.5833 32.9379 54.7241C32.9379 54.2671 33.3159 53.6923 33.738 53.5074C34.2466 53.2847 34.2541 53.2846 34.7626 53.4985Z" fill="#274772"/>
</svg>
