<svg width="82" height="83" viewBox="0 0 82 83" fill="none" xmlns="http://www.w3.org/2000/svg">
<ellipse cx="41.2933" cy="41.322" rx="40.6947" ry="40.9758" fill="#EAF0F9"/>
<path fill-rule="evenodd" clip-rule="evenodd" d="M19.9235 8.9952C18.2862 9.30733 16.3523 10.7786 15.5403 12.33C14.7173 13.9027 14.7733 11.8764 14.7733 40.0894C14.7733 62.9869 14.793 65.6943 14.9652 66.3669C15.5732 68.7412 17.7032 70.7691 20.0367 71.195C21.0027 71.3714 58.6939 71.3792 59.6154 71.2033C61.2009 70.9005 62.5711 69.8188 63.2813 68.3092L63.6701 67.4827L63.7046 61.1741L63.739 54.8655L67.9263 54.8292L72.1135 54.7927L72.4059 54.4503L72.6982 54.1079V41.7657V29.4233L69.5172 26.206C67.7675 24.4366 66.1889 22.9104 66.0089 22.8147C65.8039 22.7056 65.3174 22.6406 64.7062 22.6406H63.7307V18.5142C63.7307 15.0736 63.6982 14.2774 63.5354 13.7249C62.8254 11.317 60.7832 9.40641 58.4673 8.98373C57.5411 8.81461 20.8133 8.82559 19.9235 8.9952ZM58.39 11.2279C59.698 11.5785 60.7905 12.597 61.3327 13.9714C61.5848 14.6108 61.6022 14.8702 61.6452 18.6445L61.6908 22.6406H60.0496H58.4084L58.3733 18.7253L58.3381 14.81L57.9981 14.5156L57.6581 14.2213H39.2398H20.8213L20.5336 14.511C20.3597 14.6861 20.2159 15.0122 20.1703 15.3346C20.1288 15.6283 20.1108 25.9627 20.1303 38.3002L20.1659 60.7317L20.5059 61.0263L20.8459 61.3207H39.252H57.6581L57.9981 61.0264L58.3381 60.7321L58.3746 57.7929L58.411 54.8537H60.0481H61.6853L61.6476 60.8021L61.61 66.7505L61.2738 67.44C60.916 68.1735 60.3407 68.7038 59.6214 68.9626C59.2745 69.0875 55.2963 69.12 39.9791 69.1231C19.7904 69.1272 20.2043 69.1375 19.1831 68.6055C18.5487 68.2751 17.6822 67.3295 17.34 66.5944L17.0151 65.8964L16.984 40.2487C16.9532 14.8471 16.9551 14.5948 17.1956 13.9477C17.6787 12.6477 18.8037 11.5812 20.0575 11.2346C20.9752 10.9808 57.4444 10.9746 58.39 11.2279ZM56.2175 19.5291V22.6406H52.3342H48.4508L48.1534 22.9402L47.8559 23.2396L47.8598 38.7111C47.8628 51.2107 47.8938 54.2227 48.0211 54.3913C48.3341 54.8061 48.7985 54.8537 52.5293 54.8537H56.2175V56.989V59.1243H39.252H22.2865V37.771V16.4176H39.252H56.2175V19.5291ZM40.8311 23.4068C40.6394 23.5044 39.8461 24.6769 38.6238 26.669L36.7158 29.7787L36.7418 40.5774L36.7678 51.3761L37.0841 52.0472C37.7521 53.4647 39.0279 54.4498 40.5547 54.7269C42.3127 55.0461 44.2 54.2106 45.174 52.6823C45.941 51.4789 45.9142 51.9227 45.9157 40.3623L45.917 29.8364L44.0176 26.7187C41.8813 23.2123 41.6615 22.9837 40.8311 23.4068ZM64.3366 27.5918V30.3466L64.6908 30.7033L65.0451 31.0599H67.781H70.5169V41.8594V52.6587L60.2467 52.6276L49.9766 52.5963L49.9458 38.7166L49.9149 24.837H57.1258H64.3366V27.5918ZM67.7903 27.6434L68.9975 28.8636H67.7577H66.5179V27.6434C66.5179 26.9723 66.5326 26.4232 66.5505 26.4232C66.5684 26.4232 67.1264 26.9723 67.7903 27.6434ZM42.1301 27.8173C42.5467 28.5121 42.8874 29.1141 42.8874 29.1551C42.8874 29.1961 42.1785 29.2296 41.3121 29.2296C40.4456 29.2296 39.7367 29.1952 39.7367 29.1531C39.7367 29.0367 41.2428 26.5505 41.3121 26.5523C41.3454 26.5533 41.7136 27.1224 42.1301 27.8173ZM43.7357 38.6251V45.9463H41.3317H38.9277L38.8475 41.5336C38.7447 35.881 38.745 31.4891 38.8481 31.3854C38.8924 31.3406 40.0104 31.304 41.3323 31.304H43.7357V38.6251ZM53.6297 35.5078C53.2074 35.9019 53.1957 36.5264 53.6015 37.0015L53.894 37.3439H57.2879H60.6817L60.9943 37.0481C61.4208 36.6448 61.4279 35.9292 61.0096 35.5081L60.7122 35.2086H57.3312H53.9504L53.6297 35.5078ZM53.6285 39.0688C53.2129 39.4873 53.2022 40.0726 53.6015 40.5401L53.8939 40.8825H60.1932C66.322 40.8825 66.4997 40.8759 66.7615 40.6384C67.1751 40.2631 67.2691 39.8957 67.0727 39.4223C66.9788 39.1959 66.7919 38.9515 66.6573 38.8789C66.4911 38.7895 64.413 38.7471 60.1803 38.7471H53.9481L53.6285 39.0688ZM53.8544 42.4331C53.22 42.7994 53.1049 43.6362 53.6217 44.1253L53.9344 44.421L59.9535 44.4581C64.1339 44.484 66.1143 44.4536 66.4365 44.3589C67.0666 44.1736 67.3341 43.5906 67.0751 42.9666C66.9799 42.7372 66.7919 42.4901 66.6573 42.4175C66.3034 42.2269 54.1861 42.2415 53.8544 42.4331ZM53.8544 45.9717C53.22 46.338 53.1049 47.1748 53.6217 47.6638L53.9344 47.9596L59.9535 47.9967C64.1339 48.0226 66.1143 47.9922 66.4365 47.8975C67.0271 47.7239 67.3131 47.1556 67.1079 46.5631C66.8502 45.8184 66.9018 45.8239 60.1922 45.8279C55.8356 45.8306 54.0276 45.8716 53.8544 45.9717ZM43.7156 49.5859C43.6779 50.9298 43.6516 51.0647 43.3341 51.5474C42.9446 52.1392 42.0032 52.6549 41.3121 52.6549C40.621 52.6549 39.6795 52.1392 39.29 51.5474C38.9725 51.0647 38.9463 50.9298 38.9086 49.5859L38.8682 48.1426H41.3121H43.756L43.7156 49.5859ZM36.819 64.4838C36.424 64.8816 36.3791 65.1926 36.643 65.7062C36.9009 66.2088 37.3859 66.3235 39.252 66.3235C40.1652 66.3235 41.0857 66.2626 41.2977 66.1883C42.0684 65.9178 42.2345 64.8837 41.5893 64.3726C41.3065 64.1486 41.1 64.1271 39.2263 64.1271H37.1732L36.819 64.4838Z" fill="#274772"/>
</svg>
