<svg width="86" height="83" viewBox="0 0 86 83" fill="none" xmlns="http://www.w3.org/2000/svg">
<ellipse cx="45.116" cy="41.322" rx="40.6947" ry="40.9758" fill="#EAF0F9"/>
<path fill-rule="evenodd" clip-rule="evenodd" d="M72.2977 0.53792C68.3373 1.00019 64.1183 2.60462 60.6262 4.97647C57.6017 7.03083 53.7965 11.0756 50.6144 15.6194L49.8175 16.7571L46.1182 16.8362C42.7105 16.9091 42.2978 16.9521 40.8872 17.3804C38.9055 17.9822 36.7709 19.1228 35.2292 20.4039C33.9964 21.4283 33.7005 21.9259 33.885 22.6631C33.938 22.8753 35.3487 24.4173 37.0197 26.0899L40.0578 29.1312H41.8764C43.062 29.1312 43.6949 29.1955 43.6949 29.3157C43.6949 29.4173 41.9628 31.2831 39.8458 33.462C33.8787 39.6038 29.2209 45.093 25.0203 50.9341C24.0207 52.3242 23.1374 53.4614 23.0576 53.4614C22.9776 53.4614 22.6666 53.2728 22.3662 53.042C20.8921 51.9099 18.2326 51.0686 16.1284 51.0686C12.7081 51.0686 9.05791 52.9727 7.2506 55.6998L6.67 56.5758L5.12696 56.6084C3.72805 56.6379 3.46667 56.6994 2.32641 57.267C1.63486 57.6112 0.856534 58.1164 0.596864 58.3895L0.125 58.8858L1.14768 59.7816L2.17054 60.6774L2.81086 60.1747C3.53185 59.6085 4.36548 59.2869 5.11131 59.2869C5.4906 59.2869 5.59032 59.3509 5.51595 59.5462C5.4615 59.6886 5.36621 60.3054 5.30393 60.9169L5.19094 62.0284H6.53813H7.88514L8.07062 60.8427C8.81594 56.0767 13.5308 52.8739 18.0546 54.0602C19.1537 54.3486 20.2036 54.8434 21.0145 55.4555L21.5615 55.8684L20.7759 57.1065C19.0416 59.84 17.4797 61.3408 15.3358 62.3334C14.0976 62.9068 12.2304 63.3907 11.2362 63.3962L10.6831 63.3991V64.7945V66.1897L11.9095 66.0749C15.2194 65.7653 18.4317 64.2063 20.6462 61.8349C21.1189 61.3288 22.5354 59.3726 23.7939 57.4879C28.5321 50.3919 33.7864 43.7759 39.2859 37.9809L40.6112 36.5845L43.0389 39.0194L45.4666 41.4541L43.4213 43.5599C40.6981 46.363 39.5977 48.0245 38.7925 50.5486C37.5717 54.3752 37.9063 58.5228 39.7183 62.0284C40.375 63.2987 41.9225 65.4385 42.2863 65.579C42.5206 65.6697 44.2054 64.173 44.2054 63.8742C44.2054 63.7988 43.8598 63.3096 43.4373 62.7874C42.3106 61.3946 41.3684 59.3894 41.058 57.7236C40.9515 57.1517 40.9804 57.0974 41.5113 56.8719C41.8442 56.7306 42.6404 56.6334 43.4396 56.6368C44.656 56.6418 44.915 56.704 45.8723 57.2216C46.9864 57.8242 47.6495 58.5247 48.2667 59.7513C48.7881 60.7875 48.7407 60.9356 47.7858 61.2549L46.942 61.5373L47.2927 62.4254C47.4855 62.9139 47.7131 63.4947 47.7986 63.7164C47.9131 64.014 48.031 64.0858 48.2492 63.9911C49.1221 63.6121 50.8566 63.373 52.1226 63.4573C54.4606 63.6131 56.6078 64.5863 58.2401 66.23C59.742 67.742 60.7393 69.8238 60.9776 71.9433L61.0955 72.9941H62.4568H63.8181L63.6975 71.7598C63.4184 68.9092 62.2509 66.4904 60.1162 64.3409C57.9592 62.169 55.5284 60.9914 52.6625 60.73L51.3819 60.6131L51.2765 60.0477C51.2185 59.7367 50.9066 58.9499 50.5833 58.2992C48.9776 55.0672 45.0999 53.19 41.673 53.9855C41.2629 54.0808 40.8964 54.1276 40.8586 54.0895C40.6413 53.8707 41.429 51.1151 42.1156 49.6919C42.8922 48.082 42.9533 48.0109 47.6796 43.2234C50.308 40.5607 52.5541 38.3827 52.671 38.383C52.8279 38.3834 52.8837 38.8643 52.8837 40.2146V42.0457L55.9041 45.1048C57.5653 46.7874 59.0967 48.2078 59.3074 48.2613C60.0388 48.4468 60.5345 48.1482 61.5592 46.9048C62.7896 45.4119 64.1593 42.741 64.655 40.868C64.9541 39.7376 65.031 38.8595 65.0935 35.8604L65.1692 32.2234L66.8378 31.0238C70.7421 28.2171 74.6155 24.5304 76.5748 21.7562C78.6523 18.8144 80.1729 15.2856 80.9646 11.5689C81.2616 10.1751 81.3468 9.05143 81.422 5.54326L81.5144 1.23082L81.0752 0.78859L80.6359 0.346191L77.0972 0.368465C75.151 0.38063 72.9913 0.456877 72.2977 0.53792ZM78.7476 5.52921C78.7467 7.8207 78.4626 10.5217 78.0668 12.0017L77.893 12.6511L76.8477 12.4056C75.1707 12.0117 73.8812 11.222 72.2757 9.6052C70.6701 7.98861 69.8858 6.6902 69.4946 5.00165L69.2507 3.94912L69.9192 3.76784C71.411 3.36331 73.6978 3.12 76.1536 3.10424L78.7486 3.08762L78.7476 5.52921ZM67.3934 7.36751C68.2522 9.57196 70.6759 12.3701 72.8877 13.7107C73.4318 14.0405 74.583 14.5441 75.4461 14.8297L77.015 15.349L76.4301 16.6205C75.5329 18.5709 73.7752 21.098 72.0535 22.9128C67.4984 27.7144 60.7077 32.2552 54.0408 34.9578L51.9478 35.8062L49.1138 32.9581L46.2797 30.1099L46.4966 29.4921C47.6097 26.3224 50.0468 21.4691 52.0664 18.3997C56.2339 12.0661 60.9146 7.47871 65.314 5.41664L66.5819 4.82226L66.8048 5.6255C66.9273 6.06721 67.1923 6.85109 67.3934 7.36751ZM59.0287 12.9535C54.7142 14.1219 52.0448 18.6201 53.1442 22.8701C54.2826 27.271 58.7433 29.9857 63.0013 28.8689C67.0459 27.8081 69.6887 23.8851 69.1054 19.8083C68.4123 14.9633 63.6273 11.7082 59.0287 12.9535ZM63.3488 15.9518C64.4244 16.4656 65.4493 17.4918 65.9874 18.5938C66.3328 19.3011 66.4054 19.7046 66.4043 20.9069C66.4029 22.2345 66.3518 22.4589 65.8259 23.4429C65.1832 24.6457 64.6487 25.1654 63.367 25.8341C62.6305 26.2184 62.2773 26.2885 61.0516 26.293C59.8528 26.2973 59.4595 26.226 58.7544 25.8768C54.331 23.6867 54.6994 17.4013 59.3508 15.6994C60.4247 15.3065 62.238 15.421 63.3488 15.9518ZM46.7657 22.1491C46.0375 23.5862 45.2975 25.128 45.1214 25.5752L44.801 26.3886L43.0115 26.3891L41.2222 26.3898L39.2077 24.356L37.1931 22.3224L37.764 21.8906C38.5008 21.333 40.1339 20.5207 41.2723 20.1451C42.6286 19.6979 43.5744 19.5784 45.9349 19.5564L48.0899 19.5362L46.7657 22.1491ZM47.1836 34.9571L49.5616 37.356L48.4995 38.4255L47.4375 39.4948L45.0162 37.0567L42.595 34.6187L43.6076 33.5884C44.1645 33.0216 44.6619 32.558 44.7128 32.558C44.7639 32.558 45.8757 33.6376 47.1836 34.9571ZM62.3697 36.6273C62.2999 38.7685 62.2033 39.5737 61.9024 40.5253C61.4646 41.9095 60.6925 43.5275 60.0747 44.3554L59.6459 44.9302L57.6262 42.9018L55.6063 40.8733L55.6069 39.0716L55.6075 37.2698L56.7555 36.7932C57.3869 36.5312 58.899 35.7862 60.1157 35.1377C61.3324 34.4893 62.3571 33.952 62.3928 33.9438C62.4285 33.9356 62.4182 35.1432 62.3697 36.6273ZM38.656 40.6538C37.9103 41.4311 37.0587 42.3816 36.7633 42.7655C36.1522 43.56 34.6762 46.027 34.6762 46.254C34.6762 46.3673 36.7517 47.4645 36.9663 47.4645C36.9881 47.4645 37.4152 46.79 37.9156 45.9653C38.4704 45.0509 39.4554 43.8123 40.4405 42.7899L42.0555 41.1137L41.1368 40.1769C40.6316 39.6617 40.1717 39.2402 40.115 39.2402C40.0582 39.2402 39.4017 39.8764 38.656 40.6538ZM33.3979 49.5634C33.3059 49.8208 32.8105 51.9593 32.807 52.114C32.8056 52.1741 33.1681 52.2744 33.6127 52.3369C34.0573 52.3994 34.6619 52.4925 34.9565 52.5435C35.4842 52.6349 35.495 52.6229 35.6865 51.7239C35.7933 51.2222 35.922 50.6461 35.9724 50.4438C36.054 50.1163 35.9341 50.0363 34.8758 49.7127C33.4801 49.2859 33.4965 49.2874 33.3979 49.5634ZM33.6552 66.2589C32.2488 66.4959 29.9004 67.5647 29.2468 68.2653L28.8929 68.6446L29.7571 69.6211L30.6216 70.5977L31.1089 70.2482C31.3769 70.0561 32.0404 69.6902 32.5832 69.435C33.4383 69.0331 33.7873 68.9709 35.1956 68.9693C36.7313 68.9678 36.8918 69.0029 38.1067 69.6076C39.6578 70.3793 40.6251 71.3753 41.3604 72.9576C41.8103 73.9257 41.891 74.3024 41.8988 75.4727C41.9039 76.2298 41.8501 77.123 41.7792 77.4577L41.6502 78.0659L42.8122 78.4429C43.4514 78.65 44.0204 78.8196 44.0766 78.8196C44.365 78.8196 44.6252 77.3576 44.6255 75.7355C44.6259 73.7584 44.3936 72.819 43.464 71.0359C41.7336 67.717 37.4325 65.6222 33.6552 66.2589ZM15.9582 67.6183C13.5972 68.0792 11.3648 69.417 10.0129 71.1813L9.31945 72.0865L8.43273 71.855C7.27443 71.5524 5.8864 71.5614 4.67518 71.879C3.63054 72.153 2.10128 72.8695 1.91546 73.1723C1.81268 73.3397 2.16288 73.9394 2.99311 75.0176L3.2977 75.4132L4.22526 74.9319C5.03116 74.5137 5.34273 74.451 6.59922 74.4548C7.78407 74.4582 8.19944 74.535 8.89643 74.879C10.5283 75.6846 11.6999 77.2748 11.9629 79.0412L12.0831 79.8477H13.4252H14.7671V79.3696C14.7671 77.8519 13.7805 75.5998 12.5342 74.273L11.697 73.3818L12.4797 72.5053C13.0149 71.9059 13.6722 71.4248 14.559 70.9836C15.7877 70.3721 15.9403 70.3385 17.4808 70.3424C18.7988 70.3459 19.2652 70.4197 19.9465 70.7326C20.9207 71.1801 20.9226 71.1791 21.7266 69.7236L22.2556 68.7663L21.787 68.547C20.4745 67.9331 19.3445 67.656 17.9151 67.5978C17.0728 67.5633 16.1922 67.5726 15.9582 67.6183Z" fill="#274772"/>
</svg>
