<svg width="18" height="20" viewBox="0 0 18 20" fill="none" xmlns="http://www.w3.org/2000/svg">
<path d="M16.8673 14.0942C15.6072 13.0292 14.8847 11.4725 14.8847 9.8233V7.5C14.8847 4.56757 12.7064 2.14005 9.88474 1.7334V0.833282C9.88474 0.372467 9.51135 0 9.05145 0C8.5914 0 8.21802 0.372467 8.21802 0.833282V1.7334C5.3956 2.14005 3.21802 4.56757 3.21802 7.5V9.8233C3.21802 11.4725 2.49551 13.0292 1.22812 14.1008C0.90387 14.3784 0.718018 14.7816 0.718018 15.2083C0.718018 16.0126 1.37216 16.6667 2.17645 16.6667H15.9265C16.7306 16.6667 17.3847 16.0126 17.3847 15.2083C17.3847 14.7816 17.1989 14.3784 16.8673 14.0942Z" fill="#93A6BF"/>
<path d="M9.05154 20C10.5606 20 11.8232 18.9241 12.1132 17.5H5.98987C6.27979 18.9241 7.5423 20 9.05154 20Z" fill="#93A6BF"/>
</svg>
