<svg width="23" height="23" viewBox="0 0 23 23" fill="none" xmlns="http://www.w3.org/2000/svg">
<path d="M3.03943 22.923H19.0346C20.7114 22.923 22.074 21.5604 22.074 19.8836V4.7374C22.074 3.06063 20.7114 1.69797 19.0346 1.69797H17.829V0.848985C17.829 0.382029 17.4469 0 16.98 0C16.513 0 16.131 0.382029 16.131 0.848985V1.69797H5.94304V0.848985C5.94304 0.382029 5.56094 0 5.09398 0C4.62703 0 4.245 0.382029 4.245 0.848985V1.69797H3.03943C1.36266 1.69797 0 3.06063 0 4.7374V19.8836C0 21.5604 1.36266 22.923 3.03943 22.923ZM1.69804 4.7374C1.69804 3.99879 2.30082 3.39601 3.03943 3.39601H4.245V4.245C4.245 4.71195 4.62703 5.09398 5.09398 5.09398C5.56094 5.09398 5.94297 4.71195 5.94297 4.245V3.39601H16.131V4.245C16.131 4.71195 16.513 5.09398 16.98 5.09398C17.4469 5.09398 17.829 4.71195 17.829 4.245V3.39601H19.0345C19.7731 3.39601 20.3759 3.99879 20.3759 4.7374V19.8836C20.3759 20.6222 19.7731 21.225 19.0345 21.225H3.03943C2.30082 21.225 1.69804 20.6222 1.69804 19.8836V4.7374Z" fill="#274772"/>
<path d="M6.15535 9.76333C6.74145 9.76333 7.21658 9.2882 7.21658 8.7021C7.21658 8.116 6.74145 7.64087 6.15535 7.64087C5.56925 7.64087 5.09412 8.116 5.09412 8.7021C5.09412 9.2882 5.56925 9.76333 6.15535 9.76333Z" fill="#274772"/>
<path d="M10.8248 9.76333C11.4109 9.76333 11.886 9.2882 11.886 8.7021C11.886 8.116 11.4109 7.64087 10.8248 7.64087C10.2387 7.64087 9.76355 8.116 9.76355 8.7021C9.76355 9.2882 10.2387 9.76333 10.8248 9.76333Z" fill="#274772"/>
<path d="M15.4943 9.76333C16.0804 9.76333 16.5556 9.2882 16.5556 8.7021C16.5556 8.116 16.0804 7.64087 15.4943 7.64087C14.9082 7.64087 14.4331 8.116 14.4331 8.7021C14.4331 9.2882 14.9082 9.76333 15.4943 9.76333Z" fill="#274772"/>
<path d="M6.15535 14.0082C6.74145 14.0082 7.21658 13.5331 7.21658 12.947C7.21658 12.3609 6.74145 11.8857 6.15535 11.8857C5.56925 11.8857 5.09412 12.3609 5.09412 12.947C5.09412 13.5331 5.56925 14.0082 6.15535 14.0082Z" fill="#274772"/>
<path d="M10.8248 14.0082C11.4109 14.0082 11.886 13.5331 11.886 12.947C11.886 12.3609 11.4109 11.8857 10.8248 11.8857C10.2387 11.8857 9.76355 12.3609 9.76355 12.947C9.76355 13.5331 10.2387 14.0082 10.8248 14.0082Z" fill="#274772"/>
<path d="M15.4943 14.0082C16.0804 14.0082 16.5556 13.5331 16.5556 12.947C16.5556 12.3609 16.0804 11.8857 15.4943 11.8857C14.9082 11.8857 14.4331 12.3609 14.4331 12.947C14.4331 13.5331 14.9082 14.0082 15.4943 14.0082Z" fill="#274772"/>
<path d="M6.15535 18.2533C6.74145 18.2533 7.21658 17.7782 7.21658 17.1921C7.21658 16.606 6.74145 16.1309 6.15535 16.1309C5.56925 16.1309 5.09412 16.606 5.09412 17.1921C5.09412 17.7782 5.56925 18.2533 6.15535 18.2533Z" fill="#274772"/>
<path d="M10.8248 18.2533C11.4109 18.2533 11.886 17.7782 11.886 17.1921C11.886 16.606 11.4109 16.1309 10.8248 16.1309C10.2387 16.1309 9.76355 16.606 9.76355 17.1921C9.76355 17.7782 10.2387 18.2533 10.8248 18.2533Z" fill="#274772"/>
<path d="M15.4943 18.2533C16.0804 18.2533 16.5556 17.7782 16.5556 17.1921C16.5556 16.606 16.0804 16.1309 15.4943 16.1309C14.9082 16.1309 14.4331 16.606 14.4331 17.1921C14.4331 17.7782 14.9082 18.2533 15.4943 18.2533Z" fill="#274772"/>
</svg>
