<svg width="23" height="23" viewBox="0 0 23 23" fill="none" xmlns="http://www.w3.org/2000/svg">
<path d="M6.89999 18.4C5.62926 18.4 4.61151 19.4292 4.61151 20.7C4.61151 21.9708 5.62926 23 6.89999 23C8.17072 23 9.20001 21.9708 9.20001 20.7C9.20001 19.4292 8.17072 18.4 6.89999 18.4Z" fill="white"/>
<path d="M8.16501 12.65H16.7325C17.595 12.65 18.3482 12.1728 18.745 11.4655L22.8562 4.002C22.9483 3.84098 23 3.65123 23 3.45C23 2.81175 22.4825 2.30002 21.85 2.30002H4.84725L3.75473 0H0V2.30002H2.30002L6.43425 11.0227L4.88175 13.8403C4.70348 14.1738 4.59998 14.5475 4.59998 14.95C4.59998 16.2208 5.62926 17.25 6.89999 17.25H20.7V14.95H7.38876C7.22774 14.95 7.10128 14.8235 7.10128 14.6625C7.10128 14.6107 7.11276 14.5648 7.13578 14.5245L8.16501 12.65Z" fill="white"/>
<path d="M18.4 18.4C17.1293 18.4 16.1115 19.4292 16.1115 20.7C16.1115 21.9708 17.1293 23 18.4 23C19.6708 23 20.7 21.9707 20.7 20.7C20.7 19.4292 19.6708 18.4 18.4 18.4Z" fill="white"/>
</svg>
