<svg width="16" height="28" viewBox="0 0 16 28" fill="none" xmlns="http://www.w3.org/2000/svg">
<path d="M15.0763 10.7149C14.9627 10.5515 14.782 10.4476 14.5837 10.4316H9.44834L14.4975 1.78651C14.6101 1.61448 14.6101 1.39206 14.4975 1.22004C14.3877 1.06227 14.2094 0.966217 14.0172 0.961426H7.14546C6.93608 0.961368 6.74299 1.0744 6.64053 1.25698L0.0766318 15.0497C-0.0255439 15.2159 -0.0255439 15.4254 0.0766318 15.5916C0.167839 15.7603 0.35493 15.8539 0.544619 15.8256H5.7169L2.02241 26.7243C1.9379 26.9658 2.04256 27.2328 2.26873 27.3524C2.36063 27.3971 2.46217 27.4183 2.56429 27.414C2.72968 27.4086 2.88739 27.3429 3.00763 27.2292L15.0763 11.306C15.2 11.1284 15.2 10.8925 15.0763 10.7149Z" fill="#BAC8DB"/>
</svg>
