<svg width="11" height="11" viewBox="0 0 11 11" fill="none" xmlns="http://www.w3.org/2000/svg">
<mask id="path-1-outside-1" maskUnits="userSpaceOnUse" x="0.13001" y="-0.414214" width="11.3137" height="11.3137" fill="black">
<rect fill="white" x="0.13001" y="-0.414214" width="11.3137" height="11.3137"/>
<path fill-rule="evenodd" clip-rule="evenodd" d="M1.95069 4.83618L1.36055 5.42631L5.78686 9.85263L10.2132 5.42631L9.62304 4.83618L5.78686 8.67235L1.95069 4.83618Z"/>
</mask>
<path fill-rule="evenodd" clip-rule="evenodd" d="M1.95069 4.83618L1.36055 5.42631L5.78686 9.85263L10.2132 5.42631L9.62304 4.83618L5.78686 8.67235L1.95069 4.83618Z" fill="#364A58"/>
<path d="M1.36055 5.42631L1.007 5.07276L0.653445 5.42631L1.007 5.77987L1.36055 5.42631ZM1.95069 4.83618L2.30424 4.48262L1.95069 4.12907L1.59714 4.48262L1.95069 4.83618ZM5.78686 9.85263L5.43331 10.2062L5.78686 10.5597L6.14042 10.2062L5.78686 9.85263ZM10.2132 5.42631L10.5667 5.77987L10.9203 5.42631L10.5667 5.07276L10.2132 5.42631ZM9.62304 4.83618L9.97659 4.48262L9.62304 4.12907L9.26949 4.48262L9.62304 4.83618ZM5.78686 8.67235L5.43331 9.0259L5.78686 9.37946L6.14042 9.0259L5.78686 8.67235ZM1.7141 5.77987L2.30424 5.18973L1.59714 4.48262L1.007 5.07276L1.7141 5.77987ZM6.14042 9.49907L1.71411 5.07276L1.007 5.77987L5.43331 10.2062L6.14042 9.49907ZM9.85962 5.07276L5.43331 9.49907L6.14042 10.2062L10.5667 5.77987L9.85962 5.07276ZM9.26949 5.18973L9.85962 5.77987L10.5667 5.07276L9.97659 4.48262L9.26949 5.18973ZM9.26949 4.48262L5.43331 8.3188L6.14042 9.0259L9.97659 5.18973L9.26949 4.48262ZM6.14042 8.3188L2.30424 4.48262L1.59714 5.18973L5.43331 9.0259L6.14042 8.3188Z" fill="#364A58" mask="url(#path-1-outside-1)"/>
</svg>
