<svg width="22" height="17" viewBox="0 0 22 17" fill="none" xmlns="http://www.w3.org/2000/svg">
<path d="M10.9916 1.47469C10.4279 1.47584 9.86552 1.52833 9.31135 1.63151C9.13943 1.65901 8.98293 1.74683 8.86987 1.87922C8.75681 2.01162 8.69459 2.17994 8.69434 2.35404C8.69617 2.4614 8.7212 2.5671 8.76771 2.66388C8.81423 2.76066 8.88113 2.84624 8.96383 2.91473C9.04652 2.98323 9.14306 3.03302 9.24681 3.06071C9.35056 3.08839 9.45907 3.0933 9.56489 3.07511C10.0353 2.98657 10.5129 2.94143 10.9916 2.94027C15.3327 2.94027 19.1029 6.74127 20.2886 8.06982C19.4985 8.95419 18.6303 9.76551 17.6945 10.4939C17.6184 10.5528 17.5546 10.6262 17.5068 10.7098C17.4591 10.7934 17.4282 10.8855 17.4161 10.981C17.3916 11.1739 17.4447 11.3686 17.5637 11.5224C17.6827 11.6761 17.858 11.7763 18.0508 11.8008C18.1463 11.8129 18.2433 11.8061 18.3362 11.7808C18.4291 11.7555 18.516 11.7121 18.5922 11.6532C19.7852 10.734 20.8708 9.68309 21.8282 8.52049C21.9291 8.39155 21.984 8.2325 21.984 8.06873C21.984 7.90495 21.9291 7.7459 21.8282 7.61696C21.6311 7.36708 16.9448 1.47469 10.9916 1.47469Z" fill="#274772"/>
<path d="M18.8376 15.9158C18.7002 16.0532 18.5139 16.1304 18.3196 16.1304C18.1252 16.1304 17.9389 16.0532 17.8015 15.9158L15.4712 13.5855C14.5889 14.0107 13.6555 14.32 12.6939 14.5059C12.1326 14.6115 11.5628 14.6647 10.9916 14.6649C5.03842 14.6649 0.352213 8.77256 0.155825 8.52194C0.0548603 8.39299 0 8.23394 0 8.07017C0 7.9064 0.0548603 7.74735 0.155825 7.61841C1.1123 6.45681 2.19687 5.40691 3.38891 4.48865C3.95279 4.0467 4.54359 3.64019 5.15787 3.27148L3.14562 1.25996C3.07563 1.19237 3.0198 1.11151 2.9814 1.0221C2.94299 0.932699 2.92278 0.836542 2.92193 0.739243C2.92109 0.641943 2.93963 0.54545 2.97647 0.455393C3.01332 0.365335 3.06773 0.283517 3.13654 0.214713C3.20534 0.145909 3.28716 0.0914955 3.37722 0.0546513C3.46727 0.0178051 3.56377 -0.000736237 3.66107 0.000110626C3.75837 0.000955582 3.85452 0.0211716 3.94393 0.059576C4.03333 0.0979805 4.11419 0.153806 4.18179 0.223795L18.8376 14.8797C18.975 15.0171 19.0522 15.2034 19.0522 15.3977C19.0522 15.592 18.975 15.7784 18.8376 15.9158ZM4.28878 5.645C3.35293 6.37362 2.48472 7.18518 1.69469 8.06981C2.88035 9.39763 6.65057 13.1994 10.9916 13.1994C11.4738 13.199 11.9548 13.1538 12.4286 13.0645C13.092 12.9383 13.74 12.7418 14.3617 12.4783L13.0119 11.1285C12.3074 11.594 11.4637 11.8019 10.6236 11.7169C9.7834 11.632 8.99837 11.2595 8.40126 10.6624C7.80415 10.0653 7.43162 9.28024 7.34669 8.44009C7.26176 7.59993 7.46963 6.75623 7.93515 6.0517L6.22848 4.34209C5.54981 4.72658 4.90137 5.16214 4.28878 5.645ZM9.01309 7.1289C8.87028 7.42212 8.79516 7.74367 8.79325 8.06981C8.7934 8.65115 9.02304 9.20893 9.43225 9.62186C9.75848 9.93211 10.1701 10.1377 10.6141 10.2121C11.0581 10.2865 11.5142 10.2264 11.9237 10.0396L9.01309 7.1289Z" fill="#274772"/>
</svg>
