<svg width="198" height="200" viewBox="0 0 198 200" fill="none" xmlns="http://www.w3.org/2000/svg">
<path fill-rule="evenodd" clip-rule="evenodd" d="M92.9614 157.08C65.0864 150.979 27.946 138.872 34.0492 97.3317C40.1524 55.7912 66.3149 39.7743 98.6826 39.7743C131.049 39.7743 167.823 64.1936 160.604 114.78C153.385 165.367 120.836 163.18 92.9614 157.08ZM184.584 107.005C185.736 95.4465 184.513 84.0097 181.227 73.2885L190.601 68.2675C192.181 67.4215 192.775 65.4555 191.93 63.876L179.133 39.9846C178.286 38.4052 176.32 37.8107 174.74 38.6567L165.366 43.6777C158.26 35.0041 149.417 27.6491 139.16 22.2023L142.234 12.0284C142.754 10.3133 141.784 8.50288 140.068 7.9844L114.125 0.139678C112.409 -0.37881 110.6 0.591023 110.081 2.30608L107.006 12.48C95.4453 11.3293 87.023 15.5654 76.3016 18.8487L71.2803 9.47517C70.4346 7.89573 68.4683 7.30131 66.8892 8.14725L42.9977 20.945C41.4183 21.791 40.8239 23.757 41.6698 25.3362L46.6908 34.71C38.0172 41.8156 27.649 47.6455 22.2023 57.9052L12.0281 54.8289C10.3133 54.3104 8.50261 55.2802 7.98412 56.995L0.139679 82.9383C-0.378808 84.6534 0.591023 86.4638 2.30581 86.9826L12.48 90.0589C11.3292 101.617 12.5522 113.055 15.8355 123.775L6.46196 128.797C4.88253 129.643 4.2881 131.609 5.13404 133.188L17.9318 157.08C18.7778 158.659 20.7438 159.253 22.323 158.407L31.6968 153.386C38.8024 162.06 47.6454 169.415 57.9051 174.862L54.8288 185.036C54.3103 186.751 55.2802 188.561 56.995 189.08L82.9387 196.923C84.6519 197.443 86.4637 196.473 86.9833 194.757L90.0579 184.584C101.616 185.735 113.054 184.512 123.776 181.228L128.795 190.602C129.643 192.181 131.609 192.775 133.189 191.93L157.08 179.132C158.657 178.286 159.254 176.32 158.407 174.741L153.385 165.367C162.06 158.262 169.414 149.418 174.862 139.159L185.035 142.235C186.751 142.754 188.562 141.784 189.079 140.069L196.923 114.126C197.443 112.411 196.473 110.6 194.757 110.082L184.584 107.005Z" fill="#EAF0F9"/>
<path fill-rule="evenodd" clip-rule="evenodd" d="M130.603 97.9871C129.605 97.2414 128.853 96.1889 128.486 95.0233C128.43 94.847 128.52 94.1873 128.711 94.6053C128.902 95.0233 130.049 96.8341 130.935 97.4961C131.85 98.1798 133.021 98.8106 134.166 98.827C135.61 98.8477 136.97 98.0116 137.997 97.0201C139.024 96.0284 139.59 94.7042 139.59 93.2915C139.59 91.619 139.065 90.0336 137.68 89.0505L137.62 89.0075C137.142 88.6689 136.515 88.2246 136.306 87.7184L135.889 86.7108H135.404H134.721H133.77C133.77 86.7108 133.62 87.883 133.62 88.5093C133.62 89.1356 133.77 90.4406 133.77 90.4406C133.77 90.4406 133.986 90.496 134.166 90.4921C134.345 90.4883 134.721 90.4204 134.721 90.4204C134.721 90.4204 134.864 89.1478 134.864 88.5093C134.864 87.8709 134.721 86.8248 134.721 86.8248H135.404C135.404 86.8248 135.233 87.9456 135.233 88.4937C135.233 89.1441 135.404 90.4204 135.404 90.4204C136.044 90.4204 137.124 90.951 137.124 91.5783C137.124 92.2056 136.603 92.716 135.963 92.716H135.883C135.242 92.716 134.721 92.2056 134.721 91.5783C134.721 91.5783 134.9 90.851 134.208 90.851C133.516 90.851 133.469 91.1544 133.469 91.5783C133.469 92.3883 133.249 92.716 132.609 92.716H132.529C131.888 92.716 131.367 92.2056 131.367 91.5783C131.367 90.951 131.888 90.4406 132.529 90.4406H133.088C133.088 90.4406 133.256 89.0361 133.256 88.327C133.256 87.6179 133.088 86.7108 133.088 86.7108H132.603L132.487 87.7186C132.267 88.2508 131.903 88.7066 131.433 89.0367C130.017 90.0328 128.882 91.6462 128.902 93.3523C128.903 93.3977 128.904 93.4429 128.905 93.488C128.912 93.6724 128.765 93.8275 128.577 93.8344C128.389 93.8394 128.23 93.6973 128.224 93.5128C128.222 93.4619 128.22 93.411 128.22 93.3598C128.197 91.436 129.137 89.6169 130.734 88.4937C131.098 88.2375 131.382 87.8826 131.553 87.4676L131.94 86.5334C131.622 86.3338 131.411 85.9852 131.411 85.5891C131.411 85.0294 131.832 84.5642 132.38 84.4808C132.493 83.6944 133.113 83.0658 133.905 82.9233L134.587 82.9234C135.379 83.0659 135.999 83.6945 136.112 84.4808C136.659 84.5643 137.08 85.0295 137.08 85.5891C137.08 85.9853 136.869 86.3338 136.552 86.5335L136.938 87.4674C137.108 87.8791 137.399 88.2393 137.779 88.5093C139.34 89.6178 140.272 91.4055 140.272 93.2915C140.272 94.8846 139.634 96.3778 138.476 97.4961C137.317 98.6143 135.784 99.217 134.156 99.194C132.864 99.1755 131.635 98.7582 130.603 97.9871ZM135.404 91.5784C135.404 91.8371 135.618 92.0476 135.883 92.0476H135.963C135.984 92.0476 136.006 92.0479 136.027 92.0483L136.027 92.0483C136.261 92.052 136.442 92.0549 136.442 91.5784C136.442 91.059 135.404 90.851 135.404 90.851V91.5784ZM133.088 91.5783C133.188 92.5166 131.833 92.2318 131.788 91.5783C131.744 90.9249 133.088 90.851 133.088 90.851V91.5783ZM134.246 83.5609C133.678 83.5609 133.201 83.9483 133.076 84.4674H135.416C135.29 83.9483 134.813 83.5609 134.246 83.5609ZM135.789 85.1359H135.935C136.19 85.1359 136.398 85.3392 136.398 85.5891C136.398 85.8391 136.19 86.0424 135.935 86.0424H132.556C132.301 86.0424 132.094 85.8391 132.094 85.5891C132.094 85.3392 132.301 85.1359 132.556 85.1359H132.702H135.789ZM142.378 88.0458H141.782C141.614 88.0458 141.477 87.9109 141.477 87.7445C141.477 87.578 141.614 87.4432 141.782 87.4432H142.378C142.546 87.4432 142.683 87.578 142.683 87.7445C142.683 87.9109 142.546 88.0458 142.378 88.0458ZM141.882 90.4204L141.308 90.1789C141.269 90.1627 141.23 90.155 141.191 90.155C141.065 90.155 140.947 90.2336 140.898 90.363C140.833 90.5327 140.911 90.7255 141.073 90.7936L141.647 91.0351C141.809 91.1031 141.992 91.0208 142.057 90.851C142.122 90.6813 142.044 90.4885 141.882 90.4204ZM141.334 84.8337L140.796 85.265C140.644 85.3866 140.436 85.3428 140.331 85.1671C140.227 84.9914 140.264 84.7503 140.416 84.6287L140.954 84.1974C141.012 84.1509 141.078 84.1285 141.143 84.1285C141.249 84.1285 141.353 84.1868 141.418 84.2953C141.523 84.4711 141.485 84.7121 141.334 84.8337ZM125.812 88.0458H126.408C126.576 88.0458 126.713 87.9109 126.713 87.7445C126.713 87.578 126.576 87.4432 126.408 87.4432H125.812C125.644 87.4432 125.507 87.578 125.507 87.7445C125.507 87.9109 125.644 88.0458 125.812 88.0458ZM126.308 90.4204L126.882 90.1789C126.921 90.1627 126.96 90.155 127 90.155C127.125 90.155 127.243 90.2336 127.293 90.363C127.357 90.5327 127.279 90.7255 127.117 90.7936L126.543 91.0351C126.382 91.1031 126.198 91.0208 126.133 90.851C126.068 90.6814 126.147 90.4885 126.308 90.4204ZM126.857 84.8337L127.394 85.265C127.546 85.3867 127.754 85.3427 127.859 85.167C127.964 84.9913 127.926 84.7503 127.774 84.6287L127.236 84.1974C127.179 84.1509 127.112 84.1285 127.047 84.1285C126.941 84.1285 126.837 84.1868 126.772 84.2953C126.667 84.4711 126.705 84.7121 126.857 84.8337Z" fill="#274772"/>
<path d="M89.8749 132.816C93.1984 133.691 94.9039 135.773 96.3442 137.712C97.7875 139.651 94.6146 138.728 92.864 138.028C91.1133 137.329 86.8978 134.741 86.8978 134.741L72.9226 130.514V124.05L77.1019 123.806C77.1019 123.806 86.5483 131.941 89.8749 132.816Z" fill="white"/>
<path d="M75.3939 85.4755C78.383 96.7882 79.9257 107.613 80.1698 117.996C80.1698 117.996 82.9691 118.346 82.6195 120.796C82.27 123.245 74.9208 129.893 74.9208 129.893L72.3747 121.453L71.4225 90.3536L75.3939 85.4755Z" fill="white"/>
<path fill-rule="evenodd" clip-rule="evenodd" d="M76.4137 91.2653L74.6973 90.1268C74.5877 90.0541 74.4431 90.1106 74.4036 90.2415L73.8051 92.2293C73.7552 92.3949 73.9041 92.55 74.0585 92.4934L76.3734 91.6441C76.5313 91.5862 76.5554 91.3592 76.4137 91.2653ZM76.2058 91.5939L74.0966 92.2041L74.7244 90.3961L76.2058 91.5939Z" fill="#BAC8DB"/>
<path fill-rule="evenodd" clip-rule="evenodd" d="M75.6603 105.578L73.9439 104.439C73.8343 104.367 73.6896 104.423 73.6502 104.554L73.0517 106.542C73.0018 106.708 73.1507 106.863 73.3051 106.806L75.62 105.957C75.7778 105.899 75.802 105.672 75.6603 105.578ZM75.4527 105.907L73.3434 106.517L73.9713 104.709L75.4527 105.907Z" fill="#BAC8DB"/>
<path fill-rule="evenodd" clip-rule="evenodd" d="M74.7579 113.619L74.8857 111.563C74.8938 111.432 74.7726 111.335 74.6395 111.366L72.6187 111.842C72.4504 111.882 72.3905 112.088 72.5167 112.193L74.4097 113.774C74.5388 113.881 74.7474 113.789 74.7579 113.619ZM74.3694 113.603L72.7864 112.082L74.666 111.722L74.3694 113.603Z" fill="#BAC8DB"/>
<path fill-rule="evenodd" clip-rule="evenodd" d="M78.011 112.102L75.9553 111.975C75.824 111.967 75.727 112.088 75.7584 112.221L76.2339 114.242C76.2735 114.41 76.4801 114.47 76.5854 114.344L78.1655 112.451C78.2733 112.322 78.1807 112.113 78.011 112.102ZM77.9953 112.491L76.4737 114.074L76.1135 112.194L77.9953 112.491Z" fill="#BAC8DB"/>
<path fill-rule="evenodd" clip-rule="evenodd" d="M76.424 122.582L74.5799 123.499C74.4621 123.557 74.4387 123.711 74.5324 123.81L75.9546 125.323C76.0731 125.449 76.2819 125.397 76.31 125.235L76.7319 122.806C76.7607 122.64 76.5762 122.506 76.424 122.582ZM76.6047 122.926L76.0785 125.058L74.8267 123.61L76.6047 122.926Z" fill="#BAC8DB"/>
<path fill-rule="evenodd" clip-rule="evenodd" d="M77.3281 116.857L75.4839 117.774C75.3661 117.832 75.3428 117.986 75.4364 118.085L76.8587 119.598C76.9771 119.724 77.186 119.672 77.2141 119.51L77.636 117.081C77.6648 116.915 77.4803 116.781 77.3281 116.857ZM77.5086 117.201L76.9824 119.333L75.7306 117.885L77.5086 117.201Z" fill="#BAC8DB"/>
<path d="M65.3726 92.2782L63.3448 98.4C58.7097 112.42 56.4272 119.536 56.3587 120.204C56.3161 120.618 56.5674 120.928 56.955 121.033C57.1879 121.096 57.4727 121.093 57.8265 121.041C58.3769 120.959 59.1128 120.752 60.0014 120.446C60.6883 120.208 61.4305 119.923 62.1823 119.616L62.4986 119.485C62.6014 119.442 62.7013 119.4 62.798 119.359L63.3004 119.143L63.4438 119.08L63.5273 118.947C63.6754 118.711 63.8864 118.294 64.0945 117.722C64.2775 117.22 64.4232 116.682 64.5191 116.113L64.5527 115.899C64.5825 115.69 64.869 115.207 65.4599 114.382L65.8718 113.819C66.2095 113.363 66.8594 112.493 66.9248 112.405L67.3069 111.888C67.6722 111.39 67.991 110.945 68.3024 110.497C69.8649 108.247 70.969 106.278 71.6203 104.384C72.1728 102.776 72.3666 101.287 72.1478 99.9182C71.8128 97.8284 71.9411 95.8316 72.4302 93.9575C72.8365 92.4004 71.5513 90.9639 69.6984 90.4357C67.7839 89.89 65.9599 90.5081 65.3726 92.2782Z" fill="white"/>
<path d="M68.7664 83.2255C69.8958 84.4241 70.8434 85.3382 71.6093 85.9677C72.8993 87.028 74.7486 88.1645 77.1572 89.377C69.7899 91.0831 65.2913 91.4204 63.6614 90.3889C63.6614 90.3889 64.3403 87.1943 65.3157 85.8256C66.042 84.8065 68.7664 83.2255 68.7664 83.2255Z" fill="white"/>
<path d="M80.4858 67.8247C78.9551 73.6383 74.7727 79.7078 70.3192 78.5357C65.8657 77.3633 63.4009 69.4172 64.9316 63.6035C66.4623 57.7898 71.3136 54.0272 75.7671 55.1994C80.2206 56.3715 82.0165 62.0113 80.4858 67.8247Z" fill="white"/>
<path d="M81.5046 69.6788C79.7723 76.332 75.0392 83.278 69.9992 81.9366C64.9592 80.5948 62.1698 71.5012 63.9021 64.848C65.6344 58.1948 71.1245 53.8889 76.1645 55.2303C81.2045 56.5717 83.2369 63.0259 81.5046 69.6788Z" fill="white"/>
<path fill-rule="evenodd" clip-rule="evenodd" d="M73.4612 55.9956C76.8956 56.1907 79.4021 57.3189 80.8072 59.3071L80.9656 59.537C81.6605 60.5398 82.2448 61.171 82.5003 63.0692L82.5249 63.2709C82.6709 64.5197 82.7137 65.837 82.6387 66.2741C82.5982 66.4588 82.5189 66.5233 82.419 66.5037C82.1919 66.4593 81.6041 65.4148 80.6555 63.37L79.8594 64.3018C79.4262 64.8023 78.5075 65.274 77.963 65.6286C77.4185 65.9832 73.4612 55.9956 73.4612 55.9956Z" fill="#E7EAEE"/>
<path fill-rule="evenodd" clip-rule="evenodd" d="M76.9288 74.8813C78.8412 75.6788 80.294 76.7148 80.6792 76.2839C81.0643 75.8531 79.7507 74.5411 78.73 72.7592C77.6616 70.9873 76.6466 68.7552 76.4569 67.8471L75.9711 65.5518C74.5501 67.3451 73.2196 73.3617 76.9288 74.8813Z" fill="white"/>
<path d="M99.1626 184.445L99.059 190.827H95.4287L94.3414 183.504L99.1626 184.445Z" fill="white"/>
<path d="M59.4042 150.506C59.4042 150.506 82.9593 149.986 90.3641 148.918C98.5839 147.732 103.079 144.93 104.867 145.261C105.704 145.416 110.649 146.293 120.966 147.39C125.329 147.854 136.655 147.925 136.655 147.925L141.051 138.569C141.051 138.569 110.117 132.358 100.336 135.046C97.2598 135.892 90.5979 137.112 82.677 136.666C75.8278 136.281 57.1995 132.663 57.1995 132.663C57.1995 132.663 49.6782 135.363 51.0396 142.002C52.401 148.642 59.4042 150.506 59.4042 150.506Z" fill="white"/>
<path fill-rule="evenodd" clip-rule="evenodd" d="M138.531 142.572L139.979 138.379C139.979 138.379 109.097 132.618 99.3162 135.307C96.2398 136.152 93.4597 137.546 85.5389 137.101C82.5066 136.93 77.3222 136.22 69.9856 134.972C66.2744 134.34 65.6782 134.574 68.595 136.481C75.359 140.905 90.405 139.862 104.057 137.869C129.428 134.164 138.531 142.572 138.531 142.572Z" fill="#E7EAEE"/>
<path d="M95.0645 185.894C93.5278 187.592 91.4909 190.388 92.5395 193.187L110.736 198.786C110.736 198.786 111.435 196.686 110.387 194.938C109.335 193.187 99.407 186.281 99.407 186.281L95.0645 185.894Z" fill="white"/>
<path fill-rule="evenodd" clip-rule="evenodd" d="M103.464 189.686C103.584 189.653 103.708 189.725 103.741 189.845C103.774 189.965 103.702 190.09 103.582 190.122C102.989 190.283 102.599 190.657 102.462 191.131C102.284 191.745 102.265 192.372 102.466 193.375C102.491 193.497 102.411 193.617 102.289 193.641C102.167 193.666 102.047 193.586 102.023 193.464C101.807 192.391 101.829 191.69 102.027 191.006C102.209 190.378 102.721 189.887 103.464 189.686Z" fill="#E7EAEE"/>
<path fill-rule="evenodd" clip-rule="evenodd" d="M93.4436 193.489L111.345 198.756C111.345 198.756 113.619 198.278 111.268 197.944C108.853 197.601 94.7109 191.125 93.1554 192.305C92.9342 192.473 93.3066 193.123 93.4436 193.489Z" fill="#E7EAEE"/>
<path d="M48.8373 149.17C48.8373 149.17 56.9152 151.72 63.42 152.676C69.9249 153.632 82.9001 154.175 82.9001 154.175C82.9001 154.175 86.9509 156.378 87.2122 157.397C87.314 157.795 87.9279 163.043 89.625 169.748C90.4234 172.902 94.6895 187.166 94.6895 187.166L100.336 184.666C100.336 184.666 100.109 158.45 96.505 149.755C92.9005 141.061 55.8494 132.616 55.8494 132.616C55.8494 132.616 47.9859 131.193 45.8451 137.624C43.7044 144.054 48.8373 149.17 48.8373 149.17Z" fill="white"/>
<path fill-rule="evenodd" clip-rule="evenodd" d="M95.5935 186.262L101.24 183.762C101.089 166.285 99.812 154.648 97.4089 148.852C97.4089 148.852 99.8647 179.71 95.5935 186.262Z" fill="#E7EAEE"/>
<path d="M144.833 142.916C146.238 144.724 148.638 147.216 151.577 146.669L160.25 129.721C160.25 129.721 158.019 128.734 156.115 129.463C154.209 130.195 145.825 138.944 145.825 138.944L144.833 142.916Z" fill="white"/>
<path fill-rule="evenodd" clip-rule="evenodd" d="M107.16 192.695C107.251 192.609 107.394 192.612 107.48 192.702C107.566 192.792 107.563 192.935 107.473 193.022C106.948 193.525 106.851 194.368 107.152 194.877C107.216 194.984 107.18 195.123 107.073 195.187C106.965 195.25 106.827 195.215 106.763 195.107C106.357 194.421 106.481 193.347 107.16 192.695Z" fill="#E7EAEE"/>
<path fill-rule="evenodd" clip-rule="evenodd" d="M105.314 191.205C105.405 191.12 105.548 191.124 105.634 191.215C105.719 191.306 105.715 191.449 105.624 191.535L105.502 191.652C104.551 192.587 104.279 193.405 105.116 194.282C105.202 194.373 105.198 194.516 105.108 194.602C105.018 194.688 104.875 194.685 104.788 194.594C104.17 193.946 104.043 193.246 104.317 192.545C104.506 192.062 104.835 191.656 105.314 191.205Z" fill="#E7EAEE"/>
<path fill-rule="evenodd" clip-rule="evenodd" d="M96.6163 190.909C97.135 191.901 99.8892 191.494 99.4099 188.751C99.1831 187.454 95.1797 188.163 96.6163 190.909Z" fill="#E7EAEE"/>
<path fill-rule="evenodd" clip-rule="evenodd" d="M149.857 146.984C153.497 142.825 155.589 133.471 158.586 130.253C159.644 129.117 161.016 128.862 159.539 131.551C156.837 136.473 151.642 146.984 151.642 146.984C151.368 147.122 151.028 146.984 150.72 146.984H149.857Z" fill="#E7EAEE"/>
<path d="M89.8748 132.816C93.1984 133.691 94.9039 135.773 96.3442 137.712C97.7875 139.651 94.6146 138.728 92.8639 138.028C91.1133 137.329 87.7644 134.673 87.7644 134.673L89.8748 132.816Z" fill="white"/>
<path d="M59.6012 124.944C59.6012 124.944 78.3102 132.981 80.9468 132.991C83.5803 133.002 90.0436 136.14 90.3932 138.59C90.818 141.569 79.5456 137.19 79.5456 137.19C79.5456 137.19 54.3523 137.19 50.1549 132.991C45.9548 128.792 48.7537 120.045 48.7537 120.045L59.6012 124.944Z" fill="white"/>
<path d="M55.0513 87.5036C55.0513 87.5036 59.6012 90.3026 60.3003 99.4003C60.9993 108.498 58.2001 119.345 58.2001 119.345C58.2001 119.345 59.9507 120.745 60.3003 122.144C60.6498 123.544 59.5861 125.391 59.5861 125.391C59.5861 125.391 49.1038 130.542 48.4038 130.892C47.7042 131.242 44.9049 130.192 44.9049 127.393C44.9049 124.594 45.9547 122.144 45.9547 122.144C46.457 103.678 43.5053 85.7538 55.0513 87.5036Z" fill="white"/>
<path fill-rule="evenodd" clip-rule="evenodd" d="M73.5853 68.145C74.6616 66.7038 76.9363 66.2346 77.5434 68.5098C77.5434 68.5098 78.0098 69.8826 77.0697 70.7308C74.19 73.3293 72.5091 69.5862 73.5853 68.145Z" fill="white"/>
<path fill-rule="evenodd" clip-rule="evenodd" d="M79.5954 69.7084C80.6179 68.3393 82.7789 67.8935 83.3556 70.0549C83.3556 70.0549 83.7987 71.3591 82.9057 72.1649C80.1698 74.6334 78.573 71.0775 79.5954 69.7084Z" fill="white"/>
<path d="M71.2231 87.2334C71.2231 87.2334 71.2231 104.053 71.4702 113.452C71.7172 122.851 69.5628 132.112 65.4468 139.354C61.3307 146.597 61.8909 156.957 58.8569 157.727C34.8583 163.818 41.3196 89.2758 50.1991 84.5124C59.0786 79.7491 62.0117 78.7401 62.0117 78.7401" fill="white"/>
<path fill-rule="evenodd" clip-rule="evenodd" d="M58.9153 91.9524L56.8471 95.0404C56.6756 95.2965 56.8051 95.6454 57.1022 95.7275L59.8619 96.4906C60.1827 96.5793 60.4861 96.3026 60.4272 95.975L59.7357 92.1241C59.6638 91.7239 59.1415 91.6147 58.9153 91.9524ZM59.3648 92.4276L59.9824 96.055L57.5826 95.0404L59.3648 92.4276Z" fill="#BAC8DB"/>
<path fill-rule="evenodd" clip-rule="evenodd" d="M52.2611 88.9364L49.8238 92.8486C49.6682 93.0985 49.7891 93.4281 50.0695 93.518L54.325 94.8823C54.6794 94.9959 55.0116 94.6565 54.8903 94.3047L53.072 89.0281C52.9481 88.6684 52.4623 88.6134 52.2611 88.9364ZM52.839 89.4133L54.0842 94.3047L50.3945 92.8486L52.839 89.4133Z" fill="#BAC8DB"/>
<path fill-rule="evenodd" clip-rule="evenodd" d="M50.7595 118.535L52.4174 124.766C52.5193 125.148 53.0295 125.224 53.2383 124.888L55.7032 120.913C55.8399 120.693 55.7636 120.403 55.5361 120.278L51.4133 118.022C51.0647 117.832 50.6574 118.151 50.7595 118.535ZM51.1962 118.72L55.0177 120.675L52.8541 124.649L51.1962 118.72Z" fill="#BAC8DB"/>
<path fill-rule="evenodd" clip-rule="evenodd" d="M47.4395 141.413L48.3435 145.684C48.4264 146.075 48.9404 146.174 49.1621 145.84L51.6042 142.166C51.7844 141.895 51.6276 141.528 51.3071 141.471L47.961 140.874C47.6454 140.818 47.3731 141.099 47.4395 141.413ZM48.2283 141.345L51.1281 142.373L48.626 145.23L48.2283 141.345Z" fill="#BAC8DB"/>
<path fill-rule="evenodd" clip-rule="evenodd" d="M55.2739 140.509L56.1778 144.78C56.2608 145.171 56.7747 145.27 56.9964 144.936L59.4386 141.262C59.6188 140.991 59.4619 140.624 59.1415 140.567L55.7954 139.97C55.4797 139.914 55.2075 140.195 55.2739 140.509ZM55.6922 140.88L59.0682 140.787L56.29 144.357L55.6922 140.88Z" fill="#BAC8DB"/>
<path fill-rule="evenodd" clip-rule="evenodd" d="M51.0553 131.77L51.9593 136.041C52.0423 136.433 52.5562 136.531 52.7779 136.198L55.2201 132.523C55.4002 132.252 55.2434 131.885 54.923 131.828L51.5768 131.232C51.2612 131.176 50.989 131.457 51.0553 131.77ZM51.4976 131.677L54.5424 132.575L52.1002 135.646L51.4976 131.677Z" fill="#BAC8DB"/>
<path fill-rule="evenodd" clip-rule="evenodd" d="M151.111 145.59C150.884 146.034 150.511 146.219 150.014 146.247C148.245 146.345 146.843 145.565 145.591 144.427C145.117 143.996 144.696 143.506 144.221 143.076C143.886 142.774 143.528 142.577 143.006 142.764C142.606 142.907 142.137 142.853 141.7 142.898C140.715 142.998 139.732 143.129 138.744 143.201C138.115 143.247 138.099 143.784 137.952 144.154C137.617 144.992 137.368 145.865 137.102 146.729C136.999 147.065 136.835 147.197 136.458 147.193C134.575 147.17 132.693 147.172 130.811 147.187C129.953 147.194 129.095 147.297 128.24 147.277C126.629 147.241 125.017 147.189 123.412 147.066C121.859 146.947 120.314 146.723 118.764 146.557C117.676 146.441 116.581 146.38 115.497 146.233C114.236 146.061 112.987 145.812 111.729 145.619C111.099 145.522 110.46 145.494 109.83 145.401C108.749 145.242 107.669 145.077 106.596 144.877C105.6 144.691 104.663 144.884 103.725 145.193C101.9 145.796 100.07 146.384 98.2391 146.97C97.9135 147.074 97.8171 147.16 97.9641 147.555C98.5035 149.006 99.0086 150.473 99.4477 151.957C99.7575 153.005 99.9718 154.084 100.171 155.16C100.414 156.478 100.618 157.804 100.8 159.133C100.938 160.147 101.026 161.17 101.117 162.19C101.233 163.487 101.343 164.785 101.43 166.085C101.517 167.379 101.59 168.674 101.639 169.97C101.723 172.171 101.785 174.372 101.851 176.573C101.891 177.906 101.916 179.24 101.96 180.572C101.973 180.959 102.097 181.356 102.038 181.728C101.994 182.008 101.795 182.4 101.566 182.488C100.978 182.714 100.808 183.152 100.813 183.755C100.82 184.524 100.916 185.295 100.896 186.063C100.884 186.552 101.071 186.894 101.427 187.154C103.044 188.333 104.677 189.491 106.293 190.672C107.061 191.232 107.817 191.809 108.552 192.41C109.34 193.054 110.112 193.719 110.862 194.406C111.611 195.09 112.009 195.926 112.135 196.97C112.232 197.778 112.129 198.53 111.994 199.3C111.924 199.7 111.695 199.864 111.278 199.728C109.527 199.157 107.78 198.575 106.021 198.03C103.115 197.131 100.201 196.258 97.2909 195.374C96.2534 195.059 95.2159 194.745 94.1772 194.434C93.541 194.243 93.4066 193.673 93.2885 193.156C92.9527 191.687 93.3864 190.351 94.1611 189.119C94.6352 188.365 95.1877 187.661 95.7061 186.935C96.1294 186.342 96.0202 185.735 95.8106 185.093C95.1282 183.005 94.4574 180.912 93.8124 178.812C93.1756 176.739 92.5447 174.663 91.9678 172.573C91.3581 170.364 90.8048 168.139 90.2474 165.916C89.9457 164.713 89.6612 163.504 89.417 162.288C89.2343 161.379 89.1309 160.454 88.9875 159.537C88.8161 158.442 88.713 157.328 88.4309 156.261C88.3095 155.802 87.864 155.382 87.4756 155.049C86.6297 154.325 85.6581 153.785 84.6025 153.416C84.3416 153.325 84.0589 153.262 83.7838 153.252C82.4742 153.203 81.1631 153.19 79.8536 153.137C78.5745 153.085 77.2959 153.014 76.0186 152.928C74.7014 152.84 73.385 152.733 72.07 152.615C70.6625 152.489 69.25 152.389 67.8527 152.187C66.3714 151.973 64.9036 151.662 63.4336 151.374C62.9555 151.281 62.6063 151.571 62.5321 152.245C62.37 153.719 61.8693 155.088 61.2745 156.429C60.8456 157.396 60.0363 157.88 59.0379 158.045C58.3252 158.163 57.5951 158.275 56.8782 158.248C54.8379 158.171 53.0182 157.498 51.3996 156.204C49.3468 154.562 48.1456 152.369 47.123 150.031C46.6647 148.983 46.0748 147.984 45.7151 146.905C45.3244 145.734 45.1268 144.498 44.8547 143.288C44.643 142.346 44.427 141.404 44.249 140.456C44.1082 139.706 44.0194 138.946 43.9125 138.19C43.7703 137.185 43.6302 136.18 43.495 135.175C43.4503 134.842 43.4061 134.508 43.3921 134.173C43.3484 133.125 43.3269 132.076 43.2824 131.028C43.2201 129.558 43.1037 128.09 43.0843 126.62C43.0511 124.105 43.0545 121.59 43.0846 119.076C43.0979 117.972 43.1912 116.866 43.2904 115.766C43.4032 114.514 43.5743 113.268 43.6989 112.018C43.7879 111.125 43.8157 110.226 43.918 109.336C44.0681 108.029 44.2329 106.722 44.4419 105.424C44.6904 103.879 44.9747 102.34 45.2752 100.804C45.8439 97.8989 46.5056 95.0111 47.5887 92.2505C48.2788 90.4917 48.9989 88.6976 50.4076 87.3698C51.0173 86.7952 51.8646 86.464 52.6223 86.0561C54.7017 84.9366 56.7921 83.8373 58.8722 82.7191C58.9695 82.6668 59.053 82.5149 59.0689 82.3992C59.124 81.9983 59.0995 81.581 59.198 81.1934C59.2621 80.941 59.4393 80.664 59.6485 80.5114C60.3503 79.9996 61.0855 79.5328 61.8173 79.0636C61.9483 78.9796 62.1337 78.9061 62.2776 78.9293C63.0491 79.0538 63.4362 78.5791 63.7007 77.9949C64.0588 77.2039 64.3857 76.3947 64.6635 75.5722C65.1236 74.21 65.5877 72.8443 65.9358 71.4516C66.0559 70.9712 65.8711 70.3981 65.7626 69.8805C65.5419 68.8272 65.3587 67.7546 65.0033 66.7451C64.776 66.0997 64.3162 65.5143 63.8767 64.9696C62.7406 63.5614 62.1438 61.9842 62.3348 60.1771C62.4178 59.3924 62.7544 58.6612 63.3413 58.0911C64.032 57.4202 64.7402 56.7672 65.433 56.0985C65.9381 55.611 65.9019 55.2383 65.2442 54.7617C64.3237 54.0947 63.4411 53.3741 62.5605 52.6541C61.8085 52.0391 61.4849 51.1605 61.2857 50.2599C61.0147 49.0346 60.9822 47.7984 61.4819 46.6025C62.2812 44.6898 63.433 43.1112 65.5414 42.5161C67.3996 41.9916 69.2534 42.0271 70.9211 43.0805C72.4364 44.0376 73.3989 45.4633 73.8223 47.2228C74.3191 49.2878 73.7535 51.1461 72.7099 52.9135C72.6225 53.0616 72.6136 53.2559 72.5682 53.4288C72.7234 53.4581 72.8777 53.5067 73.0339 53.5138C75.041 53.6053 77.036 53.828 78.8337 54.7848C81.1932 56.0405 82.6772 58.0307 83.3317 60.621C83.4297 61.0088 83.4289 61.4256 83.4417 61.83C83.4855 63.209 83.4892 64.59 83.5706 65.9665C83.5876 66.2539 83.8076 66.6066 84.0426 66.7907C85.1707 67.6742 85.5545 69.8378 84.5053 71.1185C84.4003 71.2467 84.3111 71.3877 84.208 71.5175C83.805 72.0248 83.2204 72.2711 82.6385 72.1675C82.1426 72.0792 82.1006 72.2461 81.9369 72.612C81.5876 73.3928 81.1689 74.1482 80.7177 74.8762C80.1129 75.8521 79.4953 76.8268 78.796 77.7349C78.3736 78.2833 77.803 78.7246 77.2681 79.1776C76.6193 79.727 75.9333 80.2322 75.2726 80.7679C74.9431 81.0351 74.5818 81.1732 74.1607 81.1124C73.7241 81.0494 73.4784 81.295 73.3506 81.6485C73.1037 82.3315 72.8806 83.0244 72.6857 83.7238C72.6446 83.8712 72.7317 84.0861 72.8208 84.2328C73.5998 85.5149 74.3735 86.801 75.1874 88.061C75.848 89.0836 76.599 90.0488 77.2382 91.0838C77.6335 91.7239 77.8955 92.4464 78.2156 93.1327C78.7742 94.33 79.3446 95.5221 79.8783 96.7304C79.9882 96.979 80.0181 97.2974 79.9798 97.5688C79.924 97.9638 79.5343 98.09 79.112 97.835C78.6213 97.5387 78.1592 97.1924 77.6998 96.8477C77.4153 96.6342 77.1594 96.3827 76.889 96.1502C76.8578 96.1233 76.8159 96.1088 76.7789 96.0885C76.7731 96.1357 76.7565 96.1844 76.763 96.2298C76.8386 96.7612 76.8993 97.2958 77.0009 97.8224C77.1058 98.3662 77.2657 98.8993 77.3761 99.4423C77.5955 100.521 77.8076 101.601 78.004 102.684C78.2248 103.902 78.4373 105.122 78.6291 106.344C78.7277 106.973 78.7613 107.612 78.8462 108.243C78.9747 109.197 79.1361 110.147 79.2562 111.102C79.3218 111.624 79.3362 112.152 79.3651 112.678C79.4046 113.395 79.4308 114.113 79.4719 114.83C79.5733 116.599 79.6758 118.367 79.7876 120.136C79.8153 120.574 80.0729 120.911 80.4676 121.036C81.5905 121.393 82.3752 122.704 82.1863 123.798C82.1424 124.052 82.0858 124.316 81.9739 124.545C81.7053 125.095 82.0557 125.408 82.404 125.694C82.9696 126.159 83.5591 126.595 84.1499 127.029C85.5523 128.056 86.9645 129.071 88.3669 130.099C89.6374 131.03 91.0393 131.677 92.5436 132.136C93.7513 132.505 94.7785 133.203 95.7441 134.008C96.2184 134.403 96.6288 134.988 97.3799 134.844C98.4431 134.64 99.5031 134.418 100.564 134.2C100.883 134.134 101.197 134.037 101.518 133.982C102.637 133.789 103.298 132.998 103.956 132.179C104.446 131.57 104.992 131.006 105.502 130.412C106.505 129.244 107.497 128.067 108.5 126.898C108.998 126.317 109.511 125.749 110.014 125.172C111.432 123.548 112.842 121.915 114.269 120.298C115.017 119.45 115.796 118.63 116.557 117.794C116.762 117.569 116.981 117.349 117.144 117.095C117.39 116.708 117.641 116.59 118.123 116.745C119.175 117.086 119.156 117.021 118.421 117.829C117.102 119.275 115.828 120.76 114.53 122.225C113.896 122.941 113.24 123.638 112.611 124.358C111.507 125.622 110.419 126.901 109.317 128.167C108.535 129.066 107.743 129.956 106.951 130.846C106.339 131.535 105.717 132.217 105.107 132.907C105.053 132.968 105.011 133.135 105.03 133.147C105.18 133.24 105.348 133.378 105.505 133.372C106.784 133.322 108.061 133.224 109.341 133.181C110.298 133.148 111.258 133.148 112.216 133.181C113.443 133.223 114.672 133.276 115.893 133.393C117.255 133.524 118.608 133.734 119.966 133.906C121.357 134.082 122.753 134.227 124.14 134.436C125.526 134.645 126.9 134.927 128.283 135.157C129.428 135.348 130.582 135.489 131.725 135.688C133.184 135.942 134.635 136.237 136.091 136.505C137.114 136.693 138.14 136.856 139.163 137.044C140.149 137.226 141.129 137.436 142.116 137.611C142.738 137.721 143.366 137.833 143.994 137.858C144.258 137.869 144.593 137.726 144.789 137.54C146.284 136.118 147.733 134.647 149.234 133.232C150.915 131.649 152.672 130.154 154.567 128.825C155.434 128.217 156.405 128.323 157.35 128.405C157.9 128.452 158.433 128.718 158.972 128.889C159.415 129.03 159.454 129.303 159.257 129.689C158.363 131.444 157.485 133.206 156.591 134.961C155.818 136.477 155.03 137.986 154.223 139.525C153.169 141.564 152.142 143.578 151.111 145.59ZM68.3732 132.651C68.8432 131.292 69.2556 129.91 69.6263 128.52C69.8671 127.617 70.0037 126.685 70.1584 125.761C70.3173 124.812 70.4503 123.858 70.5788 122.904C70.728 121.796 70.9602 120.687 70.9783 119.576C71.0145 117.345 70.9222 115.112 70.8976 112.879C70.8826 111.515 70.8746 110.15 70.9013 108.786C70.9222 107.713 70.2979 106.913 69.8429 106.033C69.54 105.447 69.2203 104.856 69.0268 104.23C68.6719 103.083 68.3833 101.914 68.1083 100.744C67.9203 99.9437 67.7817 99.1304 67.658 98.3175C67.5149 97.3768 67.2056 96.4932 66.804 95.6396C66.7704 95.568 66.4882 95.5157 66.4579 95.5562C66.2961 95.773 66.1755 96.0208 66.0448 96.2602C65.8122 96.6862 65.4587 97.0918 65.3779 97.5454C65.2165 98.452 64.7988 99.2298 64.3717 100.008C64.1059 100.492 63.6583 100.504 63.3474 100.06C63.0131 99.5825 62.6521 99.1005 62.4388 98.5662C61.9374 97.3099 61.4884 96.0306 61.0708 94.7436C60.5221 93.0522 60.0047 91.35 59.5121 89.6414C59.2549 88.7494 58.9985 87.8433 58.8905 86.9261C58.7847 86.0268 58.8685 85.1054 58.8657 84.1937C58.8655 84.1121 58.8405 84.0306 58.8271 83.9491C58.7901 83.9781 58.7563 84.013 58.7157 84.0353C57.7602 84.561 56.8106 85.0979 55.8459 85.6063C54.8891 86.1104 53.9277 86.6083 52.9487 87.0672C51.876 87.5701 50.7994 88.089 50.178 89.1426C49.5058 90.2824 48.7202 91.3689 48.3152 92.6539C47.8977 93.9785 47.4255 95.2879 47.0621 96.627C46.6905 97.9967 46.4374 99.3982 46.1024 100.779C45.8884 101.66 45.5359 102.515 45.3955 103.406C45.1814 104.765 45.049 106.141 44.9722 107.515C44.9064 108.695 44.9114 109.877 44.7522 111.052C44.6286 111.964 44.5447 112.882 44.4334 113.795C44.2639 115.187 43.9594 116.575 43.9376 117.969C43.8894 121.053 44.0164 124.14 44.002 127.226C43.9945 128.843 44.2357 130.424 44.4262 132.018C44.6376 133.788 44.7629 135.568 44.9647 137.339C45.1019 138.542 45.2391 139.753 45.4958 140.934C45.9137 142.858 46.3627 144.78 46.9208 146.666C47.617 149.02 48.6393 151.237 50.0787 153.248C50.9782 154.505 52.0763 155.534 53.4318 156.274C55.2695 157.277 57.2403 157.19 59.2148 156.884C59.5387 156.834 59.9577 156.585 60.0964 156.309C60.485 155.536 60.8246 154.72 61.0459 153.885C61.3603 152.699 61.4993 151.466 61.8077 150.277C62.3164 148.317 62.9563 146.391 63.4356 144.424C63.8304 142.805 64.5826 141.343 65.2363 139.837C65.7173 138.729 66.2862 137.659 66.8683 136.52C67.3738 135.231 67.9213 133.958 68.3732 132.651ZM85.7194 152.658C86.6703 153.239 87.6026 153.855 88.5073 154.506C89.0723 154.912 89.4782 155.503 89.602 156.185C89.8889 157.766 90.0789 159.364 90.3562 160.947C90.5509 162.058 90.8303 163.154 91.0616 164.258C91.2499 165.157 91.4239 166.06 91.6025 166.961C91.778 167.846 91.9489 168.733 92.1265 169.618C92.2619 170.293 92.402 170.966 92.5446 171.64C92.7753 172.728 92.9591 173.83 93.2572 174.9C93.5509 175.954 93.9927 176.965 94.3151 178.012C94.8517 179.755 95.5174 181.441 96.2886 183.093C96.4715 183.484 96.7791 183.405 96.9612 183.334C98.115 182.882 99.2534 182.389 100.384 181.882C100.741 181.721 100.931 181.411 100.914 180.987C100.87 179.835 100.839 178.682 100.807 177.529C100.769 176.15 100.737 174.771 100.702 173.392C100.667 172.042 100.66 170.69 100.589 169.342C100.521 168.025 100.391 166.711 100.282 165.396C100.147 163.758 100.02 162.118 99.8596 160.483C99.7485 159.353 99.6468 158.217 99.4332 157.105C99.0634 155.178 98.6091 153.268 98.1919 151.351C97.7058 149.117 96.7667 147.17 94.9098 145.708C93.4957 144.594 92.0122 143.599 90.4082 142.805C88.6338 141.926 86.8396 141.07 84.9977 140.348C82.8923 139.522 80.8471 138.479 78.5289 138.288C77.4151 138.197 76.3103 138.002 75.1982 137.884C74.3062 137.789 73.4069 137.762 72.5152 137.664C71.104 137.51 69.6982 137.304 68.2857 137.166C68.0876 137.146 67.7893 137.332 67.6678 137.512C67.3886 137.923 67.1785 138.384 66.9605 138.835C66.2798 140.242 65.4825 141.61 64.9646 143.075C64.2803 145.012 63.8158 147.026 63.2609 149.008C62.9464 150.131 62.9397 150.181 63.9188 150.386C65.0515 150.624 66.2023 150.781 67.35 150.939C68.1007 151.043 68.8613 151.071 69.6147 151.158C71.0424 151.322 72.4664 151.518 73.895 151.672C74.8041 151.77 75.718 151.829 76.631 151.884C77.9956 151.965 79.3608 152.041 80.7267 152.09C81.5447 152.12 82.3646 152.096 83.2882 152.096C84.1459 152.08 84.9838 152.208 85.7194 152.658ZM126.708 146.136C127.588 146.177 128.468 146.22 129.349 146.239C131.39 146.282 133.432 146.317 135.474 146.341C135.882 146.346 136.249 146.178 136.359 145.758C136.95 143.5 138.113 141.406 138.263 139.016C138.301 138.41 138.038 137.982 137.419 137.874C136.774 137.761 136.137 137.603 135.493 137.48C134.684 137.326 133.871 137.19 133.061 137.041C132.333 136.908 131.606 136.769 130.88 136.628C130.348 136.525 129.818 136.412 129.286 136.311C128.267 136.119 127.248 135.93 126.228 135.744C125.531 135.616 124.834 135.485 124.134 135.373C123.592 135.285 123.044 135.231 122.5 135.151C121.351 134.984 120.202 134.81 119.054 134.638C118.398 134.54 117.743 134.432 117.086 134.343C116.209 134.225 115.33 134.025 114.452 134.03C112.25 134.042 110.049 134.139 107.848 134.225C106.795 134.266 105.741 134.324 104.695 134.442C104.109 134.508 103.546 134.694 103.122 135.187C102.43 135.991 101.687 136.75 100.988 137.548C100.547 138.052 100.134 138.581 99.7302 139.116C99.1967 139.824 98.5459 140.254 97.6154 140.182C96.0915 140.064 94.5652 139.977 93.0412 139.861C92.4757 139.817 91.9128 139.733 91.3504 139.654C90.3967 139.521 89.4459 139.366 88.4911 139.241C87.578 139.121 86.6621 139.022 85.746 138.928C85.4873 138.901 85.2232 138.916 84.9626 138.931C84.9107 138.934 84.8636 139.022 84.8142 139.071C84.8674 139.096 84.9217 139.118 84.9736 139.146C85.4321 139.385 85.8785 139.651 86.3506 139.86C87.7348 140.471 89.1623 140.994 90.5117 141.672C92.4711 142.658 94.2996 143.861 95.9621 145.308C96.4776 145.756 96.9723 146.09 97.8177 145.977C99.1577 145.799 100.41 145.468 101.612 144.883C103.231 144.096 104.878 143.45 106.738 143.836C107.815 144.059 108.898 144.254 109.973 144.485C110.654 144.631 111.319 144.872 112.005 144.974C112.856 145.1 113.723 145.122 114.582 145.197C116.145 145.333 117.708 145.478 119.271 145.613C120.332 145.706 121.394 145.789 122.508 145.928C123.908 145.998 125.308 146.071 126.708 146.136ZM72.2497 115.935C72.2651 116.353 72.2485 116.771 72.2554 117.189C72.288 119.143 72.3187 121.097 72.3624 123.051C72.3751 123.618 72.3502 124.203 72.4801 124.746C72.7431 125.847 73.088 126.929 73.424 128.012C73.5679 128.475 73.768 128.916 74.2918 129.1C74.7476 129.259 75.189 129.46 75.6456 129.617C76.3232 129.849 76.5309 129.761 76.9728 129.141C77.1189 128.936 77.2875 128.747 77.4518 128.555C78.5105 127.321 79.601 126.112 80.6206 124.846C81.3731 123.912 81.2426 122.408 79.9825 121.926C79.847 121.874 79.7127 121.812 79.5719 121.783C78.8273 121.628 78.8617 121.63 78.837 120.927C78.7486 118.413 79.0436 115.892 78.6486 113.381C78.4909 112.379 78.5558 111.342 78.4109 110.336C78.1853 108.772 77.8731 107.22 77.5866 105.664C77.3156 104.193 77.044 102.722 76.7472 101.255C76.5256 100.161 76.2594 99.0765 76.0208 97.9858C75.8389 97.1539 75.696 96.3123 75.4763 95.4908C75.4169 95.2688 75.1413 95.1045 74.9649 94.9137C74.7587 95.1129 74.3972 95.2946 74.3723 95.5144C74.2458 96.6288 74.0739 97.7649 74.1719 98.8709C74.2844 100.141 74.475 101.401 74.2325 102.662C73.9562 104.099 73.4965 105.479 72.7177 106.736C72.286 107.433 71.9635 108.157 72.037 109.019C72.1096 109.872 72.1333 110.731 72.1454 111.588C72.1627 112.807 72.1498 114.027 72.1498 115.351C72.1847 115.545 72.2424 115.739 72.2497 115.935ZM66.7662 72.7541C66.6782 72.8904 66.5563 73.0155 66.5076 73.1645C66.0109 74.6844 65.5573 76.2192 65.0265 77.7269C64.7067 78.6353 64.2047 79.4457 63.3748 80.0166C62.7719 80.4313 62.2095 80.9045 61.6195 81.3386C61.3285 81.5528 61.3899 81.7382 61.5714 81.9982C62.1143 82.7762 62.6882 83.5414 63.1414 84.3709C63.7668 85.5156 64.3025 86.7101 64.8592 87.8915C65.4015 89.0427 65.9679 90.1858 66.4376 91.3667C66.8366 92.3699 67.0513 93.4472 67.4619 94.4448C67.833 95.3465 68.2311 96.2354 68.3656 97.2012C68.4113 97.5296 68.5178 97.5323 68.7666 97.5314C70.2622 97.5261 71.7064 97.3285 72.9674 96.4382C73.0751 96.3621 73.1664 96.2056 73.1868 96.0743C73.2363 95.7566 73.2278 95.4304 73.2651 95.1102C73.2914 94.8843 73.4387 94.6401 73.3859 94.4432C73.1894 93.7112 72.9279 92.9969 72.6994 92.2732C72.2629 90.8909 71.6903 89.5231 71.6512 88.0647C71.6115 86.5808 71.745 85.0902 71.8466 83.6055C71.8881 82.9999 72.0069 82.3921 72.16 81.8034C72.3396 81.1129 72.2969 80.924 71.6737 80.5872C70.6482 80.033 69.7641 79.2876 69.132 78.3263C68.1006 76.7575 67.3081 75.0692 67.0253 73.1176C66.9389 72.9965 66.8525 72.8753 66.7662 72.7541ZM81.6432 72.2912C81.6717 72.2348 81.9254 72.0588 81.5481 71.9952C81.1668 71.931 80.7364 71.746 80.4746 71.473C79.9611 70.9375 79.5362 70.3138 79.1046 69.7053C78.9825 69.5331 78.9392 69.4286 78.7676 69.6351C78.6586 69.7661 78.517 69.8701 78.4083 70.0014C77.4648 71.1409 76.1079 71.6247 74.8375 71.3081C73.3145 70.9285 72.386 69.3047 72.3652 67.8959C72.3569 67.3343 72.1793 66.8637 71.7307 66.5406C70.9842 66.003 70.2164 65.4944 69.449 64.9863C69.0195 64.702 68.6103 64.7949 68.4994 65.2434C68.2249 66.3539 67.8832 67.4668 67.7874 68.5973C67.6688 69.996 67.7252 71.4081 68.0592 72.8038C68.6218 75.155 69.3522 77.3894 71.271 79.0464C72.5081 80.1147 74.0362 80.3551 75.5092 79.7085C76.969 79.0677 77.866 77.8825 78.7385 76.6489C79.4719 75.6121 80.203 74.5736 80.9874 73.4836C81.2091 73.0877 81.4391 72.6959 81.6432 72.2912ZM144.864 142.125C145.878 143.416 147.058 144.493 148.672 145.015C149.669 145.337 150.034 145.28 150.586 144.228C151.712 142.082 152.824 139.929 153.934 137.775C154.377 136.915 154.787 136.037 155.23 135.177C156.097 133.497 156.976 131.823 157.855 130.149C158.015 129.843 157.863 129.567 157.626 129.535C156.806 129.426 155.941 129.192 155.179 129.698C154.175 130.366 153.164 131.038 152.24 131.809C150.839 132.979 149.49 134.213 148.161 135.464C147.558 136.032 147.049 136.701 146.513 137.338C146.09 137.841 145.546 138.264 145.385 138.951C145.236 139.587 145.089 140.222 144.941 140.962C144.768 141.341 144.573 141.756 144.864 142.125ZM110.322 198.231C110.561 198.25 111.022 198.142 111.024 198.077C111.055 197.177 111.225 196.224 110.418 195.521C109.368 194.608 108.351 193.653 107.256 192.797C105.49 191.416 103.673 190.101 101.876 188.76C101.234 188.281 100.595 187.772 99.7778 187.647C99.0465 187.535 98.3006 187.521 97.5666 187.423C96.9474 187.34 96.526 187.608 96.15 188.054C95.2382 189.135 94.5749 190.337 94.3242 191.74C94.1277 192.84 94.4818 193.446 95.3696 193.707C97.0603 194.205 98.7389 194.744 100.426 195.253C101.636 195.618 102.856 195.946 104.063 196.319C105.823 196.862 107.575 197.43 109.435 197.988C109.73 198.074 110.022 198.208 110.322 198.231ZM74.8166 130.454C73.649 129.992 72.4884 129.512 71.318 129.057C70.9723 128.923 70.678 128.883 70.564 129.415C70.4402 129.994 70.1763 130.541 69.9855 131.106C69.5623 132.359 69.1371 133.612 68.7364 134.873C68.6623 135.106 68.5496 135.433 69.0098 135.477C69.6094 135.535 70.2055 135.635 70.8058 135.679C71.9782 135.764 73.1517 135.848 74.3262 135.886C76.071 135.944 77.8171 135.965 79.5628 135.995C80.1202 136.005 80.678 135.995 81.2356 135.998C81.3712 135.999 81.515 135.989 81.6411 136.029C83.1525 136.501 84.6585 136.99 86.1713 137.458C87.6929 137.929 89.2172 138.391 90.8428 138.3C91.4072 138.268 91.5107 138.162 91.3032 137.643C91.1899 137.36 91.0326 137.071 90.8241 136.853C89.8058 135.786 88.5628 135.041 87.2327 134.428C86.1731 133.94 85.1373 133.396 83.9454 133.273C83.3874 133.216 82.8255 133.135 82.2836 132.995C81.4228 132.772 80.5692 132.514 79.7274 132.228C78.6753 131.869 77.6382 131.467 76.4901 131.084C75.932 130.874 75.3707 130.673 74.8166 130.454ZM61.6864 84.3058C61.1971 83.5475 60.682 82.8057 60.1764 82.0579C60.106 81.9538 60.0291 81.8541 59.9552 81.7523C59.9064 81.9236 59.8377 82.092 59.8124 82.2666C59.7288 82.8439 59.6818 83.427 59.5826 84.0013C59.3863 85.1381 59.2796 86.2549 60.0164 87.2653C60.0631 87.3293 60.0997 87.406 60.1207 87.4824C60.3917 88.4673 60.6578 89.4535 60.928 90.4385C60.9964 90.688 61.0678 90.937 61.1497 91.1823C61.5021 92.2372 61.9292 93.2734 62.1948 94.3495C62.4676 95.4549 62.6765 96.5658 63.243 97.5755C63.4058 97.8656 63.4585 98.2159 63.5787 98.5321C63.6145 98.6265 63.7327 98.7785 63.7702 98.7668C63.8899 98.7295 64.0477 98.6502 64.0879 98.5471C64.5557 97.3458 64.7811 96.0336 65.6685 95.0249C66.4222 94.1681 66.2658 93.2926 65.8035 92.3779C65.6228 92.0205 65.511 91.6289 65.3497 91.2608C65.0009 90.465 64.6671 89.661 64.2768 88.8857C63.9358 88.2083 63.5229 87.5673 63.1476 86.9069C62.8837 86.4426 62.6296 85.9727 62.3188 85.453C62.1096 85.0696 61.9226 84.6718 61.6864 84.3058ZM89.9359 132.283C88.4085 131.296 86.8599 130.338 85.3798 129.283C84.1406 128.401 82.9922 127.391 81.7879 126.459C81.4628 126.207 81.0898 126.123 80.7576 126.503C80.2195 127.118 79.671 127.723 79.1337 128.339C78.7336 128.798 78.3492 129.27 77.9483 129.728C77.635 130.086 77.668 130.278 78.1266 130.415C79.6003 130.855 81.0847 131.261 82.5539 131.716C84.5596 132.336 86.5629 132.967 88.5504 133.643C89.1863 133.859 89.7467 134.296 90.382 134.516C91.027 134.738 91.7165 134.854 92.396 134.949C93.1812 135.059 93.9761 135.102 94.7683 135.152C94.8946 135.159 95.0284 135.046 95.1587 134.989C95.0815 134.882 95.0229 134.752 94.924 134.671C93.6682 133.643 92.1688 133.113 90.6093 132.547C90.3836 132.461 90.1344 132.411 89.9359 132.283ZM70.0486 104.748C70.2428 105.485 70.7042 105.843 71.4146 105.909C72.028 105.967 72.2082 105.631 72.3577 105.182C72.572 104.54 72.7841 103.898 72.9852 103.251C73.4316 101.816 73.3678 100.37 73.1005 98.9108C73.0134 98.435 73.0338 97.9392 73.012 97.4523C73.0088 97.3815 73.0448 97.309 73.0627 97.2373C72.991 97.2583 72.9166 97.2729 72.848 97.3012C72.4173 97.4794 72.0027 97.726 71.555 97.8266C70.7163 98.0151 69.8613 98.1397 69.0078 98.2487C68.6783 98.2908 68.4831 98.3252 68.5877 98.7285C68.6866 99.1094 68.726 99.5053 68.8046 99.8919C68.974 100.725 69.1517 101.556 69.3261 102.493C69.5701 103.244 69.8476 103.986 70.0486 104.748ZM78.9861 96.8842C79.0674 96.9531 79.1578 97.0113 79.244 97.0744C79.2435 96.9576 79.2758 96.8285 79.2372 96.7261C79.0105 96.124 78.7993 95.5129 78.5229 94.9334C77.9331 93.6965 77.3911 92.4247 76.6711 91.2655C75.9632 90.1259 75.0101 89.141 74.2582 88.0252C73.7195 87.2258 73.3384 86.3209 72.8785 85.4676C72.8078 85.3364 72.6909 85.2301 72.5954 85.1122C72.5515 85.2507 72.4668 85.3902 72.4702 85.5275C72.4922 86.4186 72.5037 87.3118 72.5785 88.1992C72.6294 88.8046 72.7315 89.4145 72.8942 89.9991C73.0749 90.6482 73.4024 91.2574 73.5711 91.9085C73.7686 92.6705 74.1305 93.1525 74.8685 93.5596C76.0923 94.2346 77.3552 94.9361 78.2158 96.2204C78.4723 96.442 78.7276 96.6651 78.9861 96.8842ZM73.5387 67.3453C73.1371 67.93 73.8817 69.9788 74.2866 70.1312C77.1209 71.1979 77.9289 69.3724 77.9661 68.8712C78.04 67.8765 78.1627 66.8679 77.2223 66.0613C74.7418 65.5679 74.1876 66.4003 73.5387 67.3453ZM84.3912 68.1735C84.0103 67.2245 83.4339 66.6056 82.4301 66.8222C81.9178 66.9327 81.4666 67.3387 80.9954 67.6237C79.9833 68.236 79.8509 68.5709 80.2047 69.6563C80.5588 70.7425 81.3847 71.3647 82.4355 71.5759C83.3053 71.7507 83.9268 71.2113 84.3864 70.3997C84.5022 69.6583 84.6927 68.9246 84.3912 68.1735ZM80.638 66.9465C81.0467 66.656 81.4895 66.2257 81.9303 66.2098C82.693 66.1823 82.5691 65.7165 82.4868 65.3497C82.257 64.3249 81.9567 63.3151 81.6635 62.3054C81.4628 61.6142 81.293 61.5746 80.8062 62.0614C79.9722 62.8953 79.1273 63.7131 78.0796 64.2888C77.7519 64.4689 77.7068 64.8837 77.9411 65.2105C78.0284 65.3322 78.1467 65.4365 78.2121 65.568C78.5342 66.2157 78.8264 66.8791 79.1703 67.5147C79.2464 67.6553 79.1885 68.1522 79.6801 67.7862C79.9976 67.5037 80.2937 67.1914 80.638 66.9465ZM142.184 141.938C142.895 141.805 143.657 141.623 143.767 140.676C143.786 140.517 143.858 140.366 143.895 140.208C144.119 139.229 143.865 138.916 142.885 138.811C141.963 138.712 141.047 138.547 140.131 138.399C139.64 138.32 139.55 138.412 139.496 138.91C139.421 139.602 139.313 140.291 139.184 140.975C139.07 141.573 139.238 142.047 139.764 142.165C140.572 142.095 141.391 142.085 142.184 141.938ZM99.4753 186.473C99.5749 186.468 99.744 186.271 99.7477 186.158C99.7722 185.411 99.7544 184.662 99.7627 183.913C99.7674 183.493 99.4453 183.479 99.2139 183.552C98.7104 183.713 98.2315 183.952 97.7455 184.166C97.3943 184.32 96.9997 184.445 97.0421 184.952C97.0721 185.309 97.0721 185.675 97.1545 186.021C97.2913 186.595 97.7869 186.322 98.1916 186.436C98.6198 186.454 99.0488 186.492 99.4753 186.473ZM71.6192 125.662C71.5891 125.577 71.4654 125.525 71.3847 125.458C71.326 125.542 71.2238 125.622 71.2157 125.71C71.1666 126.248 71.1246 126.787 71.1081 127.326C71.092 127.853 71.4651 128.195 72.0011 128.146C72.0919 128.138 72.2529 127.978 72.2411 127.914C72.1622 127.486 72.0453 127.064 71.8884 126.588C71.8012 126.279 71.7262 125.965 71.6192 125.662ZM101.085 135.538C101.143 135.423 101.266 135.103 100.911 135.169C100.37 135.271 99.8377 135.424 99.3056 135.569C99.2084 135.596 99.1288 135.687 99.0411 135.748C99.1428 135.796 99.2432 135.882 99.3465 135.886C99.7803 135.901 100.215 135.892 100.702 135.84C100.835 135.742 101.019 135.67 101.085 135.538ZM60.6977 80.6966C60.6144 80.7451 60.531 80.7935 60.4476 80.842C60.5132 80.9151 60.567 81.0165 60.6488 81.0507C60.6977 81.0712 60.805 81.001 60.8615 80.9463C61.1833 80.6344 61.4994 80.3165 61.8135 79.9968C61.8764 79.9328 61.9222 79.8519 61.9758 79.7788C61.87 79.7994 61.7372 79.7867 61.6632 79.8466C61.3493 80.1007 61.0529 80.3765 60.6977 80.6966Z" fill="#274772"/>
<path fill-rule="evenodd" clip-rule="evenodd" d="M71.9047 74.6071C71.4148 74.3422 70.9301 74.1249 70.8283 73.5346C70.6305 72.3876 71.0437 71.0363 72.5385 71.1149C73.8863 71.1857 74.7415 72.305 74.2646 73.5693C73.9131 74.5015 73.0599 74.9637 71.9047 74.6071Z" fill="#BAC8DB" fill-opacity="0.5"/>
<path fill-rule="evenodd" clip-rule="evenodd" d="M78.5513 70.3283C78.5781 70.1525 78.605 70.0294 78.6319 69.9063C78.6743 70.0137 78.7287 70.1178 78.7571 70.2289C78.9674 71.0515 79.6337 73.1 78.8401 74.0426C78.774 74.121 78.4393 74.1334 78.2307 74.1202C77.8208 74.0943 77.3432 73.4898 77.4192 73.1C77.4306 73.0415 78.4197 74.0014 78.6319 73.4819C78.9857 72.6156 78.5513 70.6263 78.5513 70.3283Z" fill="#00160A"/>
<path fill-rule="evenodd" clip-rule="evenodd" d="M72.972 76.3312C72.9308 76.3103 72.8738 76.3158 72.8245 76.3179C72.7027 76.323 72.5359 76.1048 72.607 76.0124C72.7138 75.8735 72.835 75.7332 72.9798 75.6417C73.066 75.5873 73.2086 75.7639 73.1979 75.842C73.1898 75.9003 73.2453 75.9917 73.2991 76.0312C74.1179 76.6328 75.0269 77.0227 76.0217 77.2101C76.0874 77.2224 76.1446 77.2811 76.2058 77.3183C76.1449 77.3606 76.0842 77.4429 76.0229 77.4393C74.9376 77.3759 73.683 76.6918 72.972 76.3312Z" fill="#00160A"/>
<path fill-rule="evenodd" clip-rule="evenodd" d="M46.5321 123.438L45.5013 127.841C45.4216 128.181 45.742 128.479 46.0758 128.375L49.6541 127.261C49.9552 127.167 50.0702 126.802 49.8771 126.553L47.3295 123.264C47.0965 122.964 46.6189 123.068 46.5321 123.438ZM46.9723 124.144L49.2186 126.83L45.9415 127.944L46.9723 124.144Z" fill="#BAC8DB"/>
<path fill-rule="evenodd" clip-rule="evenodd" d="M49.7301 98.0389C49.3533 98.0051 49.1042 98.4215 49.3121 98.7375L51.9336 102.723C52.1103 102.991 52.5031 102.995 52.6844 102.729L55.0973 99.1958C55.2919 98.9107 55.1082 98.5216 54.7644 98.4907L49.7301 98.0389ZM50.0848 98.4908L54.592 99.3667L51.9336 102.149L50.0848 98.4908Z" fill="#BAC8DB"/>
<path fill-rule="evenodd" clip-rule="evenodd" d="M66.3439 128.513H62.6464C62.3399 128.513 62.1223 128.812 62.2161 129.103L63.4582 132.964C63.5755 133.328 64.0644 133.391 64.2698 133.068L66.7253 129.208C66.9166 128.907 66.7005 128.513 66.3439 128.513ZM66.0426 129.266L64.1898 132.825L62.9477 128.965L66.0426 129.266Z" fill="#BAC8DB"/>
<path fill-rule="evenodd" clip-rule="evenodd" d="M54.2284 149.432L54.0594 152.779C54.0417 153.13 54.4134 153.366 54.7234 153.201L59.0224 150.91C59.3866 150.716 59.3217 150.176 58.9219 150.074L54.7919 149.017C54.5151 148.946 54.2428 149.147 54.2284 149.432ZM54.5552 149.751L58.5059 150.3L54.7233 152.536L54.5552 149.751Z" fill="#BAC8DB"/>
<path fill-rule="evenodd" clip-rule="evenodd" d="M48.5282 108.327L45.2137 110.624C44.9332 110.819 44.9611 111.242 45.2647 111.398L49.1436 113.389C49.4678 113.555 49.8456 113.289 49.7981 112.928L49.2338 108.639C49.1897 108.304 48.8062 108.134 48.5282 108.327ZM48.6613 109.125L49.35 112.987L45.4712 110.996L48.6613 109.125Z" fill="#BAC8DB"/>
<path fill-rule="evenodd" clip-rule="evenodd" d="M63.7365 118.167L61.6684 121.255C61.4903 121.521 61.6373 121.883 61.9504 121.949L64.3686 122.46C64.6674 122.524 64.9415 122.278 64.912 121.974L64.5619 118.375C64.5208 117.953 63.9727 117.815 63.7365 118.167ZM64.2997 118.786V122.093L62.2203 121.255L64.2997 118.786Z" fill="#BAC8DB"/>
<path fill-rule="evenodd" clip-rule="evenodd" d="M64.1282 103.62C64.7299 103.227 65.2579 103.32 64.8282 104.184C64.8282 104.184 61.6913 112.138 60.754 112.232C59.8651 112.322 59.4361 111.172 58.1949 107.886L58.1422 107.746C58.1375 107.733 58.1335 107.721 58.1299 107.709L58.1233 107.682L58.1152 107.668L58.098 107.628L57.9496 107.226C57.7742 106.748 57.333 105.958 57.0997 105.684C56.851 105.391 57.4058 105.21 57.8156 105.21C58.5804 105.21 59.5162 105.424 60.988 104.999C62.7118 104.501 63.3034 104.158 64.1282 103.62ZM62.7941 107.706L62.7527 107.733C62.315 108.002 61.8314 108.21 61.3028 108.354C60.6706 108.527 59.7534 108.548 59.16 108.419L59.0607 108.395L59.0973 108.487C59.4322 109.322 59.73 110.287 59.9894 110.777L60.08 110.945C60.2427 111.237 60.3856 111.449 60.5011 111.577L60.5372 111.615L60.5821 111.56C60.7755 111.313 61.4642 110.382 61.9426 109.453L61.9926 109.355C62.1974 108.954 62.4208 108.497 62.6627 107.986L62.7941 107.706ZM64.0852 104.539L64.0125 104.58C63.3319 104.959 62.2063 105.588 61.2387 105.868C60.0805 106.202 59.0986 106.321 58.2909 106.214L58.2414 106.207L58.2698 106.287C58.3469 106.503 58.6741 107.525 58.7899 107.682C59.2586 108.115 59.8334 108.156 60.5372 107.986L60.6381 107.96C63.1581 107.473 64.0852 104.539 64.0852 104.539Z" fill="#BAC8DB"/>
<path fill-rule="evenodd" clip-rule="evenodd" d="M152.584 132.344C152.685 132.27 152.826 132.292 152.9 132.392C153.422 133.1 154.305 133.135 155.479 132.483C155.588 132.422 155.726 132.461 155.787 132.57C155.847 132.68 155.808 132.817 155.699 132.878C154.348 133.628 153.217 133.583 152.536 132.66C152.462 132.56 152.484 132.419 152.584 132.344Z" fill="#E7EAEE"/>
<path fill-rule="evenodd" clip-rule="evenodd" d="M150.876 134.155C150.968 134.071 151.111 134.078 151.195 134.17C151.987 135.041 153.038 135.09 153.893 134.634C154.003 134.575 154.14 134.616 154.199 134.726C154.258 134.837 154.216 134.973 154.106 135.032C153.085 135.578 151.809 135.517 150.861 134.474C150.777 134.382 150.783 134.239 150.876 134.155Z" fill="#E7EAEE"/>
<path fill-rule="evenodd" clip-rule="evenodd" d="M149.025 135.948C149.116 135.863 149.259 135.867 149.344 135.958C150.107 136.768 151.658 137.164 152.718 136.602C152.829 136.543 152.965 136.585 153.024 136.696C153.082 136.806 153.04 136.943 152.93 137.001C151.674 137.667 149.908 137.216 149.015 136.268C148.93 136.177 148.934 136.034 149.025 135.948Z" fill="#E7EAEE"/>
<path fill-rule="evenodd" clip-rule="evenodd" d="M150.462 143.036C152.048 142.268 150.408 139.424 148.873 140.575C147.888 141.313 148.968 143.758 150.462 143.036Z" fill="#E7EAEE"/>
</svg>
