<svg width="446" height="446" viewBox="0 0 446 446" fill="none" xmlns="http://www.w3.org/2000/svg">
<rect width="446" height="446" fill="white"/>
<path fill-rule="evenodd" clip-rule="evenodd" d="M83.4091 326.434C110.33 355.738 214.433 338.906 282.98 338.906C312.552 338.906 411.79 353.727 370.81 251.941C236.445 -81.7988 -1.88901 233.585 83.4091 326.434Z" fill="#EBF1FA"/>
<path fill-rule="evenodd" clip-rule="evenodd" d="M202.52 328.793C202.651 328.692 202.788 328.583 202.845 328.428C203.028 327.932 202.311 327.602 201.783 327.614C201.015 327.632 200.031 328.149 200.266 328.879C200.402 329.302 200.923 329.498 201.36 329.42C201.797 329.342 202.168 329.063 202.52 328.793ZM204.802 320.091C205.381 320.273 205.953 320.497 206.458 320.835C207.405 321.47 208.05 322.455 208.669 323.413C209.112 324.099 209.562 324.799 209.783 325.586C210.023 326.439 209.98 327.349 209.82 328.219C209.32 330.932 207.646 333.407 205.314 334.881C202.983 336.355 200.03 336.806 197.365 336.095C196.846 335.956 196.324 335.768 195.925 335.408C195.589 335.107 195.363 334.704 195.157 334.303C194.071 332.199 193.339 329.861 193.423 327.494C193.507 325.128 194.479 322.733 196.322 321.246C198.634 319.379 201.966 319.201 204.802 320.091" fill="white"/>
<path fill-rule="evenodd" clip-rule="evenodd" d="M327.184 191.351C325.913 191.335 324.721 192.4 324.596 193.665C324.544 194.182 324.763 194.824 325.278 194.895C325.663 194.948 326.001 194.651 326.26 194.36C326.808 193.746 327.279 193.063 327.658 192.332C327.785 192.087 327.897 191.772 327.73 191.552C327.608 191.392 327.385 191.353 327.184 191.351ZM326.634 185.681C328.438 186.311 330.073 187.418 331.328 188.859C332.406 190.098 333.227 191.707 333 193.333C332.917 193.93 332.697 194.5 332.445 195.048C331.494 197.124 329.857 199.113 327.609 199.515C326.43 199.726 325.214 199.473 324.08 199.087C322.769 198.641 321.518 198.015 320.375 197.233C319.769 196.818 319.166 196.325 318.9 195.64C318.717 195.168 318.712 194.648 318.719 194.141C318.736 192.889 318.819 191.615 319.255 190.441C319.808 188.956 320.889 187.73 322.035 186.635C322.496 186.195 322.985 185.761 323.577 185.526C324.546 185.14 325.649 185.338 326.634 185.681Z" fill="white"/>
<path fill-rule="evenodd" clip-rule="evenodd" d="M327.186 95.3176C334.651 103.017 340.543 112.223 344.4 122.213C344.665 122.9 344.922 123.662 344.669 124.353C342.724 129.671 338.968 134.105 335.286 138.416C332.933 141.171 330.58 143.926 328.227 146.681C325.981 149.311 323.735 151.941 321.413 154.505C309.59 167.559 295.62 178.973 279.44 185.996C278.83 186.261 278.175 186.526 277.517 186.42C276.86 186.314 276.243 185.678 276.416 185.037C278.416 177.588 280.429 169.8 278.824 162.256C278.437 160.437 278.005 158.146 279.514 157.051C291.734 148.186 300.532 135.515 308.963 123.017C311.083 119.874 313.198 116.723 315.074 113.43C318.405 107.583 320.97 101.304 322.685 94.8015C322.92 93.9092 324.051 93.5074 324.947 93.7412C325.842 93.9751 326.542 94.6541 327.186 95.3176" fill="white"/>
<path fill-rule="evenodd" clip-rule="evenodd" d="M94.3699 125.227C95.5836 136.199 98.9617 146.928 104.253 156.617C107.53 162.616 111.515 168.193 115.489 173.754C118.255 177.624 121.213 181.656 125.528 183.656C126.676 184.188 126.516 185.842 126.208 187.069C124.877 192.371 124.255 197.85 124.366 203.316C124.377 203.832 124.39 204.367 124.187 204.842C123.499 206.454 121.139 206.186 119.515 205.526C109.464 201.446 101.748 193.241 94.5393 185.136C85.1804 174.611 75.9608 163.625 70.432 150.672C70.0562 149.792 69.6914 148.865 69.7543 147.91C69.8184 146.936 70.3185 146.051 70.8258 145.218C75.8378 136.986 82.8103 129.957 91.0014 124.878C91.5784 124.521 92.1944 124.162 92.8728 124.139C93.5512 124.115 94.2953 124.552 94.3699 125.227Z" fill="white"/>
<path fill-rule="evenodd" clip-rule="evenodd" d="M325.721 317.716C326.587 316.248 327.66 314.632 329.342 314.354C330.004 314.244 330.354 313.524 330.579 312.891C333.359 305.095 333.627 296.426 331.334 288.473C330.68 286.203 331.485 283.797 332.282 281.573C334.34 275.834 336.397 270.095 338.454 264.357C337.276 262.318 334.168 262.378 332.576 260.643C330.527 258.41 332.072 254.86 333.677 252.289C343.054 237.272 352.431 222.255 361.808 207.238C362.957 205.399 365.478 204.822 367.591 205.312C369.704 205.802 371.508 207.132 373.246 208.43C380.085 213.538 386.924 218.646 393.763 223.754C397.433 226.496 401.485 229.998 401.274 234.574C401.157 237.107 399.708 239.358 398.306 241.47C392.886 249.637 387.466 257.804 382.046 265.971C378.993 270.572 379.836 276.615 378.913 282.06C377.455 290.662 371.556 297.727 366.093 304.531C360.631 311.334 355.165 318.932 354.858 327.651C354.492 338.044 349.554 348.195 341.604 354.898C343.91 349.304 329.342 351.535 312.676 344.905C315.419 335.203 320.596 326.398 325.721 317.716Z" fill="white"/>
<path fill-rule="evenodd" clip-rule="evenodd" d="M142.726 342.046C141.687 341.196 141.356 339.761 141.172 338.427C139.05 322.996 148.165 307.764 146.541 292.272C145.704 284.288 142.036 276.839 137.42 270.287C134.232 265.763 134.053 259.702 135.242 254.288C136.432 248.875 138.831 243.813 140.449 238.513C147.645 214.944 138.889 189.765 130.232 166.698C147.482 158.356 167.612 159.972 186.723 161.102C205.833 162.232 226.386 162.312 242.313 151.64C244.497 174.728 239.683 197.841 234.896 220.529C259.183 218.162 283.47 215.796 307.757 213.43C308.454 213.362 309.215 213.31 309.794 213.705C310.566 214.233 310.685 215.309 310.729 216.246C311.864 240.257 312.553 264.289 312.793 288.325C312.799 288.928 312.779 289.6 312.356 290.028C311.994 290.394 311.441 290.471 310.931 290.527C276.904 294.319 242.877 298.111 208.85 301.903C205.908 302.231 201.716 301.465 201.888 298.494C202.657 285.25 202.208 271.935 200.55 258.774C191.508 258.431 182.403 259.81 173.862 262.816C171.925 263.498 169.595 265.331 170.64 267.107C177.554 278.856 168.972 296.517 178.363 306.379C181.591 309.77 181.368 315.105 180.728 319.754C179.357 329.72 177.026 339.552 173.781 349.069C175.35 338.115 143.685 347.92 142.726 342.046Z" fill="white"/>
<path fill-rule="evenodd" clip-rule="evenodd" d="M45.4002 93.3782C45.4293 93.6121 45.3027 93.8577 45.0954 93.9698C44.9303 93.8046 44.7651 93.6394 44.6 93.4741C44.8475 93.3659 45.1283 93.335 45.3935 93.3869L45.4002 93.3782Z" fill="#274772"/>
<path fill-rule="evenodd" clip-rule="evenodd" d="M204.207 320.091C204.787 320.273 205.359 320.497 205.863 320.835C206.811 321.47 207.456 322.455 208.074 323.413C208.518 324.099 208.967 324.799 209.189 325.586C209.429 326.439 209.386 327.349 209.225 328.219C208.725 330.932 207.051 333.407 204.72 334.881C202.389 336.355 199.435 336.806 196.77 336.095C196.251 335.956 195.729 335.768 195.33 335.408C194.995 335.106 194.769 334.704 194.562 334.303C193.477 332.199 192.745 329.861 192.828 327.494C192.912 325.128 193.885 322.733 195.727 321.246C198.04 319.379 201.372 319.201 204.207 320.091M200.958 334.181C202.407 333.961 203.683 333.014 204.516 331.807C205.349 330.601 205.776 329.154 205.982 327.702C206.099 326.874 206.109 325.923 205.524 325.325C205.174 324.967 204.674 324.806 204.193 324.663C202.391 324.124 200.334 323.665 198.72 324.631C197.544 325.334 196.889 326.638 196.295 327.872C195.599 329.317 195.771 331.142 196.725 332.432C197.678 333.722 199.371 334.422 200.958 334.181V334.181Z" fill="#274772"/>
<path fill-rule="evenodd" clip-rule="evenodd" d="M270.418 254.986C270.443 254.679 270.48 254.349 270.684 254.117C270.883 253.89 271.196 253.809 271.49 253.74C279.062 251.977 286.884 251.288 294.648 251.698C295.637 251.75 296.909 252.085 296.974 253.073C297.349 258.738 297.724 264.402 298.099 270.067C298.118 270.354 298.128 270.672 297.944 270.893C297.795 271.073 297.554 271.143 297.327 271.202C289.252 273.307 280.74 273.722 272.498 272.412C272.285 272.379 272.062 272.339 271.897 272.201C271.698 272.034 271.628 271.763 271.572 271.509C270.356 266.102 269.966 260.51 270.418 254.986ZM272.204 264.383C272.352 266.522 272.801 268.641 273.533 270.656C274.262 270.761 274.984 270.913 275.711 271.036C281.974 272.096 288.38 271.029 294.643 269.964C295.087 269.888 295.574 269.788 295.849 269.43C296.129 269.065 296.091 268.556 296.041 268.098C295.825 266.146 295.609 264.194 295.394 262.242C295.376 262.085 295.354 261.916 295.248 261.799C295.118 261.657 294.907 261.634 294.715 261.621C290.265 261.328 285.8 261.66 281.352 261.992C278.894 262.176 276.435 262.359 273.977 262.543C273.399 262.586 272.743 262.671 272.411 263.146C272.166 263.496 272.174 263.958 272.204 264.383ZM272.273 256.219C271.884 257.467 271.814 258.813 272.072 260.094C272.118 260.324 272.183 260.567 272.358 260.724C272.617 260.956 273.012 260.918 273.356 260.867C277.545 260.254 281.778 259.949 286.011 259.956C286.609 259.957 286.792 259.153 286.785 258.556C286.776 257.681 286.766 256.806 286.756 255.931C286.751 255.425 286.726 254.867 286.379 254.498C285.963 254.055 285.267 254.069 284.66 254.115C283.258 254.222 281.855 254.329 280.453 254.436C279.782 254.488 278.003 254.943 277.185 254.997C275.761 255.224 274.337 255.451 272.914 255.679C272.762 255.703 272.602 255.731 272.485 255.831C272.371 255.928 272.318 256.076 272.273 256.219ZM291.05 260.025C292.163 260.039 293.278 259.928 294.366 259.694C294.625 259.638 294.897 259.567 295.082 259.377C295.353 259.099 295.351 258.661 295.331 258.273C295.273 257.145 295.216 256.017 295.158 254.889C295.138 254.486 295.092 254.033 294.778 253.781C294.501 253.56 294.111 253.573 293.757 253.597C292.52 253.681 291.282 253.765 290.044 253.85C289.848 253.863 289.643 253.879 289.479 253.988C289.179 254.186 289.134 254.601 289.126 254.96C289.098 256.156 289.147 257.353 289.272 258.543C289.308 258.887 289.358 259.249 289.571 259.522C289.903 259.948 290.511 260.018 291.05 260.025Z" fill="#BAC8DB"/>
<path fill-rule="evenodd" clip-rule="evenodd" d="M289.798 230.231C291.453 229.515 293.482 229.755 294.924 230.836C296.366 231.918 297.164 233.8 296.939 235.588C297.953 235.04 299.239 234.5 300.185 235.159C301.253 235.902 301.009 237.502 300.848 238.793C300.568 241.049 300.932 243.381 301.885 245.445C302.279 246.297 302.617 247.591 301.744 247.935C301.596 247.993 301.435 248.006 301.277 248.019C291.031 248.844 280.785 249.67 270.539 250.496C270.258 250.519 269.944 250.531 269.731 250.346C269.514 250.157 269.487 249.835 269.475 249.548C269.377 247.138 269.279 244.728 269.181 242.318C269.154 241.671 269.142 240.974 269.507 240.44C270.111 239.556 271.377 239.559 272.434 239.389C273.492 239.22 274.722 238.328 274.315 237.338C273.861 236.233 275.407 235.427 276.587 235.247C277.767 235.067 279.333 234.364 278.975 233.225C278.585 231.981 280.297 231.209 281.589 231.037C282.502 230.916 283.455 230.799 284.321 231.112C285.186 231.425 285.917 232.315 285.722 233.215C285.499 234.244 286.753 235.203 287.742 234.84C288.73 234.476 289.131 233.125 288.63 232.198C288.222 231.441 289.009 230.572 289.798 230.231ZM295.089 246.112C294.706 245.402 294.703 244.556 294.7 243.749C294.683 239.958 294.451 236.168 294.003 232.404C293.98 232.214 293.944 232.002 293.789 231.891C293.654 231.795 293.474 231.806 293.31 231.822C292.51 231.896 291.561 232.073 291.245 232.812C291.11 233.128 291.126 233.484 291.144 233.827C291.347 237.626 291.55 241.425 291.753 245.224C291.772 245.578 291.819 245.984 292.113 246.182C292.273 246.289 292.475 246.309 292.668 246.32C293.479 246.364 294.297 246.294 295.089 246.112ZM281.308 240.271C281.209 240.904 281.069 241.532 281.032 242.172C280.97 243.241 281.195 244.303 281.419 245.35C281.563 246.021 282.431 246.352 283.066 246.093C283.702 245.834 284.086 245.156 284.192 244.477C284.298 243.799 284.174 243.109 284.066 242.431C283.641 239.767 283.457 237.066 283.517 234.369C283.532 233.687 282.867 233.071 282.188 233.138C281.509 233.205 280.977 233.94 281.126 234.606C281.541 236.461 281.603 238.394 281.308 240.271ZM288.047 236.633C287.647 236.11 286.732 236.388 286.42 236.968C286.108 237.548 286.204 238.251 286.281 238.905C286.483 240.612 286.502 242.341 286.338 244.052C286.29 244.556 286.236 245.107 286.515 245.531C286.943 246.182 287.883 246.176 288.659 246.097C288.902 246.072 289.182 246.025 289.304 245.814C289.389 245.667 289.369 245.484 289.346 245.315C288.989 242.66 288.631 240.005 288.273 237.35C288.24 237.098 288.201 236.834 288.047 236.633ZM296.922 237.774C296.621 238.184 296.557 238.718 296.531 239.227C296.442 240.969 296.673 242.711 296.903 244.441C296.994 245.122 297.305 245.998 297.991 245.952C298.687 245.905 298.868 244.975 298.852 244.278C298.809 242.433 298.766 240.588 298.724 238.743C298.712 238.258 298.661 237.696 298.259 237.425C297.836 237.141 297.223 237.363 296.922 237.774ZM275.92 237.338C275.92 237.338 276.225 239.746 276.332 240.973C276.466 242.513 276.636 244.05 276.843 245.582C276.873 245.804 276.913 246.045 277.077 246.199C277.362 246.464 278.459 246.288 278.662 245.955C278.864 245.623 278.853 245.207 278.835 244.819C278.779 243.589 278.724 242.359 278.668 241.129C278.608 239.811 278.295 236.968 278.295 236.968M271.938 246.057C272.026 246.332 272.129 246.621 272.352 246.806C272.788 247.166 273.494 246.943 273.837 246.494C274.18 246.045 274.257 245.454 274.323 244.893C274.403 244.205 274.481 243.489 274.258 242.833C274.035 242.176 273.418 241.599 272.728 241.66C272.092 241.716 271.601 242.296 271.452 242.916C271.304 243.536 271.429 244.187 271.583 244.805C271.688 245.226 271.806 245.643 271.938 246.057Z" fill="#E7EAEE"/>
<path fill-rule="evenodd" clip-rule="evenodd" d="M313.473 147.454C312.646 148.696 311.749 149.954 310.469 150.721C309.189 151.487 307.422 151.637 306.271 150.686C305.003 149.638 304.924 147.747 305.024 146.104C305.063 145.472 305.114 144.834 305.295 144.227C305.609 143.173 306.296 142.274 307.013 141.441C307.882 140.43 308.845 139.454 310.051 138.885C311.257 138.316 312.756 138.216 313.886 138.924C315.238 139.772 315.739 141.575 315.482 143.15C315.226 144.725 314.358 146.126 313.473 147.454M310.846 148.768C311.889 147.657 312.784 146.407 313.499 145.061C313.969 144.175 314.369 143.213 314.351 142.21C314.332 141.207 313.803 140.159 312.872 139.787C311.659 139.302 310.327 140.078 309.313 140.901C308.592 141.488 307.893 142.131 307.43 142.938C307.137 143.448 306.947 144.009 306.758 144.566C306.402 145.619 306.041 146.717 306.176 147.821C306.312 148.926 307.102 150.034 308.209 150.148C309.233 150.254 310.141 149.519 310.846 148.768Z" fill="#BAC8DB"/>
<path fill-rule="evenodd" clip-rule="evenodd" d="M100.379 161.489C101.675 162.802 102.745 164.337 103.527 166.007C104.314 167.686 103.521 169.844 101.978 170.871C100.434 171.898 98.3475 171.884 96.6552 171.127C94.9629 170.37 93.633 168.958 92.6535 167.384C91.9151 166.197 91.3425 164.867 91.2812 163.471C91.2198 162.075 91.7338 160.605 92.8384 159.749C93.9556 158.883 95.5266 158.759 96.8777 159.175C98.2288 159.591 99.3862 160.483 100.379 161.489ZM95.323 160.691C94.2017 160.575 93.2056 161.604 93.0132 162.715C92.8209 163.826 93.2443 164.953 93.7922 165.938C94.9802 168.074 97.1 169.972 99.5415 169.853C100.797 169.793 102.172 168.923 102.15 167.667C102.14 167.124 101.872 166.623 101.605 166.15C100.893 164.893 100.125 163.65 99.0996 162.635C98.0739 161.619 96.7589 160.839 95.323 160.691Z" fill="#BAC8DB"/>
<path fill-rule="evenodd" clip-rule="evenodd" d="M198.365 326.741C199.265 326.057 200.385 325.615 201.513 325.687C202.641 325.76 203.757 326.407 204.229 327.435C204.736 328.537 204.42 329.907 203.63 330.828C202.84 331.748 201.649 332.257 200.448 332.425C199.628 332.539 198.65 332.436 198.201 331.741C197.984 331.405 197.935 330.992 197.892 330.594C197.813 329.881 197.735 329.168 197.657 328.455C197.624 328.153 197.592 327.84 197.689 327.552C197.803 327.214 198.08 326.957 198.365 326.741M201.926 328.792C202.057 328.692 202.194 328.583 202.251 328.428C202.434 327.932 201.717 327.602 201.188 327.614C200.421 327.631 199.437 328.148 199.672 328.879C199.808 329.302 200.328 329.497 200.766 329.42C201.203 329.342 201.574 329.063 201.926 328.792Z" fill="#274772"/>
<path fill-rule="evenodd" clip-rule="evenodd" d="M325.871 98.7925C332.885 106.053 338.421 114.735 342.044 124.157C342.293 124.804 342.535 125.523 342.297 126.174C340.469 131.19 336.941 135.371 333.482 139.437L326.85 147.231L326.849 147.232C324.739 149.712 322.629 152.192 320.448 154.609C309.34 166.92 296.216 177.684 281.015 184.308C280.442 184.558 279.826 184.807 279.209 184.707C278.591 184.607 278.012 184.007 278.174 183.403C280.053 176.378 281.944 169.033 280.436 161.919C280.073 160.203 279.667 158.043 281.085 157.01C292.565 148.65 300.83 136.701 308.752 124.914C310.744 121.951 312.73 118.979 314.493 115.873C317.622 110.359 320.032 104.438 321.643 98.3057C321.864 97.4643 322.926 97.0853 323.768 97.3059C324.609 97.5264 325.267 98.1667 325.871 98.7925ZM320.963 107.809C320.25 107.514 319.593 108.311 319.23 108.992C318.837 109.728 318.444 110.466 318.051 111.204C310.784 124.854 303.406 138.713 292.332 149.464C291.286 150.479 290.117 151.707 290.309 153.152C290.927 157.785 288.454 162.678 284.356 164.928C282.496 165.949 282.518 168.584 282.79 170.689C282.899 171.531 283.218 172.588 284.064 172.659C286.548 172.868 288.931 174.091 290.55 175.985C291.06 176.583 292.028 176.21 292.694 175.791C309.446 165.259 322.318 149.703 334.886 134.419C335.32 133.892 335.781 133.227 335.555 132.583C333.653 127.165 333.958 121.009 336.386 115.805C334.953 112.955 333.246 110.243 331.296 107.719C328.05 109.128 324.233 109.161 320.963 107.809ZM281.227 181.525C281.888 181.871 282.688 181.542 283.349 181.197C285.087 180.29 286.76 179.261 288.353 178.119C288.774 177.817 288.9 177.215 288.751 176.719C288.602 176.223 288.23 175.823 287.817 175.51C286.529 174.532 284.728 174.275 283.218 174.853C282.939 174.96 282.662 175.099 282.469 175.328C282.244 175.595 282.162 175.952 282.09 176.294C281.725 178.024 281.437 179.77 281.227 181.525ZM328.273 104.201C327.134 101.976 325.379 100.07 323.254 98.7524C322.515 99.4039 322.371 100.394 322.225 101.403C322.124 102.096 322.022 102.797 321.726 103.405C321.63 103.603 321.511 103.792 321.394 103.981C321.169 104.341 320.946 104.699 320.874 105.112C320.764 105.741 321.297 106.532 321.902 106.323C322.393 106.154 322.908 106.263 323.428 106.372C323.702 106.43 323.977 106.488 324.251 106.506C325.846 106.609 327.17 105.359 328.273 104.201ZM337.294 117.541C336.075 119.967 336.268 122.832 336.49 125.537L336.808 129.418C336.843 129.844 337.075 130.42 337.486 130.302C337.742 129.587 338.228 128.998 338.716 128.406C339.142 127.889 339.57 127.371 339.845 126.767C340.776 124.72 339.743 122.362 338.724 120.357L337.294 117.541ZM282.709 160.609C282.76 161.368 283.549 161.936 284.309 161.915C285.069 161.893 285.754 161.401 286.198 160.784C286.643 160.166 286.886 159.431 287.124 158.708L287.908 156.322C288.126 155.656 288.14 154.639 287.444 154.561C287.193 154.532 286.953 154.665 286.747 154.812C285.967 155.366 285.399 156.163 284.846 156.944L283.34 159.072C283.013 159.533 282.671 160.045 282.709 160.609ZM103.064 154.239C97.7724 144.55 94.3943 133.821 93.1806 122.848C93.1059 122.174 92.3619 121.737 91.6835 121.76C91.0051 121.784 90.389 122.142 89.8121 122.5C81.621 127.578 74.6484 134.608 69.6365 142.84C69.1292 143.673 68.629 144.558 68.565 145.531C68.5021 146.487 68.8669 147.413 69.2427 148.294C74.7714 161.247 83.9911 172.233 93.35 182.757C100.558 190.863 108.275 199.068 118.325 203.148C119.95 203.807 122.309 204.076 122.998 202.464C123.198 201.995 123.188 201.467 123.177 200.956L123.177 200.937C123.066 195.472 123.687 189.992 125.018 184.691C125.326 183.464 125.486 181.81 124.339 181.278C120.023 179.278 117.066 175.245 114.3 171.376C110.326 165.815 106.34 160.237 103.064 154.239ZM112.406 196.589C111.811 196.748 111.217 196.373 110.721 196.009C101.574 189.307 94.4848 180.236 87.5198 171.287L75.2286 155.494C77.3033 154.173 77.5667 151.302 77.6119 148.842C77.6707 145.646 77.7136 142.354 76.5588 139.373C76.3022 138.71 76.6363 137.976 76.9941 137.362C78.5288 134.729 80.6572 132.443 83.175 130.726C83.4187 130.56 83.6767 130.394 83.9689 130.353C84.7399 130.244 85.3314 130.994 85.7435 131.655C87.3708 134.264 89.6073 137.216 92.6752 137.001C93.8433 136.919 94.4911 138.295 94.8319 139.415C99.0697 153.347 107.026 165.913 116.357 177.093C117.569 178.546 117.874 180.506 118.175 182.449C118.511 184.616 118.844 186.76 120.429 188.154C121.782 189.343 121.531 191.479 121.166 193.243C121.091 193.604 121.002 193.991 120.728 194.238C120.524 194.421 120.249 194.497 119.984 194.567L112.406 196.589ZM90.7198 133.774C89.0417 132.601 87.5922 131.103 86.4759 129.387C86.2344 129.016 85.9999 128.6 86.0423 128.159C86.0884 127.68 86.449 127.296 86.8077 126.975C87.6937 126.182 88.695 125.518 89.7704 125.011C90.1641 124.825 90.6726 124.674 90.9997 124.962C91.1923 125.131 91.2531 125.401 91.3034 125.653L92.8533 133.404C92.9449 133.862 92.4642 134.275 91.9971 134.288C91.53 134.302 91.1028 134.041 90.7198 133.774ZM75.3819 148.766C75.3491 150.224 75.2377 151.861 74.145 152.827C73.9163 152.854 73.7645 152.603 73.6749 152.391C72.8876 150.527 72.0894 148.619 71.9654 146.599C71.8414 144.58 72.5182 142.393 74.1683 141.223C74.3916 141.064 74.7191 140.934 74.9162 141.124C74.9954 141.2 75.0293 141.311 75.0582 141.417C75.5065 143.065 75.4713 144.801 75.4328 146.509L75.3819 148.766ZM119.911 197.265C120.176 197.481 120.204 197.869 120.211 198.212L120.29 201.959C118.753 201.107 117.28 200.138 115.888 199.065C115.624 198.861 115.334 198.531 115.496 198.24C115.576 198.095 115.743 198.025 115.898 197.968C116.893 197.602 117.921 197.326 118.966 197.147C119.289 197.092 119.657 197.057 119.911 197.265ZM119.999 182.502C119.985 182.333 119.985 182.149 120.086 182.012C120.351 181.651 120.927 181.978 121.171 182.354C121.758 183.26 121.887 184.446 121.51 185.457C120.648 184.718 120.093 183.633 119.999 182.502ZM348.992 154.046C350.524 152.116 353.317 151.838 355.781 151.899C356.356 151.913 356.949 151.94 357.472 152.179C358.93 152.843 359.239 154.748 359.288 156.349C359.333 157.805 359.325 159.281 358.971 160.694C358.617 162.108 357.885 163.47 356.714 164.337C356.188 164.727 355.577 165.012 354.931 165.12C353.933 165.287 352.911 165.03 351.962 164.677C350.698 164.207 349.499 163.561 348.411 162.763C347.879 162.374 347.33 161.864 347.313 161.205C347.274 159.686 347.444 158.161 347.817 156.688C348.056 155.747 348.388 154.806 348.992 154.046ZM352.965 163.657C354.933 164.222 357.025 162.699 357.771 160.793C358.516 158.887 358.24 156.746 357.831 154.741C357.673 153.971 356.851 153.541 356.092 153.335C354.918 153.016 353.67 152.974 352.477 153.212C351.884 153.331 351.279 153.534 350.863 153.973C350.636 154.212 350.479 154.507 350.325 154.798L349.172 156.976C348.97 157.359 348.766 157.746 348.647 158.163C348.29 159.409 348.761 160.793 349.631 161.754C350.502 162.715 351.719 163.299 352.965 163.657ZM326.634 185.682C328.438 186.311 330.073 187.419 331.328 188.86C332.406 190.099 333.227 191.707 333 193.334C332.917 193.931 332.697 194.501 332.446 195.049C331.494 197.124 329.857 199.114 327.609 199.516C326.43 199.727 325.214 199.474 324.08 199.088C322.769 198.642 321.518 198.016 320.375 197.233C319.769 196.818 319.166 196.326 318.901 195.641C318.717 195.168 318.712 194.648 318.719 194.142C318.736 192.89 318.819 191.616 319.255 190.442C319.808 188.956 320.889 187.73 322.035 186.636C322.496 186.196 322.985 185.762 323.577 185.526C324.546 185.14 325.649 185.338 326.634 185.682ZM328.478 196.599C329.782 195.309 330.541 193.439 330.334 191.616C330.128 189.794 328.894 188.083 327.169 187.461C326.452 187.203 325.657 187.13 324.922 187.334C324.526 187.443 324.154 187.63 323.807 187.851C322.322 188.795 321.279 190.406 321.026 192.148C320.773 193.89 321.314 195.731 322.469 197.059C323.208 197.91 324.415 198.275 325.533 198.133C326.651 197.992 327.677 197.392 328.478 196.599ZM163.822 174.938C163.761 174.079 162.612 173.853 161.751 173.879C157.23 174.012 152.715 174.35 148.225 174.894C147.488 174.983 147.428 176.172 148.02 176.621C148.612 177.07 149.436 176.987 150.172 176.882L163.822 174.938ZM149.37 180.749C149.408 180.306 149.965 180.146 150.406 180.096L177.034 177.081C177.516 177.026 178.029 176.977 178.462 177.194C178.895 177.411 179.175 178.004 178.892 178.397C178.683 178.687 178.283 178.746 177.927 178.781L150.692 181.424C150.126 181.479 149.32 181.316 149.37 180.749ZM209.065 185.234C207.576 185.561 206.047 185.024 204.618 184.49C199.998 182.763 195.396 180.989 190.813 179.167C188.963 178.432 186.933 179.533 185.269 180.626C180.453 183.79 175.817 187.226 171.39 190.913C170.252 191.86 168.502 191.195 167.355 190.26C167.113 190.062 166.874 189.851 166.635 189.639C165.741 188.85 164.836 188.05 163.681 187.886C161.905 187.634 160.342 188.981 159.055 190.231L150.755 198.291C149.639 199.375 148.464 201.111 149.458 202.309C150.113 203.099 151.316 203.059 152.336 202.941C157.66 202.324 162.957 201.458 168.252 200.593L168.253 200.593L168.253 200.593L168.253 200.593L168.254 200.593L168.254 200.593L168.254 200.593L168.254 200.593L168.255 200.593L168.255 200.593L168.255 200.593L168.256 200.593L168.256 200.593C177.01 199.163 185.759 197.734 194.613 197.427C196.575 197.36 198.538 197.347 200.501 197.335C201.731 197.327 202.96 197.319 204.189 197.298C209.733 197.201 215.273 196.827 220.779 196.179C221.046 196.147 221.349 196.093 221.487 195.863C221.591 195.689 221.565 195.47 221.536 195.27L219.203 179.399C219.085 178.593 218.878 177.66 218.141 177.312C217.396 176.96 216.519 177.414 215.908 177.966C214.952 178.83 214.215 179.977 213.488 181.109C212.296 182.965 211.131 184.78 209.065 185.234ZM171.186 193.918C176.168 189.822 181.362 185.985 186.741 182.427C187.846 181.696 189.189 180.948 190.423 181.428L203.467 186.497C205.643 187.342 208.024 188.199 210.259 187.521C212.857 186.733 214.41 184.148 215.719 181.769C215.973 181.306 216.713 181.359 217.08 181.739C217.446 182.12 217.539 182.679 217.614 183.202L218.569 189.82C218.716 190.837 218.86 191.891 218.566 192.875C218.273 193.859 217.41 194.753 216.383 194.733C199.593 194.409 182.771 195.793 166.259 198.858C165.748 198.953 165.236 199.049 164.725 199.146C160.78 199.891 156.821 200.638 152.813 200.652C154.748 197.91 157.201 195.581 159.637 193.272C160.974 192.005 162.646 190.637 164.441 191.052C165.411 191.276 166.155 191.972 166.894 192.665C167.132 192.888 167.369 193.11 167.612 193.315C168.616 194.163 170.171 194.753 171.186 193.918ZM386.589 240.087C386.144 240.253 385.647 240.14 385.194 239.997C382.123 239.032 379.63 236.873 377.179 234.752C376.847 234.465 376.516 234.178 376.185 233.895C372.124 230.432 367.718 227.374 363.052 224.783C362.577 224.519 362.079 224.242 361.789 223.783C361.498 223.325 361.507 222.626 361.955 222.32C364.047 220.892 365.404 218.441 365.504 215.909C365.53 215.235 366.292 214.785 366.965 214.839C367.638 214.893 368.225 215.297 368.775 215.688L390.095 230.822C390.51 231.116 390.957 231.458 391.059 231.957C391.142 232.364 390.971 232.775 390.8 233.154C389.88 235.183 388.823 237.149 387.637 239.035C387.368 239.462 387.062 239.911 386.589 240.087ZM365.26 222.134C365.009 222.576 364.793 223.215 365.199 223.521L382.596 236.62C383.549 237.338 385.029 238.01 385.78 237.083C386.641 236.018 387.446 234.908 388.189 233.757C388.392 233.443 388.599 233.083 388.526 232.716C388.459 232.38 388.177 232.137 387.911 231.921C381.527 226.744 374.767 222.03 367.702 217.828L365.26 222.134ZM356.602 230.145C356.883 229.663 357.224 229.135 357.769 229.017C358.186 228.926 358.61 229.105 358.994 229.292C361.089 230.309 363.008 231.688 364.64 233.349C365.033 233.749 365.081 234.392 364.907 234.924C364.732 235.457 364.371 235.905 364.018 236.34C363.451 237.039 362.846 237.766 362.008 238.098C361.105 238.456 360.053 238.284 359.197 237.823C358.341 237.362 357.655 236.641 357.049 235.88C356.259 234.888 355.552 233.699 355.675 232.436C355.755 231.609 356.183 230.862 356.602 230.145ZM360.266 235.699C361.583 236.211 362.426 235.805 362.461 234.941C362.483 234.396 362.007 233.976 361.574 233.643L360.266 232.637C359.833 232.304 359.356 231.956 358.811 231.959C358.265 231.963 357.71 232.525 357.933 233.023C357.899 233.264 358.948 235.187 360.266 235.699ZM355.066 246.335C355.387 246.511 355.728 246.683 356.094 246.691C356.46 246.699 356.857 246.491 356.947 246.136C357.158 245.303 357.71 244.612 358.249 243.936L358.345 243.815L358.425 243.714C359.017 242.966 359.587 242.118 359.603 241.165C359.619 240.211 358.829 239.195 357.884 239.325C357.14 239.427 356.448 238.94 355.907 238.418L355.88 238.392L355.84 238.353C355.776 238.29 355.713 238.227 355.649 238.163C355.197 237.712 354.737 237.254 354.137 237.058C353.422 236.825 352.449 237.195 352.392 237.945C352.278 239.454 351.024 240.59 349.861 241.558C349.512 241.847 349.827 242.403 350.153 242.718C351.619 244.136 353.277 245.356 355.066 246.335ZM355.298 243.46L353.007 241.91C352.424 241.516 352.471 240.55 352.99 240.076C353.51 239.602 354.317 239.565 354.979 239.803C355.641 240.04 356.192 240.506 356.727 240.963C357.081 241.265 357.13 241.815 356.968 242.252C356.806 242.688 356.476 243.038 356.155 243.375C356.045 243.49 355.922 243.612 355.764 243.633C355.596 243.654 355.438 243.555 355.298 243.46ZM373.464 243.562L374.584 241.181C374.927 240.453 375.26 239.55 374.796 238.891C374.636 238.662 374.398 238.501 374.167 238.345L370.09 235.598C369.651 235.301 369.174 234.994 368.644 235.002C368.016 235.012 367.489 235.46 367.043 235.903C366.375 236.565 365.751 237.271 365.175 238.015C364.737 238.581 364.377 239.513 364.975 239.906L371.213 243.999C371.705 244.322 372.33 244.654 372.847 244.373C373.151 244.208 373.317 243.875 373.464 243.562ZM372.081 241.877C371.819 241.937 371.546 241.87 371.289 241.793C369.714 241.318 368.272 240.41 367.165 239.193C366.797 238.789 367.005 238.074 367.473 237.791C367.941 237.507 368.549 237.572 369.054 237.784C369.379 237.921 369.678 238.112 369.976 238.302L369.977 238.303L369.977 238.303C370.14 238.407 370.304 238.512 370.472 238.607C370.653 238.71 370.842 238.805 371.031 238.9C371.566 239.168 372.103 239.438 372.469 239.902C372.963 240.531 372.861 241.698 372.081 241.877ZM374.188 244.536C374.907 244.365 375.126 243.632 375.355 242.87C375.543 242.24 375.738 241.591 376.225 241.223C377.064 240.589 378.252 241.119 379.155 241.656L382.029 243.365C382.487 243.638 382.955 243.92 383.284 244.339C383.612 244.759 383.773 245.353 383.544 245.834C383.391 246.155 383.101 246.368 382.809 246.582C382.569 246.758 382.328 246.934 382.16 247.173C381.944 247.479 381.864 247.863 381.784 248.242C381.685 248.717 381.586 249.186 381.223 249.485C380.562 250.03 379.578 249.593 378.847 249.146L374.799 246.672C374.391 246.423 373.96 246.149 373.759 245.715C373.559 245.28 373.722 244.646 374.188 244.536ZM379.495 246.992C380.075 246.794 380.541 246.364 380.988 245.946C381.312 245.642 380.878 245.143 380.492 244.925L378.011 243.529C377.753 243.383 377.393 243.25 377.192 243.469C376.546 244.174 376.452 245.325 376.975 246.125C377.499 246.925 378.59 247.301 379.495 246.992ZM351.038 246.905C350.483 246.749 349.918 246.59 349.464 246.28C348.76 245.8 347.78 245.916 347.041 246.341C346.302 246.765 345.751 247.446 345.217 248.111C344.921 248.48 344.617 248.864 344.504 249.324C344.391 249.783 344.526 250.34 344.939 250.57L349.264 252.981C349.592 253.163 349.957 253.352 350.323 253.271C350.688 253.19 350.939 252.866 351.159 252.564L352.272 251.033C352.891 250.181 353.538 249.094 353.085 248.143C352.722 247.38 351.892 247.146 351.038 246.905ZM349.67 250.872C349.443 250.931 349.211 250.822 349.002 250.716L346.056 249.217C346.622 248.415 347.7 248.107 348.677 248.204C349.654 248.301 350.561 248.736 351.444 249.163L350.09 250.57C349.969 250.696 349.839 250.827 349.67 250.872ZM329.257 190.91C329.713 191.605 329.57 192.535 329.267 193.31C328.868 194.331 328.194 195.277 327.242 195.821C326.29 196.364 325.039 196.443 324.111 195.859C323.183 195.275 322.717 193.977 323.214 193C323.329 192.774 323.486 192.574 323.643 192.374C323.793 192.182 323.944 191.99 324.057 191.776C324.132 191.635 324.19 191.485 324.248 191.335C324.332 191.12 324.416 190.905 324.549 190.717C325.021 190.048 325.952 189.916 326.77 189.928C327.699 189.941 328.747 190.133 329.257 190.91ZM327.184 191.352C325.913 191.336 324.721 192.401 324.596 193.666C324.544 194.182 324.763 194.825 325.278 194.896C325.663 194.949 326.002 194.651 326.26 194.361C326.809 193.747 327.279 193.064 327.658 192.333C327.785 192.088 327.897 191.773 327.73 191.553C327.608 191.393 327.385 191.354 327.184 191.352ZM357.571 158.215C357.473 157.051 356.695 155.907 355.564 155.616C354.128 155.245 352.736 156.256 351.596 157.205C351.259 157.486 350.907 157.787 350.764 158.202C350.522 158.906 350.958 159.648 351.387 160.256C351.879 160.952 352.404 161.652 353.122 162.112C353.839 162.572 354.796 162.751 355.549 162.351C355.933 162.147 356.231 161.814 356.491 161.466C357.188 160.529 357.669 159.378 357.571 158.215ZM354.386 161.197C353.899 161.27 353.395 161.074 353.036 160.736C352.5 160.231 352.287 159.418 352.474 158.705C352.672 157.955 353.302 157.335 354.056 157.149C354.809 156.964 355.655 157.222 356.178 157.795C356.158 157.952 356.142 158.109 356.126 158.267C356.07 158.802 356.015 159.338 355.829 159.84C355.59 160.491 355.072 161.095 354.386 161.197ZM315.731 342.668C318.379 333.301 323.378 324.799 328.325 316.416C329.162 314.999 330.198 313.439 331.822 313.17C332.462 313.064 332.799 312.369 333.017 311.758C335.7 304.231 335.959 295.86 333.745 288.182C333.114 285.99 333.891 283.667 334.661 281.52L340.62 264.897C340 263.825 338.829 263.354 337.641 262.877C336.648 262.478 335.644 262.074 334.944 261.311C332.966 259.155 334.458 255.727 336.008 253.246L363.169 209.748C364.278 207.971 366.712 207.415 368.752 207.888C370.792 208.361 372.535 209.645 374.212 210.898L394.022 225.694C397.566 228.341 401.478 231.722 401.274 236.141C401.161 238.586 399.762 240.76 398.408 242.799L382.709 266.456C380.679 269.515 380.433 273.234 380.185 276.97C380.073 278.659 379.961 280.352 379.684 281.99C378.33 289.977 373.011 296.591 367.915 302.929L367.881 302.97C367.689 303.209 367.497 303.448 367.306 303.686C362.032 310.255 356.755 317.59 356.458 326.009C356.105 336.044 351.338 345.844 343.661 352.317L350.341 336.112C351.93 332.258 353.401 327.464 350.742 324.253C349.539 322.801 347.721 322.032 345.977 321.316L335.602 317.06C334.887 316.766 334.15 316.468 333.376 316.463C330.966 316.449 329.533 319.063 328.555 321.266C325.175 328.887 320.857 336.092 315.731 342.668ZM349.843 320.661C351.622 321.319 354.126 321.719 354.969 320.02C359.049 311.796 363.24 303.415 369.734 296.926C373.477 293.186 375.771 288.195 377.069 283.066C378.367 277.937 378.735 272.624 379.097 267.346C377.521 267.919 377.384 270.046 377.391 271.723C377.405 275.42 376.759 279.118 375.492 282.591C375.226 283.318 374.87 284.103 374.16 284.41C373.449 284.716 372.403 284.101 372.641 283.365C374.474 277.716 375.157 271.697 374.637 265.781C374.475 263.946 374.134 261.984 372.83 260.684C372.971 263.581 373.112 266.49 372.819 269.374C372.311 274.365 370.522 279.124 368.748 283.817C368.518 284.426 368.239 285.09 367.654 285.376C367.069 285.663 366.161 285.209 366.314 284.576L368.97 273.596C370.431 267.559 371.867 261.065 369.606 255.279C368.467 255.203 368.199 256.831 368.301 257.968C368.997 265.753 366.845 273.481 364.714 281.002C364.465 281.88 363.585 282.978 362.901 282.374C362.606 282.113 362.592 281.664 362.616 281.272C362.75 279.06 363.357 276.919 363.962 274.78C364.15 274.116 364.338 273.453 364.512 272.787C366.113 266.654 366.521 260.212 365.707 253.925C364.304 255.723 363.709 258.004 363.147 260.215L359.814 273.338C358.306 279.27 356.381 285.792 351.155 288.979C350.739 289.233 350.256 289.469 349.782 289.356C349.192 289.216 348.858 288.607 348.612 288.054C345.277 280.541 344.86 271.777 347.468 263.982C347.626 263.509 347.145 263.015 346.648 262.976C346.15 262.937 345.685 263.207 345.277 263.495C340.999 266.514 339.36 271.983 337.999 277.04L336.189 283.764C335.924 284.746 335.659 285.737 335.603 286.752C335.519 288.296 335.923 289.806 336.324 291.308C336.417 291.656 336.509 292.004 336.596 292.352C338.337 299.337 337.55 306.924 334.414 313.404C333.952 314.359 335.172 315.228 336.168 315.597L349.843 320.661ZM356.603 256.491C355.889 255.999 355.125 255.438 354.904 254.6C354.566 253.316 355.79 252.025 357.107 251.852C358.424 251.679 359.713 252.315 360.804 253.072C362.342 254.139 364.288 252.513 365.439 251.037C363.886 250.108 362.405 248.666 362.343 246.857C362.282 245.048 364.481 243.326 365.945 244.39C366.513 244.803 367.2 245.056 367.879 245.306C368.897 245.68 369.898 246.049 370.456 246.94C371.091 247.954 370.866 249.325 370.219 250.332C369.573 251.338 368.578 252.061 367.606 252.759C369.001 252.897 370.358 253.394 371.512 254.19L372.77 250.525C372.867 250.241 372.973 249.944 373.197 249.743C373.628 249.356 374.299 249.476 374.85 249.651C376.298 250.111 377.719 250.828 378.674 252.009C379.63 253.19 380.028 254.905 379.36 256.27C378.693 257.634 376.808 258.362 375.531 257.539C375.266 257.368 375 257.14 374.733 256.912C374.021 256.302 373.31 255.692 372.622 256.181C374.721 257.815 376.162 260.269 376.566 262.898C383.172 252.836 389.706 242.728 396.169 232.574C396.786 231.605 397.284 230.077 396.279 229.52C391.987 227.138 388.193 223.95 384.409 220.768C379.631 216.752 374.869 212.749 369.136 210.398C368.772 210.249 368.375 210.104 367.994 210.205C367.596 210.31 367.315 210.656 367.065 210.984C356.39 224.916 346.81 239.687 338.441 255.116C337.273 257.268 338.836 259.834 340.331 261.773C341.078 262.742 342.52 263.766 343.334 262.853C344.361 261.702 346.044 261.045 347.498 261.558C348.951 262.072 349.856 263.963 349.065 265.287C348.493 266.244 349.613 267.309 350.591 267.844C352.545 268.915 354.55 269.894 356.596 270.776C356.881 270.898 357.212 271.019 357.489 270.88C357.753 270.748 357.86 270.434 357.942 270.15L360.209 262.35C360.582 261.068 360.831 259.403 359.731 258.645L356.603 256.491ZM397.154 234.626C396.853 234.523 396.578 234.824 396.401 235.089L379.428 260.496C378.971 261.179 378.504 261.89 378.371 262.701C378.237 263.512 378.535 264.455 379.274 264.817C380.496 265.415 381.775 264.158 382.559 263.046L398.329 240.695C399.5 239.036 398.509 236.767 397.507 235C397.421 234.848 397.32 234.683 397.154 234.626ZM349.366 268.554C349.067 268.336 348.62 268.466 348.37 268.738C348.12 269.01 348.018 269.383 347.924 269.74C347.692 270.62 347.459 271.508 347.424 272.418C347.39 273.327 347.555 274.23 347.72 275.125L349.345 283.96C349.413 284.331 349.493 284.724 349.755 284.994C350.018 285.264 350.53 285.323 350.742 285.012C353.148 281.494 355.588 277.907 356.846 273.834C357.003 273.328 357.048 272.616 356.552 272.43C353.997 271.468 351.573 270.161 349.366 268.554ZM368.136 246.754C367.321 245.978 366.245 245.483 365.125 245.368C364.105 245.264 363.516 246.698 363.982 247.612C364.448 248.525 365.477 248.978 366.429 249.36C367.101 249.629 367.916 249.883 368.502 249.458C369.344 248.846 368.89 247.472 368.136 246.754ZM361.435 256.992C361.767 256.756 361.811 256.273 361.718 255.876C361.367 254.381 359.728 253.617 358.255 253.179C357.686 253.009 356.977 252.891 356.576 253.329C356.241 253.695 356.312 254.301 356.601 254.704C356.89 255.107 357.343 255.356 357.779 255.591L360.053 256.816C360.485 257.048 361.035 257.277 361.435 256.992ZM374.374 251.602C373.893 252.247 373.942 253.184 374.344 253.881C374.745 254.578 375.441 255.063 376.175 255.392C376.426 255.505 376.703 255.605 376.973 255.551C377.206 255.505 377.405 255.348 377.547 255.158C378.072 254.456 377.817 253.398 377.216 252.761C376.614 252.123 375.757 251.804 374.933 251.505C374.791 251.453 374.625 251.404 374.496 251.482C374.446 251.511 374.409 251.556 374.374 251.602ZM146.315 310.038C146.63 307.711 147.071 305.15 148.899 303.677C150.357 302.502 152.358 302.314 154.23 302.278C160.363 302.16 166.515 303.156 172.297 305.203C174.126 305.85 176.04 306.703 177.04 308.365C178.123 310.165 177.859 312.436 177.56 314.515L172.916 346.777C176.118 337.434 178.417 327.781 179.77 317.998C180.402 313.434 180.622 308.196 177.436 304.867C172.463 299.67 172.599 292.267 172.737 284.74C172.856 278.244 172.977 271.656 169.817 266.313C168.786 264.569 171.084 262.769 172.996 262.1C181.423 259.149 190.405 257.796 199.327 258.132C200.963 271.053 201.405 284.124 200.647 297.126C200.477 300.042 204.613 300.795 207.516 300.473L308.23 289.305C308.734 289.249 309.279 289.174 309.637 288.815C310.054 288.395 310.074 287.735 310.068 287.143C309.831 263.546 309.152 239.953 308.032 216.381C307.988 215.461 307.871 214.405 307.109 213.887C306.538 213.499 305.787 213.55 305.1 213.617L233.214 220.585C237.936 198.312 242.685 175.621 240.531 152.955C224.817 163.433 204.539 163.354 185.684 162.245C184.901 162.199 184.115 162.152 183.329 162.105C165.184 161.02 146.262 159.889 129.95 167.738C138.491 190.384 147.13 215.103 140.03 238.241C139.402 240.288 138.654 242.299 137.907 244.309C136.756 247.408 135.605 250.504 134.893 253.728C133.72 259.042 133.896 264.993 137.041 269.435C141.596 275.867 145.215 283.18 146.04 291.018C146.824 298.456 145.073 305.832 143.325 313.2C141.498 320.899 139.674 328.588 140.743 336.329C140.924 337.639 141.251 339.047 142.277 339.882L146.315 310.038ZM153.441 216.573C155.345 216.641 156.102 219.032 156.346 220.922L158.274 235.889C154.509 233.937 149.212 237.251 149.32 241.49C146.148 235.366 145.666 228.348 145.189 221.401C145.085 219.89 144.981 218.382 144.85 216.887C143.45 200.904 138.633 185.445 133.845 170.131C133.163 167.948 136.111 166.532 138.375 166.2C153.229 164.022 168.263 164.323 183.304 164.624C190.122 164.76 196.941 164.896 203.745 164.802C215.836 164.634 228.629 163.49 238.437 156.417C240.641 171.112 237.645 185.939 234.687 200.579C234.287 202.559 233.887 204.536 233.501 206.509C230.263 223.065 228.059 240.713 234.255 256.404C234.516 257.065 233.626 257.563 232.93 257.709C227.834 258.771 222.566 259 217.397 258.383C215.18 258.119 212.986 257.701 210.792 257.282C209.14 256.967 207.487 256.652 205.824 256.403C193.305 254.524 180.237 256.474 168.812 261.925C168.354 262.144 167.809 262.042 167.33 261.876C165.016 261.074 163.365 258.937 162.541 256.631C161.718 254.325 161.6 251.836 161.49 249.389L161.029 239.13C161.013 238.761 161.109 238.26 161.478 238.249C181.493 237.624 201.485 236.274 221.402 234.204C220.56 229.492 220.477 224.645 221.156 219.906C221.585 216.915 218.771 214.187 215.776 213.787C212.781 213.387 209.818 214.744 207.331 216.46C206.401 217.102 205.507 217.8 204.614 218.497C203.121 219.663 201.628 220.829 199.966 221.732C198.878 222.323 197.57 222.799 196.428 222.322C195.03 221.738 194.562 220.075 194.143 218.591C194.117 218.497 194.091 218.405 194.065 218.313C193.52 216.401 192.619 214.499 191.036 213.296C189.453 212.094 187.064 211.794 185.501 213.023C184.165 214.074 183.743 215.893 183.519 217.578C183.499 217.728 183.48 217.879 183.46 218.03C183.262 219.579 183.057 221.18 182.132 222.422C181.117 223.786 178.853 224.37 177.74 223.086C175.539 220.545 171.677 220.012 168.435 220.904C165.194 221.796 162.421 223.855 159.732 225.872C158.11 223.333 157.976 219.915 159.394 217.257L159.418 217.213C159.684 216.714 159.991 216.141 159.755 215.633C159.609 215.318 159.287 215.125 158.968 214.988C157.061 214.17 154.624 214.869 153.441 216.573ZM210.749 259.477C211.815 259.69 213.126 260.165 213.192 261.25C213.821 271.601 222.047 280.902 232.16 283.193C242.274 285.484 253.482 280.852 259.379 272.322C265.276 263.792 265.738 251.943 260.902 242.769C255.717 232.931 243.114 227.707 232.489 230.99C231.996 228.816 232.052 226.52 232.649 224.372C232.76 223.974 232.905 223.557 233.227 223.296C233.541 223.042 233.966 222.984 234.368 222.936L264.299 219.331C266.93 219.014 269.568 218.696 272.218 218.675C283.616 218.581 295.004 217.444 306.195 215.284C307.934 238.634 308.752 262.053 308.647 285.467C308.642 286.578 308.304 288.054 307.194 288.086C288.357 288.635 269.668 291.113 250.972 293.592C238.411 295.257 225.846 296.923 213.232 298.004C210.42 298.245 207.589 298.457 204.78 298.19C204.27 298.141 203.696 298.037 203.419 297.607C203.252 297.348 203.234 297.023 203.22 296.715L201.54 259.264C201.518 258.78 201.548 258.197 201.967 257.953C202.244 257.792 202.592 257.85 202.907 257.913L210.749 259.477ZM159.213 250.806C158.915 252.751 158.58 254.94 159.855 256.412C164.608 261.901 169.546 267.766 170.809 274.916C171.399 278.255 171.146 281.692 170.893 285.115C170.575 289.426 170.259 293.715 171.632 297.759C171.668 297.865 171.705 297.971 171.742 298.077C171.994 298.798 172.251 299.532 172.169 300.285C172.076 301.149 171.326 302.017 170.47 301.87L160.534 300.156C157.243 299.588 153.766 299.036 150.641 300.211C150.036 300.438 149.341 300.039 149.017 299.481C148.693 298.922 148.65 298.25 148.622 297.605C148.588 296.826 148.563 296.042 148.537 295.256C148.377 290.309 148.213 285.27 145.924 280.935L138.618 267.106C137.54 265.065 136.436 262.932 136.362 260.625C136.312 259.083 136.728 257.57 137.141 256.084L140.785 242.956C141.552 240.193 142.364 237.341 144.181 235.122C148.595 242.611 149.031 252.299 145.306 260.154C144.962 260.881 146.014 261.629 146.765 261.339C147.515 261.05 147.896 260.228 148.16 259.468C149.22 256.426 149.591 253.219 149.963 250.008C150.264 247.409 150.566 244.808 151.232 242.288C151.64 240.745 152.229 239.169 153.421 238.107C154.613 237.045 156.557 236.681 157.806 237.675C158.761 238.436 159.072 239.737 159.254 240.945C159.734 244.133 159.731 247.393 159.247 250.58C159.236 250.655 159.224 250.731 159.213 250.806ZM176.358 224.89C177.823 226.011 179.258 227.108 181.015 226.905C183.249 226.647 184.641 224.347 185.29 222.194C185.432 221.723 185.558 221.241 185.685 220.757C186.136 219.032 186.592 217.294 187.775 215.996C188.119 215.619 188.615 215.267 189.103 215.415C189.499 215.535 189.73 215.936 189.913 216.306C190.174 216.831 190.42 217.365 190.667 217.899C191.362 219.405 192.058 220.911 193.067 222.22C194.435 223.992 196.563 225.386 198.788 225.142C200.778 224.924 202.333 223.515 203.848 222.142C204.159 221.86 204.468 221.58 204.779 221.312C208.429 218.164 213.182 216.323 218 216.19C217.351 217.814 217.784 219.586 218.209 221.324C218.312 221.743 218.413 222.16 218.5 222.572C219.18 225.823 218.836 229.281 217.529 232.336L185.349 234.813C177.837 235.391 170.305 235.97 162.775 235.705C162.3 235.689 161.812 235.666 161.374 235.479C160.548 235.125 160.057 234.243 159.879 233.362C159.48 231.386 160.391 229.328 161.771 227.858C163.151 226.389 164.953 225.399 166.722 224.434C168.564 223.43 170.609 222.392 172.662 222.821C174.028 223.106 175.203 224.005 176.358 224.89ZM237.295 271.765C232.42 271.665 228.196 267.688 226.748 263.031C226.453 262.081 227.067 261.038 227.915 260.516C228.763 259.994 229.789 259.87 230.778 259.759L237.921 258.957C235.749 254.735 234.202 250.191 233.345 245.521C233.268 245.097 233.197 244.652 233.331 244.243C233.566 243.524 234.341 243.146 235.057 242.905C240.861 240.955 247.83 243.322 251.243 248.406C254.655 253.489 254.208 260.836 250.202 265.467C248.468 267.472 246.196 268.951 243.802 270.09C241.761 271.061 239.555 271.812 237.295 271.765ZM260.429 246.669C261.296 249.534 261.546 252.547 261.666 255.537C259.718 255.242 257.75 255.075 255.781 255.037C255.395 250.007 252.047 245.462 247.646 242.997C243.245 240.531 237.932 239.998 232.959 240.843C232.917 240.133 232.787 239.394 232.658 238.654C232.317 236.701 231.976 234.749 233.238 233.363C234.001 232.526 235.162 232.191 236.276 231.983C241.346 231.039 246.753 232.029 251.16 234.708C255.567 237.388 258.934 241.733 260.429 246.669ZM224.674 262.524C224.666 262.616 224.658 262.708 224.654 262.795C224.621 263.49 224.945 264.128 225.266 264.759C225.352 264.928 225.437 265.097 225.516 265.266C225.888 266.066 226.068 267.121 225.446 267.748C223.944 269.264 222.616 270.954 221.497 272.773C221.221 273.223 220.54 273.26 220.085 272.991C219.63 272.723 219.348 272.245 219.085 271.787C217.423 268.888 215.718 265.855 215.511 262.52C215.485 262.105 215.531 261.603 215.899 261.41C216.061 261.325 216.252 261.322 216.435 261.322L223.871 261.299C224.049 261.298 224.236 261.3 224.39 261.388C224.755 261.595 224.713 262.077 224.674 262.524Z" fill="#274772"/>
</svg>
