<svg width="18" height="18" viewBox="0 0 18 18" fill="none" xmlns="http://www.w3.org/2000/svg">
<path d="M9.95045 8.2002V8.0502H9.80045H8.20044H8.05044V8.2002V13.0002V13.1502H8.20044H9.80045H9.95045V13.0002V8.2002Z" fill="#F6AB60" stroke="#F6AB60" stroke-width="0.3"/>
<path d="M8.99998 0.85C4.49717 0.85 0.85 4.49717 0.85 8.99998C0.85 13.5028 4.49717 17.15 8.99998 17.15C13.5028 17.15 17.15 13.5028 17.15 8.99998C17.15 4.49713 13.5028 0.85 8.99998 0.85ZM8.99998 15.25C5.55483 15.25 2.74997 12.4451 2.74997 8.99998C2.74997 5.55483 5.55483 2.75001 8.99998 2.75001C12.4451 2.75001 15.25 5.55483 15.25 8.99998C15.25 12.4451 12.4451 15.25 8.99998 15.25Z" fill="#F6AB60" stroke="#F6AB60" stroke-width="0.3"/>
<path d="M9.95045 5V4.85H9.80045H8.20044H8.05044V5V6.60001V6.75001H8.20044H9.80045H9.95045V6.60001V5Z" fill="#F6AB60" stroke="#F6AB60" stroke-width="0.3"/>
</svg>
