<svg width="645" height="107" viewBox="0 0 645 107" fill="none" xmlns="http://www.w3.org/2000/svg">
<path d="M0 72.4876H70.2738L93.4999 95.7137H23.2261L0 72.4876Z" fill="#274772"/>
<rect x="0.013916" y="72.5146" width="99.43" height="32.8766" transform="rotate(-45.1689 0.013916 72.5146)" fill="#7BBDED"/>
<path d="M0 2.51292L70.2738 2.21515L93.4999 25.1435H23.2261L0 2.51292Z" fill="#274772"/>
<path d="M166.052 59.9215V48.2657H137.863C141.252 43.8844 145.964 36.9405 152.081 27.5993C158.198 18.1755 162.91 10.6529 166.217 4.94897V2.30367H118.354V13.9595H145.055C135.3 29.666 125.876 44.0498 116.7 57.1109V59.9215H166.052ZM186.712 61.0789C193.904 61.0789 199.112 59.4255 202.419 56.1189C205.725 52.7296 207.379 46.8604 207.379 38.5112C207.379 30.162 205.725 24.458 202.419 21.2341C199.195 18.0101 193.904 16.4395 186.712 16.4395C179.603 16.4395 174.395 18.0101 171.088 21.2341C167.864 24.458 166.211 30.162 166.211 38.5112C166.211 46.8604 167.864 52.7296 171.088 56.1189C174.395 59.4255 179.603 61.0789 186.712 61.0789ZM186.712 26.3593C193.16 26.5247 194.152 27.5167 194.483 38.7592C194.483 43.9671 193.987 47.2737 192.912 48.8444C191.837 50.415 189.771 51.159 186.712 51.159C183.654 51.159 181.587 50.415 180.512 48.8444C179.52 47.2737 179.024 43.9671 179.024 38.7592C179.024 33.3859 179.52 29.9966 180.512 28.5913C181.504 27.1033 183.571 26.3593 186.712 26.3593ZM230.512 61.0789C237.704 61.0789 242.912 59.4255 246.218 56.1189C249.525 52.7296 251.178 46.8604 251.178 38.5112C251.178 30.162 249.525 24.458 246.218 21.2341C242.994 18.0101 237.704 16.4395 230.512 16.4395C223.403 16.4395 218.195 18.0101 214.888 21.2341C211.664 24.458 210.011 30.162 210.011 38.5112C210.011 46.8604 211.664 52.7296 214.888 56.1189C218.195 59.4255 223.403 61.0789 230.512 61.0789ZM230.512 26.3593C236.96 26.5247 237.952 27.5167 238.283 38.7592C238.283 43.9671 237.787 47.2737 236.712 48.8444C235.637 50.415 233.571 51.159 230.512 51.159C227.453 51.159 225.387 50.415 224.312 48.8444C223.32 47.2737 222.824 43.9671 222.824 38.7592C222.824 33.3859 223.32 29.9966 224.312 28.5913C225.304 27.1033 227.371 26.3593 230.512 26.3593ZM268.195 28.5086C269.848 28.0126 271.667 27.7646 273.733 27.7646C276.626 27.7646 278.445 28.426 279.354 29.7486C280.264 30.9886 280.76 33.6339 280.76 37.5192V59.9215H293.408V36.5272C293.408 33.6339 293.16 30.9886 292.581 28.5086C294.648 28.0126 296.714 27.7646 298.946 27.7646C301.839 27.7646 303.658 28.426 304.567 29.7486C305.477 30.9886 305.973 33.6339 305.973 37.5192V59.9215H318.621V36.5272C318.621 29.0873 317.298 23.8794 314.653 20.9034C312.007 17.9275 307.709 16.4395 301.674 16.4395C297.127 16.4395 292.25 17.3488 287.042 19.1674C284.645 17.3488 281.09 16.4395 276.461 16.4395C269.435 16.4395 262.408 17.6795 255.464 20.2421V59.9215H268.195V28.5086ZM351.408 13.9595H370.586V2.30367H318.755V13.9595H337.933V59.9215H351.408V13.9595ZM385.309 16.4395C378.778 16.4395 373.818 18.0928 370.429 21.3994C367.04 24.706 365.387 30.4099 365.387 38.5112C365.387 46.6951 367.205 52.4816 370.843 55.9536C374.562 59.3429 379.605 61.0789 386.136 61.0789C391.674 61.0789 396.799 60.3349 401.429 58.7642L399.527 49.0924C395.973 50.0017 392.005 50.4977 387.789 50.4977C381.176 50.4977 378.53 48.8444 378.448 42.4791H404.653C405.727 20.7381 399.527 16.4395 385.309 16.4395ZM385.888 26.0287C390.93 26.0287 392.501 27.434 392.584 33.1379H378.53C379.274 27.5993 380.68 26.0287 385.888 26.0287ZM420.745 28.5086C422.811 28.0126 424.878 27.7646 426.779 27.7646C429.838 27.7646 431.822 28.426 432.731 29.7486C433.723 30.9886 434.219 33.6339 434.219 37.5192V59.9215H446.95V36.5272C446.95 21.7301 441.659 16.4395 429.507 16.4395C422.15 16.4395 414.958 17.6795 408.014 20.2421V59.9215H420.745V28.5086ZM468.664 16.4395C457.339 16.4395 450.726 22.4741 450.726 38.5938C450.726 47.0257 452.296 52.895 455.52 56.2016C458.744 59.4255 464.118 61.0789 471.558 61.0789C479.08 61.0789 485.445 60.0869 490.736 58.1029V0.237029H478.005V18.2581C475.112 17.0181 471.971 16.4395 468.664 16.4395ZM471.558 50.415C468.416 50.415 466.267 49.671 465.192 48.183C464.118 46.6124 463.539 43.3884 463.539 38.4285C463.539 29.5006 465.44 26.7727 471.392 26.7727C475.112 26.7727 478.005 28.2606 478.005 29.9966V49.423C476.435 50.0843 474.286 50.415 471.558 50.415ZM514.932 16.4395C508.402 16.4395 503.442 18.0928 500.053 21.3994C496.663 24.706 495.01 30.4099 495.01 38.5112C495.01 46.6951 496.829 52.4816 500.466 55.9536C504.186 59.3429 509.228 61.0789 515.759 61.0789C521.298 61.0789 526.423 60.3349 531.052 58.7642L529.151 49.0924C525.596 50.0017 521.628 50.4977 517.412 50.4977C510.799 50.4977 508.154 48.8444 508.071 42.4791H534.276C535.351 20.7381 529.151 16.4395 514.932 16.4395ZM515.511 26.0287C520.554 26.0287 522.124 27.434 522.207 33.1379H508.154C508.898 27.5993 510.303 26.0287 515.511 26.0287ZM560.619 16.4395C555.493 16.4395 552.104 17.9275 550.368 20.9034V17.5968H537.638V59.9215H550.368V32.1459C550.368 29.5006 554.005 27.8473 558.883 27.8473C561.363 27.8473 563.347 28.0953 564.835 28.5086V16.6875C563.347 16.5221 561.941 16.4395 560.619 16.4395Z" fill="#274772"/>
<path d="M117.818 95.7136H135.688V90.8681H123.351V85.6447H132.183V80.9023H123.351V76.6066H135.688V71.7612H117.818V95.7136ZM149.914 88.4626V83.4109H140.876V88.4626H149.914ZM167.9 76.6066H175.873V71.7612H154.326V76.6066H162.299V95.7136H167.9V76.6066ZM187.492 77.6376C184.777 77.6376 182.715 78.3249 181.306 79.6995C179.897 81.0741 179.21 83.4453 179.21 86.8131C179.21 90.2152 179.966 92.6208 181.478 94.0641C183.024 95.4731 185.121 96.1947 187.835 96.1947C190.138 96.1947 192.269 95.8854 194.193 95.2325L193.403 91.2118C191.925 91.5898 190.275 91.796 188.523 91.796C185.774 91.796 184.674 91.1087 184.64 88.4626H195.533C195.98 79.4246 193.403 77.6376 187.492 77.6376ZM187.732 81.6239C189.829 81.6239 190.482 82.2081 190.516 84.5793H184.674C184.983 82.2769 185.567 81.6239 187.732 81.6239ZM207.721 82.6549C208.58 82.4487 209.44 82.3456 210.23 82.3456C211.501 82.3456 212.326 82.6205 212.704 83.1704C213.117 83.6858 213.323 84.7855 213.323 86.4007V95.7136H218.615V85.9883C218.615 79.837 216.416 77.6376 211.364 77.6376C208.306 77.6376 205.316 78.1531 202.429 79.2184V95.7136H207.721V82.6549ZM233.14 77.6376C228.432 77.6376 225.683 80.1462 225.683 86.8474C225.683 90.3527 226.336 92.7926 227.676 94.1672C229.017 95.5074 231.25 96.1947 234.343 96.1947C237.47 96.1947 240.117 95.7824 242.316 94.9576V70.902H237.024V78.3936C235.821 77.8781 234.515 77.6376 233.14 77.6376ZM234.343 91.7616C233.037 91.7616 232.144 91.4524 231.697 90.8338C231.25 90.1808 231.01 88.8406 231.01 86.7787C231.01 83.0673 231.8 81.9332 234.274 81.9332C235.821 81.9332 237.024 82.5518 237.024 83.2735V91.3493C236.371 91.6242 235.477 91.7616 234.343 91.7616ZM257.873 77.6376C255.158 77.6376 253.096 78.3249 251.687 79.6995C250.278 81.0741 249.591 83.4453 249.591 86.8131C249.591 90.2152 250.347 92.6208 251.859 94.0641C253.406 95.4731 255.502 96.1947 258.217 96.1947C260.519 96.1947 262.65 95.8854 264.574 95.2325L263.784 91.2118C262.306 91.5898 260.657 91.796 258.904 91.796C256.155 91.796 255.055 91.1087 255.021 88.4626H265.915C266.361 79.4246 263.784 77.6376 257.873 77.6376ZM258.114 81.6239C260.21 81.6239 260.863 82.2081 260.897 84.5793H255.055C255.364 82.2769 255.949 81.6239 258.114 81.6239ZM282.364 77.6376C280.233 77.6376 278.824 78.2562 278.103 79.4933V78.1187H272.81V95.7136H278.103V84.167C278.103 83.0673 279.615 82.38 281.642 82.38C282.673 82.38 283.498 82.4831 284.116 82.6549V77.7407C283.498 77.672 282.914 77.6376 282.364 77.6376ZM289.906 78.1187V95.7136H295.198V78.1187H289.906ZM295.542 72.9983C295.542 70.902 294.889 70.4896 292.552 70.4896C290.215 70.4896 289.562 70.902 289.562 72.9983C289.562 75.3008 290.215 75.7819 292.552 75.7819C294.889 75.7819 295.542 75.3008 295.542 72.9983ZM308.4 82.6549C309.259 82.4487 310.119 82.3456 310.909 82.3456C312.18 82.3456 313.005 82.6205 313.383 83.1704C313.796 83.6858 314.002 84.7855 314.002 86.4007V95.7136H319.294V85.9883C319.294 79.837 317.095 77.6376 312.043 77.6376C308.984 77.6376 305.995 78.1531 303.108 79.2184V95.7136H308.4V82.6549ZM342.995 78.8747C340.796 78.05 338.149 77.6376 335.022 77.6376C331.964 77.6376 329.73 78.3249 328.39 79.7339C327.049 81.1085 326.362 83.5484 326.362 87.0536C326.362 90.4558 326.946 92.7926 328.08 94.1328C329.249 95.4387 331.036 96.0916 333.441 96.0916C334.953 96.0916 336.362 95.748 337.703 95.0951C337.703 97.535 336.191 98.3597 333.166 98.3597C331.551 98.3597 329.764 98.0848 327.771 97.5693L326.843 101.693C328.733 102.38 330.898 102.724 333.27 102.724C336.294 102.724 338.356 102.346 340.177 101.143C342.067 100.009 342.995 97.7068 342.995 94.3047V78.8747ZM337.703 90.4214C337.703 91.1431 336.5 91.6585 334.885 91.6585C333.648 91.6585 332.788 91.3493 332.342 90.6963C331.895 90.0434 331.689 88.8062 331.689 86.9505C331.826 82.4143 332.41 81.8989 335.022 81.8301C336.019 81.8301 336.912 82.002 337.703 82.3112V90.4214ZM377.344 85.7821C375.145 80.215 373.083 75.5413 371.193 71.7612H363.77V95.7136H369.131V79.5277C370.093 81.6927 371.949 86.435 374.732 93.7204H379.131C381.262 88.2564 383.221 83.514 385.042 79.5277V95.7136H390.403V71.7612H383.324C381.159 76.263 379.165 80.9366 377.344 85.7821ZM414.13 84.4762C414.13 79.3902 411.862 77.6376 406.398 77.6376C403.786 77.6376 401.278 77.9469 398.838 78.5654L399.663 82.758C401.484 82.2081 403.305 81.9332 405.127 81.9332C406.811 81.9332 407.876 82.1394 408.357 82.5518C408.872 82.9642 409.113 83.7889 409.113 85.0604C407.67 84.7512 406.329 84.6137 405.127 84.6137C402.756 84.6137 401.037 84.9917 399.903 85.7821C398.804 86.5381 398.254 88.0502 398.254 90.3527C398.254 92.6551 398.769 94.2016 399.834 94.992C400.9 95.7824 402.859 96.1947 405.78 96.1947C408.838 96.1947 411.622 95.748 414.13 94.8201V84.4762ZM409.113 91.796C408.254 92.1053 407.292 92.2771 406.192 92.2771C404.13 92.2771 403.683 91.9678 403.683 90.1808C403.683 88.5313 404.233 88.222 406.261 88.222C407.532 88.222 408.494 88.2908 409.113 88.4626V91.796ZM428.713 77.6376C424.005 77.6376 421.255 80.1462 421.255 86.8474C421.255 90.3527 421.908 92.7926 423.249 94.1672C424.589 95.5074 426.823 96.1947 429.915 96.1947C433.043 96.1947 435.689 95.7824 437.888 94.9576V70.902H432.596V78.3936C431.393 77.8781 430.087 77.6376 428.713 77.6376ZM429.915 91.7616C428.61 91.7616 427.716 91.4524 427.269 90.8338C426.823 90.1808 426.582 88.8406 426.582 86.7787C426.582 83.0673 427.372 81.9332 429.847 81.9332C431.393 81.9332 432.596 82.5518 432.596 83.2735V91.3493C431.943 91.6242 431.05 91.7616 429.915 91.7616ZM453.445 77.6376C450.731 77.6376 448.669 78.3249 447.26 79.6995C445.851 81.0741 445.163 83.4453 445.163 86.8131C445.163 90.2152 445.919 92.6208 447.431 94.0641C448.978 95.4731 451.074 96.1947 453.789 96.1947C456.091 96.1947 458.222 95.8854 460.147 95.2325L459.356 91.2118C457.878 91.5898 456.229 91.796 454.476 91.796C451.727 91.796 450.627 91.1087 450.593 88.4626H461.487C461.934 79.4246 459.356 77.6376 453.445 77.6376ZM453.686 81.6239C455.782 81.6239 456.435 82.2081 456.469 84.5793H450.627C450.937 82.2769 451.521 81.6239 453.686 81.6239ZM481.195 95.7136H499.065V90.8681H486.728V85.6447H495.56V80.9023H486.728V76.6066H499.065V71.7612H481.195V95.7136ZM520.783 84.4762C520.783 79.3902 518.515 77.6376 513.051 77.6376C510.439 77.6376 507.93 77.9469 505.49 78.5654L506.315 82.758C508.137 82.2081 509.958 81.9332 511.779 81.9332C513.463 81.9332 514.528 82.1394 515.01 82.5518C515.525 82.9642 515.766 83.7889 515.766 85.0604C514.322 84.7512 512.982 84.6137 511.779 84.6137C509.408 84.6137 507.69 84.9917 506.556 85.7821C505.456 86.5381 504.906 88.0502 504.906 90.3527C504.906 92.6551 505.422 94.2016 506.487 94.992C507.552 95.7824 509.511 96.1947 512.432 96.1947C515.491 96.1947 518.274 95.748 520.783 94.8201V84.4762ZM515.766 91.796C514.907 92.1053 513.944 92.2771 512.845 92.2771C510.783 92.2771 510.336 91.9678 510.336 90.1808C510.336 88.5313 510.886 88.222 512.913 88.222C514.185 88.222 515.147 88.2908 515.766 88.4626V91.796ZM541.414 78.5998C539.592 77.9469 537.599 77.6376 535.4 77.6376C530.485 77.6376 527.599 79.2184 527.599 83.6515C527.599 87.2254 529.283 88.4282 533.235 88.8062C536.087 89.0812 536.74 89.4248 536.74 90.4214C536.74 91.6929 535.949 91.9678 533.716 91.9678C532.066 91.9678 530.417 91.7273 528.733 91.2462L527.702 95.2325C529.454 95.8854 531.551 96.1947 533.956 96.1947C538.871 96.1947 541.826 94.5796 541.826 90.1465C541.826 86.6756 540.142 85.3354 535.915 84.7855C533.2 84.4762 532.719 84.2013 532.719 83.2735C532.719 82.002 533.372 81.7614 535.193 81.7614C536.809 81.7614 538.561 82.002 540.383 82.5174L541.414 78.5998ZM558.953 78.1531C558.162 81.4177 556.925 85.4728 555.207 90.387C554.004 85.7477 552.698 81.6927 551.358 78.1531H546.031C548.403 84.4762 550.43 90.6276 552.08 96.5728C551.014 98.9439 550.052 100.868 549.193 102.312H555.001C558.781 94.5108 561.839 86.435 564.21 78.1531H558.953Z" fill="#274772"/>
</svg>
