<svg width="366" height="61" viewBox="0 0 366 61" fill="none" xmlns="http://www.w3.org/2000/svg">
<path d="M0 40.9976H39.8763L53.0557 54.177H13.1795L0 40.9976Z" fill="#274772"/>
<rect x="0.00787354" y="41.0129" width="56.4207" height="18.6555" transform="rotate(-45.1689 0.00787354 41.0129)" fill="#7BBDED"/>
<path d="M0 1.29079L39.8763 1.12183L53.0557 14.1323H13.1795L0 1.29079Z" fill="#274772"/>
<path d="M94.2247 34.6299V28.0159H78.2291C80.1523 25.5298 82.8261 21.5895 86.2973 16.2889C89.7685 10.9414 92.4422 6.67279 94.3185 3.43614V1.93509H67.1589V8.5491H82.3101C76.775 17.4616 71.4275 25.6236 66.2207 33.035V34.6299H94.2247ZM105.948 35.2866C110.029 35.2866 112.985 34.3484 114.861 32.4721C116.737 30.5489 117.675 27.2184 117.675 22.4807C117.675 17.743 116.737 14.5064 114.861 12.677C113.031 10.8476 110.029 9.95634 105.948 9.95634C101.914 9.95634 98.9591 10.8476 97.0828 12.677C95.2534 14.5064 94.3152 17.743 94.3152 22.4807C94.3152 27.2184 95.2534 30.5489 97.0828 32.4721C98.9591 34.3484 101.914 35.2866 105.948 35.2866ZM105.948 15.5853C109.607 15.6791 110.17 16.242 110.358 22.6215C110.358 25.5767 110.076 27.453 109.466 28.3442C108.857 29.2355 107.684 29.6576 105.948 29.6576C104.213 29.6576 103.04 29.2355 102.43 28.3442C101.867 27.453 101.586 25.5767 101.586 22.6215C101.586 19.5725 101.867 17.6492 102.43 16.8518C102.993 16.0075 104.166 15.5853 105.948 15.5853ZM130.802 35.2866C134.883 35.2866 137.838 34.3484 139.715 32.4721C141.591 30.5489 142.529 27.2184 142.529 22.4807C142.529 17.743 141.591 14.5064 139.715 12.677C137.885 10.8476 134.883 9.95634 130.802 9.95634C126.768 9.95634 123.813 10.8476 121.937 12.677C120.107 14.5064 119.169 17.743 119.169 22.4807C119.169 27.2184 120.107 30.5489 121.937 32.4721C123.813 34.3484 126.768 35.2866 130.802 35.2866ZM130.802 15.5853C134.461 15.6791 135.024 16.242 135.212 22.6215C135.212 25.5767 134.93 27.453 134.32 28.3442C133.711 29.2355 132.538 29.6576 130.802 29.6576C129.067 29.6576 127.894 29.2355 127.284 28.3442C126.721 27.453 126.44 25.5767 126.44 22.6215C126.44 19.5725 126.721 17.6492 127.284 16.8518C127.847 16.0075 129.02 15.5853 130.802 15.5853ZM152.185 16.8049C153.123 16.5234 154.155 16.3827 155.328 16.3827C156.969 16.3827 158.001 16.758 158.517 17.5085C159.033 18.2121 159.315 19.7132 159.315 21.9178V34.6299H166.492V21.355C166.492 19.7132 166.351 18.2121 166.023 16.8049C167.195 16.5234 168.368 16.3827 169.635 16.3827C171.276 16.3827 172.308 16.758 172.824 17.5085C173.34 18.2121 173.622 19.7132 173.622 21.9178V34.6299H180.799V21.355C180.799 17.1332 180.048 14.178 178.547 12.4894C177.046 10.8007 174.607 9.95634 171.183 9.95634C168.603 9.95634 165.835 10.4723 162.88 11.5043C161.52 10.4723 159.503 9.95634 156.876 9.95634C152.889 9.95634 148.901 10.66 144.961 12.1141V34.6299H152.185V16.8049ZM199.404 8.5491H210.286V1.93509H180.875V8.5491H191.758V34.6299H199.404V8.5491ZM218.641 9.95634C214.935 9.95634 212.12 10.8945 210.197 12.7708C208.274 14.6471 207.336 17.8838 207.336 22.4807C207.336 27.1246 208.368 30.4082 210.432 32.3783C212.543 34.3015 215.404 35.2866 219.11 35.2866C222.252 35.2866 225.161 34.8644 227.788 33.9732L226.709 28.485C224.692 29.0009 222.44 29.2824 220.048 29.2824C216.295 29.2824 214.794 28.3442 214.747 24.7323H229.617C230.227 12.3955 226.709 9.95634 218.641 9.95634ZM218.969 15.3977C221.83 15.3977 222.722 16.1951 222.768 19.4317H214.794C215.216 16.2889 216.014 15.3977 218.969 15.3977ZM238.748 16.8049C239.921 16.5234 241.094 16.3827 242.173 16.3827C243.908 16.3827 245.034 16.758 245.55 17.5085C246.113 18.2121 246.394 19.7132 246.394 21.9178V34.6299H253.618V21.355C253.618 12.9584 250.616 9.95634 243.72 9.95634C239.546 9.95634 235.465 10.66 231.524 12.1141V34.6299H238.748V16.8049ZM265.94 9.95634C259.513 9.95634 255.761 13.3806 255.761 22.5276C255.761 27.3123 256.652 30.6427 258.481 32.519C260.311 34.3484 263.36 35.2866 267.582 35.2866C271.85 35.2866 275.462 34.7237 278.464 33.5979V0.762391H271.24V10.9883C269.599 10.2847 267.816 9.95634 265.94 9.95634ZM267.582 29.2355C265.799 29.2355 264.579 28.8133 263.97 27.969C263.36 27.0777 263.032 25.2483 263.032 22.4338C263.032 17.3678 264.11 15.8198 267.488 15.8198C269.599 15.8198 271.24 16.6642 271.24 17.6492V28.6726C270.349 29.0478 269.13 29.2355 267.582 29.2355ZM292.194 9.95634C288.489 9.95634 285.674 10.8945 283.751 12.7708C281.828 14.6471 280.889 17.8838 280.889 22.4807C280.889 27.1246 281.921 30.4082 283.985 32.3783C286.096 34.3015 288.958 35.2866 292.663 35.2866C295.806 35.2866 298.714 34.8644 301.341 33.9732L300.262 28.485C298.245 29.0009 295.994 29.2824 293.602 29.2824C289.849 29.2824 288.348 28.3442 288.301 24.7323H303.171C303.781 12.3955 300.262 9.95634 292.194 9.95634ZM292.523 15.3977C295.384 15.3977 296.275 16.1951 296.322 19.4317H288.348C288.77 16.2889 289.567 15.3977 292.523 15.3977ZM318.119 9.95634C315.21 9.95634 313.287 10.8007 312.302 12.4894V10.613H305.078V34.6299H312.302V18.8688C312.302 17.3678 314.366 16.4296 317.134 16.4296C318.541 16.4296 319.667 16.5703 320.511 16.8049V10.0971C319.667 10.0032 318.869 9.95634 318.119 9.95634Z" fill="#274772"/>
<path d="M66.8549 54.5863H76.995V51.8368H69.9944V48.8727H75.006V46.1817H69.9944V43.7442H76.995V40.9947H66.8549V54.5863ZM85.0676 50.4718V47.6052H79.939V50.4718H85.0676ZM95.2737 43.7442H99.7977V40.9947H87.5711V43.7442H92.0951V54.5863H95.2737V43.7442ZM106.391 44.3292C104.85 44.3292 103.68 44.7192 102.881 45.4992C102.081 46.2792 101.691 47.6247 101.691 49.5358C101.691 51.4663 102.12 52.8313 102.978 53.6503C103.856 54.4498 105.045 54.8593 106.586 54.8593C107.892 54.8593 109.101 54.6838 110.193 54.3133L109.745 52.0318C108.906 52.2463 107.97 52.3633 106.976 52.3633C105.416 52.3633 104.792 51.9733 104.772 50.4718H110.954C111.207 45.3432 109.745 44.3292 106.391 44.3292ZM106.527 46.5912C107.717 46.5912 108.087 46.9227 108.107 48.2682H104.792C104.967 46.9617 105.299 46.5912 106.527 46.5912ZM117.87 47.1762C118.357 47.0592 118.845 47.0007 119.293 47.0007C120.015 47.0007 120.483 47.1567 120.697 47.4687C120.931 47.7612 121.048 48.3852 121.048 49.3018V54.5863H124.051V49.0677C124.051 45.5772 122.803 44.3292 119.937 44.3292C118.201 44.3292 116.505 44.6217 114.867 45.2262V54.5863H117.87V47.1762ZM132.294 44.3292C129.622 44.3292 128.062 45.7527 128.062 49.5553C128.062 51.5443 128.433 52.9288 129.193 53.7088C129.954 54.4693 131.221 54.8593 132.976 54.8593C134.751 54.8593 136.252 54.6253 137.5 54.1573V40.5072H134.497V44.7582C133.815 44.4657 133.074 44.3292 132.294 44.3292ZM132.976 52.3438C132.235 52.3438 131.728 52.1683 131.475 51.8173C131.221 51.4468 131.085 50.6863 131.085 49.5163C131.085 47.4102 131.533 46.7667 132.937 46.7667C133.815 46.7667 134.497 47.1177 134.497 47.5272V52.1098C134.127 52.2658 133.62 52.3438 132.976 52.3438ZM146.328 44.3292C144.788 44.3292 143.618 44.7192 142.818 45.4992C142.019 46.2792 141.628 47.6247 141.628 49.5358C141.628 51.4663 142.058 52.8313 142.916 53.6503C143.793 54.4498 144.983 54.8593 146.523 54.8593C147.83 54.8593 149.039 54.6838 150.131 54.3133L149.682 52.0318C148.844 52.2463 147.908 52.3633 146.913 52.3633C145.353 52.3633 144.729 51.9733 144.71 50.4718H150.891C151.145 45.3432 149.682 44.3292 146.328 44.3292ZM146.465 46.5912C147.654 46.5912 148.025 46.9227 148.044 48.2682H144.729C144.905 46.9617 145.236 46.5912 146.465 46.5912ZM160.225 44.3292C159.016 44.3292 158.217 44.6802 157.807 45.3822V44.6022H154.804V54.5863H157.807V48.0342C157.807 47.4102 158.665 47.0202 159.816 47.0202C160.401 47.0202 160.869 47.0787 161.22 47.1762V44.3877C160.869 44.3487 160.537 44.3292 160.225 44.3292ZM164.505 44.6022V54.5863H167.508V44.6022H164.505ZM167.703 41.6967C167.703 40.5072 167.332 40.2732 166.006 40.2732C164.68 40.2732 164.31 40.5072 164.31 41.6967C164.31 43.0032 164.68 43.2762 166.006 43.2762C167.332 43.2762 167.703 43.0032 167.703 41.6967ZM174.999 47.1762C175.487 47.0592 175.974 47.0007 176.423 47.0007C177.144 47.0007 177.612 47.1567 177.827 47.4687C178.061 47.7612 178.178 48.3852 178.178 49.3018V54.5863H181.181V49.0677C181.181 45.5772 179.933 44.3292 177.066 44.3292C175.331 44.3292 173.634 44.6217 171.996 45.2262V54.5863H174.999V47.1762ZM194.63 45.0312C193.382 44.5632 191.88 44.3292 190.106 44.3292C188.37 44.3292 187.103 44.7192 186.342 45.5187C185.582 46.2987 185.192 47.6832 185.192 49.6723C185.192 51.6028 185.523 52.9288 186.167 53.6893C186.83 54.4303 187.844 54.8008 189.209 54.8008C190.067 54.8008 190.866 54.6058 191.627 54.2353C191.627 55.6198 190.769 56.0878 189.053 56.0878C188.136 56.0878 187.122 55.9318 185.991 55.6393L185.465 57.9793C186.537 58.3693 187.766 58.5643 189.111 58.5643C190.827 58.5643 191.997 58.3498 193.031 57.6673C194.103 57.0238 194.63 55.7173 194.63 53.7868V45.0312ZM191.627 51.5833C191.627 51.9928 190.944 52.2853 190.028 52.2853C189.326 52.2853 188.838 52.1098 188.585 51.7393C188.331 51.3688 188.214 50.6668 188.214 49.6138C188.292 47.0397 188.624 46.7472 190.106 46.7082C190.671 46.7082 191.178 46.8057 191.627 46.9812V51.5833ZM214.121 48.9507C212.873 45.7917 211.703 43.1397 210.63 40.9947H206.418V54.5863H209.46V45.4017C210.006 46.6302 211.059 49.3213 212.639 53.4553H215.135C216.344 50.3548 217.455 47.6637 218.489 45.4017V54.5863H221.531V40.9947H217.514C216.285 43.5492 215.154 46.2012 214.121 48.9507ZM234.995 48.2097C234.995 45.3237 233.708 44.3292 230.607 44.3292C229.125 44.3292 227.702 44.5047 226.317 44.8557L226.785 47.2347C227.819 46.9227 228.852 46.7667 229.886 46.7667C230.841 46.7667 231.446 46.8837 231.719 47.1177C232.011 47.3517 232.148 47.8197 232.148 48.5412C231.329 48.3657 230.568 48.2877 229.886 48.2877C228.54 48.2877 227.565 48.5022 226.922 48.9507C226.298 49.3798 225.986 50.2378 225.986 51.5443C225.986 52.8508 226.278 53.7283 226.883 54.1768C227.487 54.6253 228.599 54.8593 230.256 54.8593C231.992 54.8593 233.571 54.6058 234.995 54.0793V48.2097ZM232.148 52.3633C231.66 52.5388 231.114 52.6363 230.49 52.6363C229.32 52.6363 229.067 52.4608 229.067 51.4468C229.067 50.5108 229.379 50.3353 230.529 50.3353C231.251 50.3353 231.797 50.3743 232.148 50.4718V52.3633ZM243.27 44.3292C240.598 44.3292 239.038 45.7527 239.038 49.5553C239.038 51.5443 239.409 52.9288 240.169 53.7088C240.93 54.4693 242.197 54.8593 243.952 54.8593C245.727 54.8593 247.228 54.6253 248.476 54.1573V40.5072H245.473V44.7582C244.791 44.4657 244.05 44.3292 243.27 44.3292ZM243.952 52.3438C243.211 52.3438 242.704 52.1683 242.451 51.8173C242.197 51.4468 242.061 50.6863 242.061 49.5163C242.061 47.4102 242.509 46.7667 243.913 46.7667C244.791 46.7667 245.473 47.1177 245.473 47.5272V52.1098C245.103 52.2658 244.596 52.3438 243.952 52.3438ZM257.304 44.3292C255.763 44.3292 254.593 44.7192 253.794 45.4992C252.994 46.2792 252.604 47.6247 252.604 49.5358C252.604 51.4663 253.033 52.8313 253.891 53.6503C254.769 54.4498 255.958 54.8593 257.499 54.8593C258.805 54.8593 260.014 54.6838 261.106 54.3133L260.658 52.0318C259.819 52.2463 258.883 52.3633 257.889 52.3633C256.329 52.3633 255.705 51.9733 255.685 50.4718H261.867C262.12 45.3432 260.658 44.3292 257.304 44.3292ZM257.44 46.5912C258.63 46.5912 259 46.9227 259.02 48.2682H255.705C255.88 46.9617 256.212 46.5912 257.44 46.5912ZM273.05 54.5863H283.19V51.8368H276.19V48.8727H281.201V46.1817H276.19V43.7442H283.19V40.9947H273.05V54.5863ZM295.514 48.2097C295.514 45.3237 294.227 44.3292 291.127 44.3292C289.645 44.3292 288.221 44.5047 286.837 44.8557L287.305 47.2347C288.338 46.9227 289.372 46.7667 290.405 46.7667C291.361 46.7667 291.965 46.8837 292.238 47.1177C292.531 47.3517 292.667 47.8197 292.667 48.5412C291.848 48.3657 291.088 48.2877 290.405 48.2877C289.06 48.2877 288.085 48.5022 287.441 48.9507C286.817 49.3798 286.505 50.2378 286.505 51.5443C286.505 52.8508 286.798 53.7283 287.402 54.1768C288.007 54.6253 289.118 54.8593 290.776 54.8593C292.511 54.8593 294.091 54.6058 295.514 54.0793V48.2097ZM292.667 52.3633C292.18 52.5388 291.634 52.6363 291.01 52.6363C289.84 52.6363 289.586 52.4608 289.586 51.4468C289.586 50.5108 289.898 50.3353 291.049 50.3353C291.77 50.3353 292.316 50.3743 292.667 50.4718V52.3633ZM307.221 44.8752C306.187 44.5047 305.056 44.3292 303.808 44.3292C301.02 44.3292 299.382 45.2262 299.382 47.7417C299.382 49.7698 300.337 50.4523 302.58 50.6668C304.198 50.8228 304.569 51.0178 304.569 51.5833C304.569 52.3048 304.12 52.4608 302.853 52.4608C301.917 52.4608 300.981 52.3243 300.025 52.0513L299.44 54.3133C300.435 54.6838 301.624 54.8593 302.989 54.8593C305.778 54.8593 307.455 53.9428 307.455 51.4273C307.455 49.4578 306.499 48.6972 304.101 48.3852C302.56 48.2097 302.287 48.0537 302.287 47.5272C302.287 46.8057 302.658 46.6692 303.691 46.6692C304.608 46.6692 305.602 46.8057 306.636 47.0982L307.221 44.8752ZM317.173 44.6217C316.725 46.4742 316.023 48.7752 315.048 51.5638C314.365 48.9312 313.624 46.6302 312.864 44.6217H309.841C311.187 48.2097 312.337 51.7003 313.273 55.0738C312.669 56.4193 312.123 57.5113 311.635 58.3303H314.931C317.076 53.9038 318.811 49.3213 320.157 44.6217H317.173Z" fill="#274772"/>
</svg>
