<svg width="22" height="22" viewBox="0 0 22 22" fill="none" xmlns="http://www.w3.org/2000/svg">
<mask id="path-1-outside-1" maskUnits="userSpaceOnUse" x="0.384766" y="0" width="21" height="22" fill="black">
<rect fill="white" x="0.384766" width="21" height="22"/>
<path d="M19.9473 14.0156C19.4629 13.7813 18.877 13.9883 18.6426 14.4727C17.9941 15.8203 16.9863 16.9609 15.7246 17.7734C14.4316 18.6055 12.9316 19.0469 11.3848 19.0469C6.94727 19.0469 3.33789 15.4375 3.33789 11C3.33789 6.5625 6.94727 2.95312 11.3848 2.95312C12.9316 2.95312 14.4316 3.39453 15.7285 4.22266C16.9902 5.03125 17.998 6.17578 18.6465 7.52344C18.8809 8.00781 19.4629 8.21484 19.9512 7.98047C20.4355 7.74609 20.6426 7.16406 20.4082 6.67578C19.6035 5 18.3535 3.58203 16.7832 2.57813C15.1738 1.54688 13.3066 1 11.3848 1C8.71289 1 6.20117 2.03906 4.31445 3.92969C2.42383 5.81641 1.38477 8.32812 1.38477 11C1.38477 13.6719 2.42383 16.1836 4.31445 18.0703C6.20508 19.9609 8.71289 21 11.3848 21C13.3066 21 15.1738 20.4531 16.7832 19.418C18.3496 18.4102 19.6035 16.9922 20.4082 15.3203C20.6387 14.832 20.4355 14.25 19.9473 14.0156V14.0156Z"/>
</mask>
<path d="M19.9473 14.0156C19.4629 13.7813 18.877 13.9883 18.6426 14.4727C17.9941 15.8203 16.9863 16.9609 15.7246 17.7734C14.4316 18.6055 12.9316 19.0469 11.3848 19.0469C6.94727 19.0469 3.33789 15.4375 3.33789 11C3.33789 6.5625 6.94727 2.95312 11.3848 2.95312C12.9316 2.95312 14.4316 3.39453 15.7285 4.22266C16.9902 5.03125 17.998 6.17578 18.6465 7.52344C18.8809 8.00781 19.4629 8.21484 19.9512 7.98047C20.4355 7.74609 20.6426 7.16406 20.4082 6.67578C19.6035 5 18.3535 3.58203 16.7832 2.57813C15.1738 1.54688 13.3066 1 11.3848 1C8.71289 1 6.20117 2.03906 4.31445 3.92969C2.42383 5.81641 1.38477 8.32812 1.38477 11C1.38477 13.6719 2.42383 16.1836 4.31445 18.0703C6.20508 19.9609 8.71289 21 11.3848 21C13.3066 21 15.1738 20.4531 16.7832 19.418C18.3496 18.4102 19.6035 16.9922 20.4082 15.3203C20.6387 14.832 20.4355 14.25 19.9473 14.0156V14.0156Z" fill="#93A6BF"/>
<path d="M19.9473 14.0156C19.4629 13.7813 18.877 13.9883 18.6426 14.4727C17.9941 15.8203 16.9863 16.9609 15.7246 17.7734C14.4316 18.6055 12.9316 19.0469 11.3848 19.0469C6.94727 19.0469 3.33789 15.4375 3.33789 11C3.33789 6.5625 6.94727 2.95312 11.3848 2.95312C12.9316 2.95312 14.4316 3.39453 15.7285 4.22266C16.9902 5.03125 17.998 6.17578 18.6465 7.52344C18.8809 8.00781 19.4629 8.21484 19.9512 7.98047C20.4355 7.74609 20.6426 7.16406 20.4082 6.67578C19.6035 5 18.3535 3.58203 16.7832 2.57813C15.1738 1.54688 13.3066 1 11.3848 1C8.71289 1 6.20117 2.03906 4.31445 3.92969C2.42383 5.81641 1.38477 8.32812 1.38477 11C1.38477 13.6719 2.42383 16.1836 4.31445 18.0703C6.20508 19.9609 8.71289 21 11.3848 21C13.3066 21 15.1738 20.4531 16.7832 19.418C18.3496 18.4102 19.6035 16.9922 20.4082 15.3203C20.6387 14.832 20.4355 14.25 19.9473 14.0156V14.0156Z" stroke="#93A6BF" mask="url(#path-1-outside-1)"/>
<mask id="path-2-outside-2" maskUnits="userSpaceOnUse" x="5.81835" y="5.91992" width="11" height="10" fill="black">
<rect fill="white" x="5.81835" y="5.91992" width="11" height="10"/>
<path d="M11.9043 14.8008C12.0957 14.9922 12.3457 15.0859 12.5957 15.0859C12.8457 15.0859 13.0957 14.9922 13.2871 14.8008L15.7441 12.3437C16.1035 11.9844 16.2988 11.5078 16.2988 11.0039C16.2988 10.5 16.0996 10.0195 15.7441 9.66406L13.2871 7.20703C12.9043 6.82421 12.2871 6.82421 11.9043 7.20703C11.5215 7.58984 11.5215 8.20703 11.9043 8.58984L13.3457 10.0312H7.79491C7.25585 10.0312 6.81835 10.4687 6.81835 11.0078C6.81835 11.5469 7.25585 11.9844 7.79491 11.9844H13.3496L11.9082 13.4258C11.5254 13.8008 11.5254 14.418 11.9043 14.8008V14.8008Z"/>
</mask>
<path d="M11.9043 14.8008C12.0957 14.9922 12.3457 15.0859 12.5957 15.0859C12.8457 15.0859 13.0957 14.9922 13.2871 14.8008L15.7441 12.3437C16.1035 11.9844 16.2988 11.5078 16.2988 11.0039C16.2988 10.5 16.0996 10.0195 15.7441 9.66406L13.2871 7.20703C12.9043 6.82421 12.2871 6.82421 11.9043 7.20703C11.5215 7.58984 11.5215 8.20703 11.9043 8.58984L13.3457 10.0312H7.79491C7.25585 10.0312 6.81835 10.4687 6.81835 11.0078C6.81835 11.5469 7.25585 11.9844 7.79491 11.9844H13.3496L11.9082 13.4258C11.5254 13.8008 11.5254 14.418 11.9043 14.8008V14.8008Z" fill="#93A6BF"/>
<path d="M11.9043 14.8008C12.0957 14.9922 12.3457 15.0859 12.5957 15.0859C12.8457 15.0859 13.0957 14.9922 13.2871 14.8008L15.7441 12.3437C16.1035 11.9844 16.2988 11.5078 16.2988 11.0039C16.2988 10.5 16.0996 10.0195 15.7441 9.66406L13.2871 7.20703C12.9043 6.82421 12.2871 6.82421 11.9043 7.20703C11.5215 7.58984 11.5215 8.20703 11.9043 8.58984L13.3457 10.0312H7.79491C7.25585 10.0312 6.81835 10.4687 6.81835 11.0078C6.81835 11.5469 7.25585 11.9844 7.79491 11.9844H13.3496L11.9082 13.4258C11.5254 13.8008 11.5254 14.418 11.9043 14.8008V14.8008Z" stroke="#93A6BF" mask="url(#path-2-outside-2)"/>
</svg>
