<svg width="24" height="24" viewBox="0 0 24 24" fill="none" xmlns="http://www.w3.org/2000/svg">
<g clip-path="url(#clip0)">
<path d="M23.4955 8.47768L15.5219 0.504168C14.8504 -0.167405 13.7578 -0.167405 13.0862 0.504168L8.87361 4.71674C8.20204 5.38832 8.20204 6.48097 8.87361 7.15254L11.4066 9.6856L10.6734 10.4189L10.2516 10.8406L13.1591 13.748L14.3141 12.593L16.8471 15.1261C17.1723 15.4514 17.605 15.6305 18.065 15.6305C18.525 15.6305 18.9576 15.4514 19.2829 15.1261L23.4955 10.9135C23.8208 10.5882 24 10.1557 24 9.69553C24 9.23541 23.8207 8.80295 23.4955 8.47768Z" fill="white"/>
<path d="M9.25721 11.8345L-6.10352e-05 21.0918L2.90732 23.9992L12.1646 14.7419L9.25721 11.8345Z" fill="white"/>
</g>
<defs>
<clipPath id="clip0">
<rect width="24" height="24" fill="white"/>
</clipPath>
</defs>
</svg>
