<svg width="21" height="23" viewBox="0 0 21 23" fill="none" xmlns="http://www.w3.org/2000/svg">
<path d="M10.2655 0C6.98933 0 4.31122 2.67811 4.31122 5.95428C4.31122 9.23045 6.98933 11.9086 10.2655 11.9086C13.5417 11.9086 16.2198 9.23045 16.2198 5.95428C16.2198 2.67811 13.5417 0 10.2655 0Z" fill="#BAC8DB"/>
<path d="M20.484 16.6668C20.328 16.2768 20.12 15.9128 19.886 15.5747C18.6899 13.8066 16.8439 12.6366 14.7638 12.3506C14.5038 12.3246 14.2178 12.3766 14.0097 12.5326C12.9177 13.3386 11.6176 13.7546 10.2655 13.7546C8.91344 13.7546 7.6134 13.3386 6.52135 12.5326C6.31332 12.3766 6.0273 12.2986 5.76731 12.3506C3.68722 12.6366 1.81515 13.8066 0.645105 15.5747C0.411096 15.9128 0.203067 16.3028 0.0470941 16.6668C-0.0308922 16.8228 -0.00491336 17.0048 0.0730729 17.1608C0.281103 17.5248 0.54109 17.8889 0.775099 18.2009C1.1391 18.6949 1.52913 19.1369 1.97117 19.5529C2.33517 19.9169 2.75118 20.255 3.16724 20.593C5.22131 22.1271 7.69144 22.9331 10.2396 22.9331C12.7877 22.9331 15.2578 22.127 17.3119 20.593C17.7279 20.281 18.1439 19.9169 18.5079 19.5529C18.924 19.1369 19.34 18.6949 19.704 18.2009C19.964 17.8629 20.1981 17.5248 20.406 17.1608C20.536 17.0048 20.562 16.8228 20.484 16.6668Z" fill="#BAC8DB"/>
</svg>
