<svg width="26" height="26" viewBox="0 0 26 26" fill="none" xmlns="http://www.w3.org/2000/svg">
<mask id="path-1-inside-1" fill="white">
<path d="M17.2796 4.61774C13.789 1.12742 8.10789 1.12742 4.61734 4.61774C1.12755 8.10881 1.12755 13.7888 4.61734 17.2799C7.72577 20.3873 12.567 20.7203 16.0553 18.2938C16.1287 18.641 16.2966 18.9725 16.5668 19.2426L21.6501 24.3256C22.3909 25.0648 23.588 25.0648 24.325 24.3256C25.065 23.5856 25.065 22.3886 24.325 21.6509L19.2416 16.5664C18.973 16.2985 18.6408 16.1298 18.2935 16.0564C20.7217 12.5676 20.3888 7.72747 17.2796 4.61774ZM15.6747 15.6751C13.0687 18.2809 8.82749 18.2809 6.22225 15.6751C3.61777 13.0693 3.61777 8.82912 6.22225 6.2233C8.82749 3.61823 13.0687 3.61823 15.6747 6.2233C18.2806 8.82912 18.2806 13.0693 15.6747 15.6751Z"/>
</mask>
<path d="M17.2796 4.61774C13.789 1.12742 8.10789 1.12742 4.61734 4.61774C1.12755 8.10881 1.12755 13.7888 4.61734 17.2799C7.72577 20.3873 12.567 20.7203 16.0553 18.2938C16.1287 18.641 16.2966 18.9725 16.5668 19.2426L21.6501 24.3256C22.3909 25.0648 23.588 25.0648 24.325 24.3256C25.065 23.5856 25.065 22.3886 24.325 21.6509L19.2416 16.5664C18.973 16.2985 18.6408 16.1298 18.2935 16.0564C20.7217 12.5676 20.3888 7.72747 17.2796 4.61774ZM15.6747 15.6751C13.0687 18.2809 8.82749 18.2809 6.22225 15.6751C3.61777 13.0693 3.61777 8.82912 6.22225 6.2233C8.82749 3.61823 13.0687 3.61823 15.6747 6.2233C18.2806 8.82912 18.2806 13.0693 15.6747 15.6751Z" fill="white" stroke="white" stroke-width="2" mask="url(#path-1-inside-1)"/>
</svg>
