<svg width="18" height="20" viewBox="0 0 18 20" fill="none" xmlns="http://www.w3.org/2000/svg">
<path d="M16.9242 11.3997L16.5625 11.1908C16.1322 10.9426 15.875 10.4971 15.875 10C15.875 9.50294 16.1322 9.05744 16.5625 8.80925L16.9242 8.60025C17.9114 8.02962 18.249 6.77012 17.679 5.78288L16.9915 4.59212C16.423 3.60694 15.1587 3.26869 14.1742 3.83725L13.8125 4.04556C13.3822 4.29444 12.8672 4.29444 12.4375 4.04556C12.0072 3.79669 11.75 3.35187 11.75 2.85481V2.4375C11.75 1.30037 10.8247 0.375 9.68755 0.375H8.31255C7.17542 0.375 6.25005 1.30037 6.25005 2.4375V2.8555C6.25005 3.35256 5.99292 3.79738 5.56255 4.04625C5.13217 4.29444 4.61792 4.29513 4.18755 4.04625L3.82592 3.83725C2.84142 3.26869 1.57711 3.60694 1.00786 4.59212L0.320359 5.78288C-0.249579 6.77012 0.0879837 8.03031 1.07523 8.60025L1.43755 8.80925C1.86792 9.05744 2.12505 9.50294 2.12505 10C2.12505 10.4971 1.86792 10.9426 1.43755 11.1908L1.07592 11.3997C0.0886711 11.9697 -0.248891 13.2299 0.321046 14.2171L1.00855 15.4079C1.5778 16.3931 2.84211 16.7313 3.82592 16.1628L4.18755 15.9544C4.61792 15.7049 5.13217 15.7062 5.56255 15.9544C5.99292 16.2033 6.25005 16.6481 6.25005 17.1452V17.5625C6.25005 18.6996 7.17542 19.625 8.31255 19.625H9.68755C10.8247 19.625 11.75 18.6996 11.75 17.5625V17.1445C11.75 16.6474 12.0072 16.2026 12.4375 15.9537C12.8672 15.7056 13.3822 15.7049 13.8125 15.9537L14.1742 16.1628C15.1587 16.7306 16.423 16.3924 16.9915 15.4079L17.679 14.2171C18.249 13.2299 17.9114 11.9697 16.9242 11.3997ZM9.00005 13.4375C7.10461 13.4375 5.56255 11.8954 5.56255 10C5.56255 8.10456 7.10461 6.5625 9.00005 6.5625C10.8955 6.5625 12.4375 8.10456 12.4375 10C12.4375 11.8954 10.8955 13.4375 9.00005 13.4375Z" fill="#BAC8DB"/>
</svg>
