<svg width="310" height="310" viewBox="0 0 310 310" fill="none" xmlns="http://www.w3.org/2000/svg">
<path fill-rule="evenodd" clip-rule="evenodd" d="M191.956 63.8933C192.441 45.8655 169.625 15.0898 132.247 20.4519C91.3227 26.3226 61.6284 73.3455 67.5438 125.902L67.7691 127.921C71.4006 160.747 72.614 186.606 66.3395 223.018C61.6483 250.241 95.0077 310.513 168.8 300.978C242.592 291.444 283.125 202.959 248.302 161.209C201.791 105.443 190.893 103.35 191.956 63.8933Z" fill="#EAF0F9"/>
<path fill-rule="evenodd" clip-rule="evenodd" d="M148.132 116.453C146.866 113.195 144.468 110.534 142.392 107.722C136.842 100.204 133.4 91.1453 132.557 81.8378C132.106 76.8691 133.815 52.6178 142.854 46.9286C138.392 45.5547 133.815 44.1222 130.155 41.2234C126.495 38.3246 123.905 33.5855 124.89 29.0216C126.381 22.114 135.352 19.1484 142.044 21.4188C148.736 23.6892 153.55 29.433 158.004 34.9192C162.263 34.5605 163.32 28.2851 167.21 26.5142C169.834 25.3197 172.884 26.5444 175.428 27.9013C182.83 31.8501 189.764 37.2648 193.678 44.6856C197.592 52.1064 197.931 61.7932 192.944 68.5397C194.76 66.46 198.525 69.0466 198.31 71.7997C198.095 74.5528 195.663 76.5506 193.341 78.0456C191.019 79.5405 188.425 81.0904 187.507 83.6951C185.198 90.2517 181.529 96.3259 176.8 101.421C173.911 104.534 170.594 107.335 168.451 111.002C166.308 114.669 165.593 119.597 168.092 123.031C171.416 119.494 177.144 118.499 181.466 120.709C185.787 122.919 188.334 128.145 187.412 132.911C193.434 133.428 198.844 138.198 200.11 144.108C212.319 156.415 222.292 170.935 229.397 186.748C233.907 196.786 237.256 207.298 240.595 217.783C241.902 221.886 243.224 226.184 242.496 230.428C241.018 239.046 231.67 244.123 222.986 245.143C212.174 246.413 200.908 243.259 192.327 236.56C187.743 250.814 183.168 266.384 188.378 280.421C189.494 283.427 187.263 286.841 184.348 288.177C181.432 289.513 178.077 289.318 174.878 289.096C156.949 287.853 139.02 286.61 121.091 285.368C117.334 285.107 112.197 282.897 113.527 279.373C116.497 271.504 117.346 262.846 115.96 254.551C114.903 260.138 113.07 265.578 110.53 270.665C110.53 270.665 101.581 289.096 92.656 279.637C87.5692 269.359 87.3499 257.323 88.8514 245.954C90.3529 234.584 93.4569 223.459 94.6698 212.055C95.8514 200.946 95.2235 189.704 96.379 178.592C97.5344 167.479 100.728 156.1 108.313 147.897C114.314 141.406 120.315 134.916 126.316 128.426C127.932 126.678 129.635 124.871 131.869 124.051C134.104 123.231 137.024 123.753 138.173 125.837C139.59 124.075 141.247 122.175 143.496 121.94C145.744 121.704 148.091 124.459 146.648 126.199C149.235 123.849 149.398 119.711 148.132 116.453Z" fill="#F8FBFF"/>
<path fill-rule="evenodd" clip-rule="evenodd" d="M195.977 144.108C208.186 156.415 218.159 170.935 225.264 186.748C229.774 196.786 233.123 207.298 236.462 217.783C237.768 221.886 239.091 226.184 238.363 230.428C236.885 239.046 227.536 244.122 218.852 245.143C208.04 246.413 197.468 242.601 188.887 235.902C184.303 250.156 179.034 266.384 184.245 280.421C184.717 281.693 185.949 283.132 185.424 284.362C184.709 286.038 181.896 287.406 180.214 288.177C179.771 288.38 180.953 284.186 180.902 278.032C180.814 267.558 176.423 231.169 186.76 233.573C212.007 239.444 231.042 238.533 231.441 232.27C233.468 200.473 194.71 138.198 195.977 144.108Z" fill="#E7EAEE"/>
<path fill-rule="evenodd" clip-rule="evenodd" d="M145.239 116.453C144.246 113.899 142.558 111.712 140.875 109.531L140.874 109.531L140.874 109.531L140.874 109.53L140.874 109.53L140.874 109.53L140.873 109.529L140.873 109.529L140.873 109.529L140.873 109.529L140.873 109.528L140.872 109.528L140.872 109.528L140.872 109.528L140.872 109.527L140.872 109.527C140.409 108.927 139.946 108.328 139.499 107.722C133.948 100.204 130.506 91.1453 129.663 81.8378C129.213 76.8691 130.922 52.6178 139.96 46.9286C135.498 45.5547 130.922 44.1222 127.262 41.2234C123.602 38.3246 121.012 33.5855 121.997 29.0216C123.487 22.114 132.459 19.1484 139.151 21.4188C145.843 23.6892 150.657 29.433 155.111 34.9192C157.456 34.7216 158.831 32.7291 160.242 30.683C161.393 29.0142 162.569 27.3097 164.317 26.5142C166.94 25.3197 169.991 26.5444 172.535 27.9013C179.937 31.8501 186.87 37.2648 190.784 44.6856C194.698 52.1064 195.037 61.7932 190.05 68.5397C191.867 66.46 195.631 69.0466 195.416 71.7997C195.201 74.5528 192.769 76.5506 190.447 78.0456C190.324 78.1251 190.199 78.2048 190.075 78.2849C187.854 79.7085 185.482 81.2291 184.614 83.6951C182.304 90.2517 178.635 96.3259 173.906 101.421C173.138 102.25 172.338 103.056 171.539 103.863C169.335 106.087 167.13 108.311 165.558 111.002C163.415 114.669 162.699 119.597 165.198 123.031C168.522 119.494 174.251 118.499 178.572 120.709C182.894 122.919 185.441 128.145 184.519 132.911C190.54 133.428 195.95 138.198 197.216 144.108C209.426 156.415 219.399 170.935 226.504 186.748C231.013 196.786 234.363 207.298 237.702 217.783C239.008 221.886 240.33 226.184 239.603 230.428C238.125 239.046 228.776 244.123 220.092 245.143C209.28 246.413 198.014 243.259 189.433 236.56C184.849 250.814 180.274 266.384 185.485 280.421C185.946 281.664 185.835 282.976 185.341 284.183C181.947 276.809 181.326 268.394 182.233 260.324C183.148 252.189 185.54 244.304 187.921 236.471C188.316 235.173 186.253 234.83 184.908 234.645C182.52 234.318 180.787 232.283 179.294 230.392L173.221 222.699C169.302 217.734 164.783 212.406 158.532 211.444C156.798 211.178 155.043 211.275 153.286 211.372H153.286H153.286H153.286H153.285H153.285H153.285H153.285H153.284H153.284H153.284H153.284H153.284H153.283H153.283H153.283C152.214 211.431 151.143 211.49 150.076 211.467C145.927 211.379 141.814 210.013 138.436 207.603C137.626 207.025 136.804 206.301 136.638 205.319C136.475 204.361 137.341 203.238 138.261 203.482L138.326 203.501C138.304 203.494 138.283 203.488 138.261 203.482C135.334 202.599 132.547 201.254 130.034 199.513C129.571 199.192 129.098 198.836 128.86 198.325C128.344 197.223 129.197 195.872 130.322 195.406C131.447 194.941 132.721 195.111 133.925 195.288C132.489 194.996 131.007 194.686 129.804 193.849C128.6 193.012 127.737 191.502 128.11 190.084C128.483 188.666 130.436 187.789 131.538 188.756C131.058 187.325 132.099 185.739 133.462 185.089C134.826 184.44 136.405 184.491 137.913 184.574C144.239 184.923 150.547 185.598 156.803 186.596L155.887 173.726C155.849 173.201 155.804 172.651 155.52 172.208C155.155 171.641 154.481 171.371 153.848 171.137C141.113 166.419 128.012 162.69 114.702 159.993L117.684 215.856C117.775 217.569 118.252 219.742 119.945 220.02C130.461 221.751 140.776 224.697 150.62 228.781C152.003 229.354 153.014 227.418 153.268 225.943L155.791 211.323C156.141 217.504 155.257 223.751 153.206 229.592C154.775 229.96 155.682 227.888 155.933 226.296L158.211 211.848C158.599 216.97 158.151 222.153 156.891 227.133C156.602 228.276 156.162 229.54 155.093 230.038C154.188 230.459 153.128 230.186 152.17 229.906L118.86 220.193C118.337 220.04 117.79 219.874 117.402 219.491C116.824 218.92 116.745 218.03 116.701 217.219L113.928 166.849C113.749 163.583 113.927 160.31 114.106 157.045L115.019 140.322C109.658 159.208 109.151 179.228 111.41 198.73C113.669 218.233 118.63 237.317 124.066 256.182C121.779 252.27 120.108 247.998 119.135 243.572C116.476 247.377 113.687 251.715 114.445 256.294C115.719 263.986 114.907 272.013 112.118 279.293C111.482 280.953 112.625 282.868 114.191 283.711C115.757 284.553 117.614 284.595 119.392 284.617L143.062 284.911C142.409 284.082 142.644 282.707 143.536 282.143C143.297 284.715 146.596 285.926 149.156 286.275C161.251 287.92 174.107 289.462 185.223 284.453C184.482 286.052 183.073 287.435 181.454 288.177C178.539 289.513 175.184 289.318 171.985 289.096L118.198 285.368C114.441 285.107 109.304 282.897 110.634 279.373C113.603 271.504 114.452 262.846 113.067 254.551C112.01 260.138 110.177 265.578 107.637 270.665C108.679 262.17 111.526 253.901 115.937 246.566C119.076 241.346 117.267 234.702 115.655 228.828C108.021 201.015 106.838 171.453 112.224 143.119C100.729 151.521 95.9297 166.431 94.5662 180.605C93.9961 186.531 93.9019 192.497 93.8077 198.46C93.6766 206.76 93.5456 215.052 92.132 223.216C91.4862 226.946 90.575 230.632 89.6646 234.316C88.2261 240.135 86.7892 245.948 86.4031 251.916C85.8002 261.237 87.7871 270.509 89.7624 279.637C84.6756 269.359 84.4563 257.323 85.9578 245.954C86.6469 240.736 87.6736 235.57 88.7 230.404L88.7 230.404C89.9101 224.314 91.12 218.225 91.7762 212.055C92.3713 206.46 92.5075 200.831 92.6436 195.203C92.7777 189.655 92.9119 184.108 93.4854 178.592C94.6409 167.479 97.8346 156.1 105.419 147.897L123.423 128.426C125.038 126.678 126.741 124.871 128.976 124.051C131.21 123.231 134.131 123.753 135.28 125.837C136.696 124.075 138.354 122.175 140.602 121.94C142.851 121.704 145.198 124.459 143.754 126.199C146.341 123.849 146.505 119.711 145.239 116.453ZM185.223 284.453C185.264 284.364 185.303 284.273 185.341 284.183C185.368 284.242 185.396 284.302 185.424 284.362C185.357 284.392 185.29 284.423 185.223 284.453ZM238.374 225.714C238.983 230.789 236.261 235.892 232.223 239.027C228.186 242.163 223.016 243.541 217.916 243.891C207.177 244.628 196.201 240.947 188.08 233.883C194.314 227.493 194.663 216.267 188.836 209.503C193.849 207.171 198.974 204.806 204.47 204.202C209.966 203.598 215.997 205.056 219.57 209.276C220.18 209.996 220.708 210.782 221.235 211.567L221.235 211.568L221.235 211.568L221.235 211.568L221.235 211.568L221.236 211.568L221.236 211.568L221.236 211.568L221.236 211.569L221.236 211.569L221.236 211.569L221.236 211.569L221.236 211.569L221.236 211.569L221.236 211.569C221.885 212.535 222.532 213.499 223.331 214.34C222.639 209.765 219.072 205.943 214.802 204.158C210.533 202.373 205.676 202.412 201.158 203.417C196.641 204.421 192.385 206.336 188.167 208.239C187.365 208.601 186.765 207.446 186.634 206.576L185.878 201.534C185.567 199.456 185.6 196.735 187.558 195.972C189.029 195.399 188.643 193.155 187.67 191.912C187.507 191.704 187.332 191.495 187.156 191.284L187.156 191.283C186.279 190.233 185.359 189.131 185.591 187.837C188.059 174.1 190.54 160.308 194.931 147.059C195.067 146.649 195.232 146.204 195.606 145.987C196.112 145.694 196.751 145.947 197.26 146.235C201.373 148.559 203.831 152.712 206.284 156.856C207.15 158.319 208.015 159.78 208.952 161.16C210.397 163.288 212.054 165.259 213.71 167.23C214.94 168.693 216.171 170.157 217.315 171.687C224.372 181.113 227.833 192.45 231.302 203.812C232.884 208.994 234.468 214.182 236.395 219.195C236.473 219.399 236.552 219.603 236.631 219.806C237.377 221.73 238.128 223.669 238.374 225.714ZM183.091 196.047C184.097 196.038 185.151 196.016 186.033 195.53C186.914 195.043 187.538 193.93 187.13 193.009C186.743 192.135 185.627 191.82 184.679 191.944C184.13 192.016 183.605 192.195 183.08 192.375L183.08 192.375C182.698 192.506 182.316 192.636 181.924 192.726C179.973 193.172 177.982 192.584 176.001 191.999C173.857 191.366 171.726 190.736 169.672 191.427C171 189.228 170.913 186.508 170.829 183.924C170.825 183.789 170.821 183.654 170.817 183.52C170.395 169.796 173.44 155.98 179.591 143.705C177.32 145.329 175.691 147.826 175.118 150.558C175.05 150.883 174.995 151.212 174.941 151.541L174.941 151.541C174.802 152.387 174.662 153.233 174.289 153.999C172.776 157.103 168.504 157.332 165.065 157.022C162.247 156.768 159.293 156.398 156.997 154.743C155.846 153.913 154.919 152.799 153.997 151.691C152.77 150.215 151.552 148.751 149.825 147.983C146.961 146.709 143.901 147.77 140.804 148.845C138.007 149.815 135.18 150.796 132.442 150.074C130.9 149.667 129.833 151.561 129.37 153.088L127.352 159.74C126.411 156.104 127.561 152.002 130.254 149.384C129.101 148.628 129.411 147.074 129.719 145.536C130.03 143.978 130.339 142.436 129.119 141.754C125.438 139.694 124.709 134.803 124.395 130.596C119.711 132.326 117.038 137.388 116.215 142.313C115.729 145.216 115.735 148.163 115.74 151.112C115.744 153.166 115.748 155.222 115.586 157.266C129.709 160.03 143.629 163.828 157.199 168.619C158.029 168.912 158.902 169.239 159.456 169.923C160.052 170.66 160.164 171.664 160.251 172.608C160.694 177.379 161.113 182.348 159.405 186.826L159.42 172.872C159.421 172.099 159.289 171.132 158.553 170.895C157.409 170.527 156.873 172.275 156.967 173.473L157.784 183.846C157.896 185.266 158.102 186.866 159.245 187.716L138.713 185.653C136.58 185.439 134.024 185.404 132.777 187.147C132.982 188.815 134.976 189.514 136.621 189.857L149.69 192.582C145.601 193.428 141.302 192.669 137.433 191.098C137.142 190.98 136.852 190.857 136.561 190.733L136.56 190.733L136.559 190.733L136.559 190.732L136.558 190.732L136.557 190.732L136.556 190.731L136.555 190.731L136.555 190.731L136.554 190.73L136.553 190.73L136.552 190.73C135.327 190.21 134.098 189.689 132.784 189.515C131.157 189.3 129.317 189.744 128.372 191.087C134.219 194.954 141.015 197.375 147.991 198.077C147.949 198.834 146.939 199.061 146.183 199.006C144.215 198.862 142.323 198.285 140.429 197.708L140.429 197.708C139.55 197.44 138.671 197.171 137.783 196.946C134.983 196.236 131.844 196.001 129.359 197.473C134.953 202.036 142.329 203.621 149.401 205.067L137.691 204.817C139.762 208.503 144.409 209.861 148.63 210.084C149.879 210.15 151.138 210.149 152.398 210.147C155.396 210.143 158.392 210.139 161.227 211.051C166.372 212.706 170.099 217.072 173.541 221.239L180.178 229.275C181.083 230.371 182.808 230.492 184.086 229.873C185.365 229.253 186.268 228.059 186.975 226.826C188.38 224.377 189.216 221.502 188.763 218.715C188.309 215.928 186.386 213.294 183.677 212.5C179.022 211.135 175.718 206.999 173.434 202.72C172.65 201.252 171.946 199.737 171.243 198.224L171.243 198.223L171.243 198.223L171.243 198.223L171.242 198.223L171.242 198.222L171.242 198.222L171.242 198.222L171.242 198.222L171.242 198.222L171.242 198.221L171.242 198.221L171.242 198.221L171.241 198.221C169.895 195.323 168.549 192.429 166.651 189.871C166.082 189.105 165.462 188.365 164.843 187.626L164.843 187.626C163.31 185.799 161.78 183.973 161.022 181.738C164.921 185.51 168.23 189.892 170.793 194.675C171.071 195.193 171.377 195.752 171.914 195.993C172.257 196.148 172.648 196.147 173.025 196.143L183.091 196.047ZM182.017 79.0506C182.96 78.928 183.705 78.2216 184.378 77.5515L187.657 74.2906C181.601 89.2977 172.952 103.807 159.841 113.294C157.179 115.22 154.015 116.995 150.78 116.416C149.086 116.114 147.566 115.184 146.219 114.114C143.412 111.884 141.192 108.997 139.294 105.957C133.933 97.3742 130.956 87.2878 131.002 77.1687C131.047 67.0496 134.142 56.935 139.933 48.6371C140.132 48.3518 140.355 48.0524 140.684 47.9388C141.018 47.8235 141.383 47.9257 141.721 48.0284C153.86 51.7183 165.883 55.7899 177.766 60.2352C179.647 60.9389 180.43 63.1528 180.772 65.132C181.476 69.2083 181.288 73.4363 180.226 77.4342C179.982 78.3524 181.075 79.1732 182.017 79.0506ZM174.097 48.7098C175.529 48.7225 176.528 50.6375 175.718 51.8187C174.909 53 172.763 52.7606 172.234 51.4301C171.64 49.9377 170.11 49.1276 168.666 48.3634C168.512 48.2823 168.36 48.2017 168.21 48.1209C163.357 45.5071 159.626 41.3565 155.914 37.226C154.94 36.1424 153.967 35.0602 152.976 34.0075C151.092 32.0075 149.117 30.0941 147.058 28.2754C144.799 26.2808 142.403 24.3771 139.638 23.1802C136.873 21.9833 133.676 21.5472 130.83 22.5374C132.112 22.6024 133.117 24.0632 132.718 25.2833C132.32 26.5035 130.647 27.0903 129.574 26.3864C128.5 25.6824 128.372 23.9144 129.332 23.0629C126.422 23.9243 123.977 26.2257 122.941 29.0783C122.737 29.6407 122.585 30.2627 122.772 30.8312C122.878 31.1518 123.084 31.4364 123.289 31.7178C123.577 32.1154 123.861 32.5064 123.848 32.9828C123.743 36.7964 127.477 40.2492 131.27 39.8468C132.013 39.768 132.313 40.509 132.623 41.2777C132.772 41.6444 132.922 42.0175 133.125 42.3109C133.487 42.8349 134.092 43.1268 134.671 43.3918C140.559 46.0851 146.652 48.331 152.88 50.1037C153.601 50.3091 154.589 50.3947 154.895 49.7096C155.306 48.7903 156.499 48.313 157.431 48.6956C158.362 49.0782 158.875 50.2565 158.521 51.199C158.363 51.6214 158.883 51.9638 159.307 52.1172L180.522 59.7874C180.13 58.2173 182.125 56.6568 183.555 57.4143C184.985 58.1718 184.814 60.6985 183.295 61.2565L191.048 65.1662L192.441 53.7878C192.506 53.2562 192.293 52.4657 191.78 52.6178C190.828 52.8995 189.707 52.3616 189.331 51.4433C188.956 50.525 189.378 49.3553 190.254 48.8895C190.929 48.531 191.18 47.6474 191.031 46.8985C190.882 46.1495 190.421 45.5055 189.96 44.8962C184.981 38.3047 178.673 32.693 171.438 28.7048C169.499 27.6359 167.149 26.6727 165.145 27.6146C163.985 28.1597 163.205 29.2327 162.442 30.2816C162.321 30.4485 162.2 30.6148 162.078 30.7783C160.553 32.8235 158.665 34.5977 156.53 35.9939L163.289 42.8709C162.73 41.6639 163.581 40.038 164.891 39.8092C166.202 39.5805 167.553 40.8221 167.436 42.1471C167.319 43.472 165.771 44.4573 164.521 44.0023C167.344 46.283 170.468 48.6774 174.097 48.7098ZM182.702 141.858C183.729 141.934 184.772 141.317 185.201 140.38C185.63 139.444 185.416 138.251 184.688 137.522C183.778 136.612 184.832 134.911 186.112 134.779C187.392 134.647 188.555 135.465 189.581 136.241L194.527 139.986C195.127 140.44 195.799 141.118 195.537 141.823C189.888 157.014 186.175 172.923 184.515 189.045C184.381 190.352 183.121 191.314 181.829 191.548C180.536 191.782 179.215 191.455 177.943 191.129L173.392 189.965C173.083 189.886 172.759 189.798 172.529 189.577C172.201 189.261 172.15 188.761 172.123 188.306C171.199 172.781 174.392 157.029 181.29 143.09C181.585 142.494 182.038 141.81 182.702 141.858ZM172.679 132.121C171.448 131.192 171.73 128.924 173.152 128.325C169.633 128.629 166.424 130.197 163.211 131.767C160.112 133.281 157.01 134.796 153.626 135.18C155.659 136.56 156.619 139.204 156.344 141.646C156.068 144.089 154.7 146.312 152.923 148.009C154.444 150.924 156.958 153.309 159.948 154.676C161.002 155.158 162.21 155.518 163.307 155.146C163.546 155.065 163.802 154.957 164.062 154.846C165.01 154.445 166.013 154.019 166.489 154.808C167.381 156.289 169.658 155.95 171.135 155.051C172.143 154.438 173.082 153.607 173.497 152.501C173.913 151.396 173.667 149.984 172.696 149.312C171.889 148.754 171.618 147.549 172.108 146.699C172.597 145.85 173.776 145.48 174.663 145.898C175.438 146.262 176.163 145.353 176.626 144.633C177.715 142.936 179.32 141.576 181.172 140.779C180.431 139.689 180.535 138.099 181.412 137.115C179.146 135.459 177.328 133.195 176.199 130.625C176.014 132.156 173.91 133.05 172.679 132.121ZM142.669 126.191C142.641 126.375 142.613 126.557 142.591 126.739C142.489 127.585 142.58 128.569 143.258 129.085C145.845 125.949 147.366 121.949 147.516 117.886C147.546 117.075 148.776 117.192 149.543 117.459C151.807 118.248 154.349 117.855 156.545 116.893C158.741 115.931 160.657 114.442 162.548 112.968C161.994 116.652 162.476 120.485 163.924 123.917L156.45 129.53C156.154 129.752 155.877 130.261 156.216 130.409C159.048 129.49 161.453 127.623 163.808 125.794L164.029 125.622C166.455 123.739 168.994 121.851 171.967 121.081C174.94 120.311 178.477 120.918 180.372 123.335C181.306 124.526 181.752 126.017 182.18 127.469L183.504 131.966C183.79 132.941 184.072 134.015 183.659 134.943C183.246 135.871 181.793 136.329 181.213 135.494L178.502 131.595C177.211 129.738 175.747 127.753 173.567 127.15C171.188 126.492 168.735 127.681 166.523 128.776C162.648 130.694 158.68 132.425 154.638 133.962C153.395 134.435 152.016 133.974 150.668 133.522C149.133 133.008 147.636 132.508 146.423 133.412C145.972 133.748 145.336 133.565 144.817 133.35C141.246 131.875 138.047 129.509 135.591 126.526L140.733 123.187C141.448 122.722 142.442 123.389 142.684 124.206C142.875 124.847 142.772 125.522 142.669 126.191ZM146.449 146.115C144.109 144.203 142.978 140.923 143.642 137.975C143.811 137.225 143.031 136.645 142.402 136.205C141.772 135.765 141.149 134.907 141.635 134.312C141.897 133.991 141.54 133.542 141.213 133.289L134.921 128.412C134.166 127.826 133.388 127.213 132.952 126.364C132.165 124.827 130.063 124.134 128.516 124.901C126.319 125.99 126.013 128.942 126.001 131.394C125.998 131.971 126.161 132.738 126.738 132.771C128.212 132.855 128.91 135.144 127.733 136.036C126.58 136.909 127.403 138.803 128.549 139.685C128.8 139.877 129.067 140.061 129.337 140.247L129.337 140.247L129.337 140.247L129.337 140.247C130.301 140.911 131.283 141.586 131.535 142.689C131.722 143.51 131.445 144.379 131.175 145.229C130.837 146.292 130.509 147.322 131.11 148.186C131.847 149.244 133.418 149.141 134.685 148.903C138.647 148.161 142.575 147.23 146.449 146.115ZM174.409 197.38C177.26 197.15 180.131 197.155 182.982 197.397C183.221 197.417 183.473 197.444 183.665 197.587C183.961 197.809 184.014 198.223 184.047 198.591C184.32 201.612 184.894 204.606 185.757 207.513C185.623 207.87 185.242 207.956 184.846 208.046C184.587 208.105 184.323 208.165 184.115 208.303C183.447 208.746 183.642 209.81 184.139 210.44C184.314 210.663 184.518 210.866 184.721 211.069C185.092 211.441 185.461 211.81 185.654 212.292C179.538 210.376 175.08 204.899 172.698 198.949C172.553 198.589 172.414 198.187 172.545 197.821C172.677 197.456 173.216 197.24 173.463 197.54C173.561 197.658 173.586 197.818 173.607 197.969L174.023 200.942C174.078 201.331 174.714 201.335 174.929 201.007C175.145 200.679 175.065 200.248 174.978 199.865L174.409 197.38ZM154.585 138.892C153.763 136.524 151.55 134.7 149.069 134.345C148.161 134.216 147.138 134.308 146.488 134.955C145.06 136.377 144.495 138.546 144.83 140.533C145.165 142.521 146.332 144.315 147.871 145.617C149.021 146.591 150.642 147.327 152.008 146.69C152.414 146.501 152.761 146.202 153.071 145.877C154.798 144.063 155.406 141.259 154.585 138.892ZM181.843 76.453C182.518 71.7582 183.145 66.6959 180.929 62.5026C180.774 62.2108 180.615 61.8268 180.836 61.5816L187.794 65.0291C188.346 65.3025 188.999 65.8316 188.742 66.3914C188.443 67.045 188.386 67.7674 188.329 68.4907C188.305 68.7963 188.281 69.1021 188.238 69.4029C187.982 71.2215 187.037 72.8872 185.838 74.2786C184.639 75.6701 183.189 76.8187 181.749 77.9581C181.7 77.4566 181.771 76.9519 181.843 76.453ZM188.849 211.282C188.051 210.158 186.984 209.057 185.612 208.92C185.083 208.867 184.371 209.404 184.755 209.772C188.077 212.948 190.302 217.494 189.891 222.072C189.48 226.65 186.026 231.019 181.483 231.716C182.827 233.312 185.391 233.436 187.212 232.418C189.033 231.401 190.204 229.506 190.943 227.555C192.959 222.23 192.147 215.923 188.849 211.282ZM117.54 158.548C122.58 159.338 127.498 160.755 132.4 162.168L145.757 166.02C149.823 167.193 153.934 168.384 157.6 170.496C155.861 170.433 154.17 169.936 152.506 169.428C149.564 168.528 146.632 167.579 143.7 166.629L143.698 166.628L143.697 166.628C134.182 163.546 124.66 160.461 114.774 159.089C115.405 158.333 116.567 158.396 117.54 158.548ZM190.573 69.7914C189.808 70.4787 189.443 71.504 189.223 72.5086C189.159 72.8037 189.104 73.1017 189.049 73.3996C188.918 74.1161 188.786 74.8322 188.518 75.5075C188.475 75.6183 188.427 75.7302 188.379 75.8428C188.138 76.4074 187.889 76.9914 188.069 77.5614C190.954 77.3761 193.564 75.0517 194.081 72.2073C194.255 71.2526 194.152 70.1313 193.396 69.5229C192.594 68.8781 191.338 69.1042 190.573 69.7914ZM175.802 32.4485C176.134 33.3907 175.633 34.5471 174.719 34.9492C173.804 35.3512 172.613 34.9387 172.144 34.0572C171.626 33.0867 172.099 31.7226 173.105 31.28C174.112 30.8373 175.437 31.4113 175.802 32.4485ZM141.457 33.3378C141.514 32.4811 140.977 31.617 140.183 31.29C139.172 30.8739 137.873 31.4272 137.473 32.4441C137.073 33.461 137.647 34.751 138.67 35.1347C139.872 35.5852 141.372 34.6179 141.457 33.3378ZM180.535 41.9672C180.563 43.051 181.558 44.017 182.642 44.014C183.792 44.0109 184.816 42.9051 184.732 41.7582C184.653 40.6769 183.614 39.7586 182.531 39.8125C181.449 39.8664 180.506 40.8834 180.535 41.9672ZM149.629 43.2256C148.843 44.208 147.127 44.2105 146.338 43.2304C145.549 42.2503 145.918 40.5745 147.045 40.0163C148.173 39.4581 149.729 40.181 150.03 41.4027C150.184 42.0285 150.032 42.7224 149.629 43.2256ZM143.254 59.6003C142.589 60.6397 142.447 61.9965 142.882 63.1511C143.044 63.5792 143.284 63.9847 143.626 64.2888C144.723 65.2646 146.598 64.8523 147.522 63.7109C148.445 62.5696 148.572 60.9591 148.3 59.5165C148.191 58.9414 147.991 58.3275 147.5 58.0085C147.159 57.7865 146.729 57.7466 146.322 57.7756C145.092 57.8637 143.919 58.561 143.254 59.6003ZM165.343 70.2381C164.98 69.8676 164.741 69.3899 164.593 68.8932C164.042 67.0517 164.817 64.8945 166.414 63.8249C167.137 63.3411 168.068 63.0723 168.885 63.3684C169.887 63.7314 170.438 64.8248 170.628 65.8736C170.9 67.3745 170.573 69.0568 169.468 70.1083C168.363 71.1597 166.41 71.3282 165.343 70.2381ZM137.669 90.9423C137.706 90.0149 137.781 89.0891 137.895 88.168C137.934 87.8488 138.21 87.5745 138.53 87.5374C138.678 89.8091 138.747 92.086 138.736 94.3625C137.732 93.626 137.62 92.1871 137.669 90.9423ZM174.991 81.0802C174.689 79.6991 173.652 78.5015 172.328 78.0054C172.107 77.9224 172.117 77.5682 172.303 77.4224C172.489 77.2766 172.754 77.2912 172.984 77.3473C174.243 77.6548 175.021 78.89 175.597 80.0509C175.749 80.3581 175.899 80.7162 175.765 81.0317C175.631 81.3472 175.065 81.4151 174.991 81.0802ZM151.974 282.353C151.842 282.055 151.506 281.912 151.199 281.8C146.391 280.047 141.286 279.111 136.169 279.045C135.439 279.035 134.587 279.106 134.185 279.715C134.576 280.043 135.137 280.043 135.648 280.035C141.066 279.953 146.498 280.959 151.528 282.975C151.831 283.097 152.107 282.652 151.974 282.353ZM153.71 73.4876L153.71 73.4876C153.35 73.7117 152.99 73.9355 152.673 74.2164C152.076 74.7461 151.644 75.6027 151.953 76.3387C152.334 77.2477 153.559 77.4196 154.53 77.2445C154.57 77.2372 154.611 77.2295 154.652 77.2219C154.958 77.164 155.272 77.1049 155.57 77.1867C155.909 77.2794 156.206 77.6357 156.09 77.9667C156.009 78.1992 155.765 78.3287 155.535 78.4185C154.114 78.9744 152.34 78.7675 151.285 77.6642C150.231 76.561 150.204 74.5406 151.409 73.6035L156.115 69.9424C156.067 71.0618 155.502 72.14 154.638 72.8523C154.348 73.0907 154.029 73.2892 153.71 73.4876ZM172.659 82.303C172.951 83.9561 172.527 85.6549 171.927 87.2228C169.344 93.9734 163.244 99.2639 156.196 100.867C153.36 101.512 150.23 101.55 147.706 100.104C145.182 98.6583 143.56 95.4067 144.666 92.7167C145.966 89.5594 149.988 88.6741 153.401 88.6024C153.7 88.5962 154.002 88.5917 154.306 88.5871H154.307C157.474 88.5401 160.856 88.4899 163.148 86.3808C163.964 85.6303 164.552 84.6861 165.142 83.7399C165.639 82.9425 166.136 82.1437 166.772 81.4587C168.161 79.9609 170.882 79.2453 172.102 80.8831C172.409 81.2944 172.569 81.7978 172.659 82.303ZM171.209 84.8222C171.56 83.4768 171.406 81.5413 170.03 81.338C169.519 81.2624 169.008 81.4915 168.584 81.7863C167.526 82.5197 166.849 83.6245 166.168 84.7353C165.627 85.617 165.084 86.5024 164.347 87.2091C162.423 89.0545 159.544 89.381 156.888 89.611L151.783 90.0531C150.48 90.1659 149.131 90.2929 147.998 90.9441C145.869 92.1672 145.131 95.294 146.488 97.3398C147.955 99.5522 151.015 100.033 153.657 99.777C161.802 98.9893 169.138 92.739 171.209 84.8222ZM174.117 188.235C173.84 188.267 173.552 188.189 173.329 188.021C173.179 187.908 173.058 187.755 172.982 187.583C172.736 187.021 173.068 186.282 173.652 186.093C174.235 185.904 174.938 186.308 175.068 186.907C175.198 187.506 174.726 188.165 174.117 188.235ZM183.56 188.311C183.359 188.135 183.089 188.038 182.822 188.046C182.164 188.066 181.635 188.808 181.832 189.437C182.029 190.065 182.887 190.373 183.438 190.014C183.99 189.654 184.055 188.745 183.56 188.311ZM163.708 140.484C163.025 139.697 163.083 138.375 163.834 137.651C164.584 136.928 165.908 136.918 166.669 137.63C167.482 138.39 167.493 139.843 166.691 140.616C165.89 141.388 164.439 141.324 163.708 140.484ZM154.761 147.046C154.604 147.466 154.591 147.938 154.725 148.366C155.104 149.584 156.787 150.163 157.836 149.437C158.884 148.711 158.933 146.931 157.926 146.148C156.92 145.365 155.207 145.851 154.761 147.046ZM136.656 143.948C136.42 144.728 135.673 145.325 134.861 145.385C133.662 145.472 132.541 144.282 132.701 143.09C132.861 141.899 134.255 141.046 135.389 141.446C136.362 141.79 136.955 142.96 136.656 143.948Z" fill="#274772"/>
</svg>
