<svg width="307" height="307" viewBox="0 0 307 307" fill="none" xmlns="http://www.w3.org/2000/svg">
<rect width="307" height="307" fill="white"/>
<path fill-rule="evenodd" clip-rule="evenodd" d="M174.412 254.517C204.06 254.517 230.078 232.463 215.466 202.509C200.855 172.555 255.146 173.522 271.093 152.82C290.542 127.572 284.91 20.4004 160.055 85.7375C140.055 96.2038 88.6894 74.9702 71.6513 85.5059C51.5959 97.9075 23.3789 123.302 51.5959 149.315C65.495 162.128 15.6634 195.386 37.4886 225.177C58.7846 254.245 73.7127 226.534 106.135 232.463C138.558 238.392 152.394 254.517 174.412 254.517Z" fill="#EAF0F9"/>
<path d="M140.001 202.405C140.001 202.405 146.827 199.194 149.376 196.96C151.924 194.726 155.093 189.176 155.093 189.176C155.093 189.176 189.896 214.31 212.588 210.725C217.817 209.899 228.005 206.423 228.654 200.3C230.428 183.579 205.883 179.306 211.245 170.827C214.517 165.651 224.684 173.354 224.684 173.354L266.853 194.096C266.853 194.096 252.285 230.007 216.931 231.446C173.442 233.216 140.001 202.405 140.001 202.405Z" fill="white"/>
<path fill-rule="evenodd" clip-rule="evenodd" d="M106.568 61.7703C106.172 61.615 104.047 59.0124 101.348 58.5387C100.122 58.3234 101.235 59.8848 99.8855 59.8989C95.8663 59.9407 89.3346 59.1856 88.1246 59.8989C87.2253 60.4273 89.2058 62.2733 88.1246 62.3581C77.9234 63.1577 62.3606 73.3432 58.9841 78.2848C57.9096 79.8574 66.6003 77.1892 65.2156 77.9667C63.6615 78.8393 61.9379 84.553 60.9073 88.9659C60.1938 92.0047 59.7446 95.9155 59.5861 100.17C59.4539 103.843 59.5068 104.451 60.0353 106.459C60.643 108.705 61.1187 109.366 61.9379 109.049C62.2285 108.943 62.3606 108.546 62.3606 107.807C62.3606 107.225 62.6777 105.481 63.0741 103.922L63.7611 101.121L64.0518 102.284C64.4218 103.632 66.5886 107.807 68.544 110.845C68.6494 111.007 69.1032 110.802 69.5124 109.813C69.8852 108.911 69.7339 107.472 70.3673 105.929C71.8101 102.414 74.6431 97.8438 77.9234 94.1857C82.7714 88.7793 84.3799 82.5226 88.9244 77.5001C97.4054 68.1271 108.05 62.352 106.568 61.7703Z" fill="white"/>
<path fill-rule="evenodd" clip-rule="evenodd" d="M65.3362 79.2421C63.9757 80.3361 61.9563 89.2097 61.9216 89.358C61.2082 92.3969 60.5204 102.95 61.2234 104.948C61.9264 106.945 63.8949 99.7434 63.8949 99.7434C63.8949 99.7434 66.8702 107.469 69.4992 109.588C69.6115 109.678 66.3743 100.029 65.3362 94.396C63.9659 86.9603 66.1105 78.6195 65.3362 79.2421Z" fill="#E7EAEE"/>
<path fill-rule="evenodd" clip-rule="evenodd" d="M116.045 234.651C118.581 234.096 122.862 232.163 124.5 231.503C126.139 230.842 131.133 223.79 132.93 215.836C134.225 209.97 134.885 201.62 134.145 200.22C134.036 200.021 133.636 196.224 134.7 197.464C137.066 200.22 139.873 204.546 148.731 196.793C151.144 194.682 154.342 191.956 153.5 189.547C151.144 182.806 140.932 169.233 139.375 168.205C137.513 166.975 128.105 168.02 114.103 163.887C98.2231 159.2 91.6109 145.399 85.3968 147.195C80.3714 148.648 68.331 157.577 65.3092 163.231C51.0434 189.924 68.331 208.628 72.268 214.001L76.0906 215.652L76.2227 219.06L76.4077 221.201C76.7512 225.296 76.8833 225.666 78.7331 227.041C83.3574 230.555 92.4738 233.832 100.718 234.994C104.55 235.523 112.874 235.338 116.045 234.651Z" fill="white"/>
<path fill-rule="evenodd" clip-rule="evenodd" d="M77.5939 217.812L77.7788 219.953C78.1224 224.049 78.2545 224.419 80.1042 225.793C82.8322 227.866 87.1236 229.856 91.877 231.379C95.1812 232.437 98.7086 233.27 102.089 233.746C105.921 234.275 114.245 234.09 117.416 233.403C118.983 233.063 106.091 222.935 98.4956 225.793C92.663 227.987 78.9157 211.246 84.5052 206.872C90.7753 201.966 79.2857 182.614 78.9157 178.413C78.5458 174.211 77.0889 173.208 77.0464 173.355C77.0039 173.502 77.0039 174.005 77.1182 175.216C77.6112 180.437 77.5939 217.812 77.5939 217.812Z" fill="#E7EAEE"/>
<path fill-rule="evenodd" clip-rule="evenodd" d="M76.2174 177.213C76.7722 177.105 77.3094 177.468 77.4174 178.022C79.4117 188.268 87.8476 195.205 102.932 198.832C118.106 202.481 128.442 202.284 133.888 198.389C134.348 198.061 134.005 200.876 133.668 201.092C130.116 203.37 118.04 206.769 103.628 203.697C85.2013 199.769 76.5493 184.275 75.4084 178.413C75.3005 177.859 75.6627 177.321 76.2174 177.213Z" fill="#BAC8DB"/>
<path fill-rule="evenodd" clip-rule="evenodd" d="M68.5331 158.727C69.0237 158.447 87.3257 179.422 112.442 184.17C137.559 188.918 143.64 185.899 144.617 179.422C144.702 178.863 145.223 178.479 145.782 178.563C146.341 178.648 146.726 179.169 146.641 179.728C145.402 187.935 133.78 189.888 112.098 186.188C90.6878 182.534 76.009 173.854 68.1531 160.124C67.8724 159.633 68.0426 159.008 68.5331 158.727Z" fill="#BAC8DB"/>
<path fill-rule="evenodd" clip-rule="evenodd" d="M173.952 157.564C173.264 157.326 172.525 156.798 172.049 156.19L171.256 155.212L174.057 152.438C178.364 148.21 181.668 143.876 184.521 138.723C185.473 137.006 187.877 131.272 187.877 130.717C187.877 130.532 188.168 129.792 188.511 129.026C189.04 127.916 189.436 127.493 190.573 126.859C191.92 126.066 193.453 125.802 194.113 126.251C195.382 127.097 195.382 129.766 194.113 134.363C192.713 139.41 190.837 143.031 186.952 148.236C186.345 149.029 185.208 150.588 184.389 151.671C182.196 154.578 180.769 155.979 178.84 157.062C176.938 158.119 175.828 158.251 173.952 157.564ZM192.924 155.186L194.827 156.032C195.221 156.214 199.573 158.305 204.801 160.817C213.23 164.867 223.934 170.01 224 170.01C224.105 170.01 224.601 168.864 224.713 167.526C224.977 164.646 225.955 160.735 227.091 158.013C227.62 156.798 228.043 155.279 228.043 155.147C228.043 155.086 227.613 154.913 226.91 154.629C226.073 154.292 224.848 153.797 223.498 153.151C216.839 149.954 203.811 143.427 202.199 142.449C200.614 141.524 200.297 141.445 200.297 142.053C200.297 142.846 198.685 146.519 197.443 148.501C196.782 149.584 195.488 151.539 194.563 152.834L192.924 155.186ZM223.551 165.254C224.308 165.693 222.996 166.337 222.678 166.443C220.811 166.601 218.613 166.25 216.812 165.201C215.871 164.533 208.456 160.414 203.537 157.681C201.289 156.432 199.562 155.473 199.214 155.265C198.104 154.605 197.047 153.891 196.862 153.68C196.307 152.966 196.835 152.649 198.394 152.781C199.332 152.861 221.914 164.305 223.551 165.254ZM116.135 234.433C118.173 233.987 121.337 232.652 123.352 231.802L123.352 231.802C123.845 231.594 124.269 231.415 124.59 231.285C126.229 230.624 131.223 223.573 133.02 215.619C134.315 209.753 134.975 201.403 134.235 200.002C133.789 199.191 136.439 201.912 138.413 203.938L138.413 203.938C139.012 204.553 139.548 205.103 139.917 205.472C151.438 216.914 168.587 226.11 186.398 230.417C195.276 232.584 201.592 233.35 210.074 233.35C224.317 233.35 235.547 230.549 245.747 224.392C246.232 224.099 246.686 223.831 247.118 223.574C250.674 221.469 252.792 220.215 258.589 213.69C265.092 206.37 270.877 189.379 272.806 183.513C273.651 180.871 275.713 170.36 275.713 167.738C275.713 164.632 274.629 163.166 273.149 161.66C270.533 159.097 266.992 158.172 264.059 159.282L262.685 159.81L262.262 158.41C261.655 156.296 260.386 154.605 258.431 153.336C255.524 151.407 255.101 151.275 252.485 151.275C250.451 151.275 249.896 151.381 248.601 151.989L247.095 152.676L246.778 151.724C246.17 149.769 244.131 147.043 242.55 146.254C241.147 145.555 238.719 145.491 237.027 145.805C233.328 146.492 230.685 148.21 229.602 150.615C229.285 151.354 228.888 151.936 228.73 151.936C228.598 151.936 223.392 150.482 217.182 147.734C216.135 147.269 215.151 146.833 214.227 146.423C203.076 141.48 200.659 140.409 200.878 139.067C201.063 137.931 201.01 137.297 200.693 136.319C200.138 134.681 199.504 134.231 197.707 134.231C196.28 134.231 196.28 134.231 196.439 133.518C197.284 129.475 197.258 127.149 196.36 125.67C195.752 124.692 195.038 124.296 193.4 124.058C192.449 123.926 192 124.005 190.943 124.586C190.229 124.956 189.621 125.221 189.568 125.168C189.516 125.115 189.701 123.661 189.991 121.944C192.158 109.234 190.484 98.2825 184.961 86.6557C184.908 86.5445 184.847 86.413 184.777 86.2626L184.777 86.2623C183.098 82.6578 176.347 68.1637 157.04 60.8502C156.166 60.5192 155.339 60.1991 154.544 59.8915C147.967 57.3458 143.595 55.6535 133.046 55.671C121.223 55.6907 117.218 57.3622 109.423 60.9295C108.339 61.4316 107.388 61.7223 107.309 61.6166C107.23 61.4844 106.727 61.1673 106.225 60.9031C105.723 60.6389 104.64 59.9782 103.847 59.4497C101.575 57.9171 100.174 57.2829 99.4607 57.4415C98.6416 57.6529 98.6416 58.3399 99.4607 58.657C99.8042 58.7891 100.201 59.2384 100.359 59.6876C100.703 60.6389 101.099 60.7446 101.337 59.9518C101.443 59.6611 101.601 59.4497 101.68 59.5026C101.71 59.5176 101.811 59.5646 101.964 59.6364L101.964 59.6364L101.964 59.6364L101.965 59.6366C102.351 59.8174 103.072 60.155 103.847 60.5332C104.931 61.0616 106.12 61.6166 106.437 61.7487C107.018 61.9601 106.833 62.1186 104.323 63.5984C94.5193 69.359 86.5391 78.3169 82.0734 88.5168C81.3863 90.0494 80.7786 91.0007 80.1444 91.5292C78.5325 92.8768 75.3615 96.7084 74.6216 98.2146C74.2253 99.0338 73.3797 100.302 72.7191 101.042C72.0849 101.782 71.3978 102.733 71.16 103.13C70.9486 103.552 70.7372 103.843 70.6579 103.79C70.6051 103.711 70.6844 102.416 70.8693 100.91C71.2657 97.3954 71.2657 96.4706 70.9486 96.3913C70.473 96.2592 69.7859 98.1089 69.4953 100.408C69.2839 101.808 69.231 103.922 69.3631 106.089L69.5217 109.524L67.6455 106.485C66.9994 105.468 66.3631 104.45 65.9118 103.728L65.9115 103.728C65.6247 103.269 65.4126 102.93 65.3202 102.786C64.6331 101.782 64.2368 100.276 64.5274 99.7736C64.686 99.483 64.6596 99.3509 64.3953 99.3509C63.8404 99.3509 62.757 101.121 62.0435 103.156C61.7 104.107 61.3565 104.9 61.2508 104.9C60.8544 104.9 61.0394 95.44 61.4622 92.4012C62.3342 86.4028 64.6331 79.0039 65.6637 79.0039C65.8751 79.0039 66.0601 78.8982 66.0601 78.7397C66.0601 78.264 65.373 78.449 64.8181 79.0568C63.5762 80.4044 61.9378 84.5531 60.9073 88.966C60.1938 92.0048 59.7446 95.9157 59.5861 100.17C59.4539 103.843 59.5068 104.451 60.0353 106.459C60.643 108.705 61.1187 109.366 61.9378 109.049C62.2285 108.943 62.3606 108.547 62.3606 107.807C62.3606 107.225 62.6777 105.481 63.0741 103.922L63.7611 101.121L64.0518 102.284C64.4217 103.632 66.5886 107.807 68.544 110.846C69.8916 112.907 69.9181 113.039 70.3673 116.263C70.6051 118.086 71.345 122.521 73.0626 129.343C74.5802 135.37 83.1117 141.35 85.242 142.843C85.5227 143.04 85.6923 143.158 85.7199 143.189C85.9842 143.48 86.3541 143.638 86.5655 143.559C86.8034 143.48 86.9355 143.586 86.9355 143.876C86.9355 144.141 87.1204 144.484 87.3318 144.643C87.5961 144.828 87.7811 145.541 87.8339 146.783C87.966 149.267 89.8158 154.023 91.2427 155.582C92.1675 156.586 94.0965 157.009 96.2369 156.639C97.6374 156.428 98.0338 156.269 97.9017 155.952C97.8224 155.741 98.3245 156.005 99.0115 156.534C107.045 162.664 115.183 166.337 124.326 167.923C127.867 168.53 133.733 168.874 136.931 168.636C139.758 168.451 139.758 168.451 139.626 169.006C139.441 169.746 139.679 170.195 143.563 176.775C146.655 181.98 146.919 182.324 150.354 185.838C157.648 193.369 165.601 199.209 174.612 203.728C183.094 207.956 196.637 211.47 209.017 212.58C221.397 213.69 230.289 202.327 230.262 199.421C230.209 195.431 229.655 192.815 228.307 190.278C226.986 187.82 226.114 186.975 222.15 184.332C217.737 181.399 215.015 178.995 213.218 176.431C212.082 174.819 211.659 172.996 211.659 172.018C211.659 171.384 212.479 169.957 213.694 169.667C214.804 169.376 215.015 169.402 216.257 170.01C216.997 170.354 218.926 171.252 220.512 172.018C222.124 172.758 223.683 173.498 224 173.657C224.934 173.916 225.33 175.746 225.544 176.738C225.592 176.96 225.631 177.139 225.664 177.25C226.034 178.625 227.785 180.399 228.915 181.003C230.898 182.064 235.786 182.205 237.133 180.752C237.477 180.382 238.616 179.927 238.85 180.065C239.085 180.203 239.934 181.346 239.934 182.271C239.96 183.857 240.779 185.31 242.523 186.763C245.826 189.511 248.39 190.172 250.979 188.957C252.327 188.322 253.431 188.075 253.431 188.075C253.431 188.075 254.533 189.48 254.599 189.961C255.118 193.715 260.677 195.289 262.157 195.448C262.496 195.481 263.156 195.336 263.826 195.189C264.722 194.992 265.637 194.791 265.83 195.008C266.207 195.434 259.514 206.502 258.589 207.903C249.79 221.115 232.667 229.201 211.712 230.047C198.104 230.602 181.377 226.797 166.87 219.873C157.595 215.408 149.377 209.938 140.577 202.275C139.045 200.953 137.274 199.447 136.64 198.919C136.006 198.417 134.5 196.699 133.337 195.113C131.382 192.471 130.272 191.52 130.272 192.418C130.272 192.815 131.54 195.246 132.993 197.65C133.575 198.602 133.945 199.262 133.813 199.156C133.681 199.051 133.258 200.953 132.861 203.384C131.567 211.18 129.426 218.869 127.259 223.652C126.07 226.242 123.79 228.176 123.103 228.704C120.566 230.633 116.769 231.5 111.51 232.029C104.851 232.689 95.0478 231.209 87.5697 228.408C85.5878 227.669 80.4879 225.528 80.1444 225.29C80.1238 225.27 80.0068 224.51 79.8435 223.45L79.8433 223.449L79.8433 223.449C79.7972 223.149 79.7475 222.826 79.6951 222.489C78.7439 215.962 77.4226 190.833 77.4226 179.206C77.4226 174.397 77.3698 173.34 77.0527 173.34C76.3921 173.34 76.1278 173.974 75.8372 176.246C75.1765 181.426 75.3087 208.458 76.0221 214.139L76.1807 215.434L75.2822 214.932C73.9082 214.139 68.6761 208.828 66.8528 206.37C65.3092 204.269 64.3918 201.579 63.7054 199.566L63.7054 199.565C63.5458 199.097 63.3987 198.666 63.2591 198.287C59.4275 187.664 60.7752 175.744 66.0601 165.016C70.5522 155.873 76.075 150.799 84.1609 148.342C85.4821 147.946 86.6448 147.523 86.7769 147.417C87.279 146.941 84.0552 147.179 82.2848 147.734C76.5242 149.505 70.4994 154.34 66.4036 160.524C60.643 169.191 58.0534 181.98 59.8767 192.894C60.2995 195.483 62.0171 201.085 62.4928 201.482C62.5349 201.524 62.7522 201.98 63.0809 202.669L63.081 202.67L63.0811 202.67C63.9899 204.576 65.75 208.269 67.0114 209.938C68.544 212.025 73.1683 216.57 75.0973 217.971L76.3128 218.843L76.4978 220.983C76.8413 225.079 76.9734 225.449 78.8231 226.823C83.4474 230.337 92.5639 233.614 100.808 234.777C104.64 235.305 112.964 235.12 116.135 234.433ZM205.45 209.621C190.097 208.273 171.547 200.953 158.123 189.643C152.468 184.86 145.122 175.559 142.216 170.407C141.608 169.35 141.159 168.848 140.63 168.715C140.075 168.557 140.551 168.398 142.823 168.028C152.416 166.39 161.743 162.4 169.274 156.719L170.384 155.899L170.701 156.666C171.415 158.383 174.163 160.127 176.198 160.127C177.017 160.127 179.765 158.885 181.43 157.749L182.566 156.983L183.491 157.908C184.336 158.753 184.495 158.806 186.08 158.806C187.904 158.806 190.097 157.987 191.313 156.824L191.973 156.217L193.849 157.459C194.853 158.172 197.654 159.731 200.059 160.973C203.653 162.823 207.458 164.963 211.078 167.183L211.659 167.553L211.105 168.293C210.523 169.085 209.44 170.592 209.44 172.89C209.44 175.48 212.133 180.133 217.288 183.328C221.338 185.839 228.307 190.776 228.043 197.994C228.011 198.866 227.039 201.033 225.744 202.988C224.898 204.23 222.546 206.08 220.406 207.163C216.759 208.986 210.338 210.043 205.45 209.621ZM64.5538 91.0007C65.2673 91.1593 65.743 91.3971 65.6373 91.5028C65.2937 91.8463 63.4704 91.6878 63.0476 91.265C62.387 90.6308 62.5456 90.1816 63.4704 89.9966C63.9461 89.9173 64.6595 89.521 65.0559 89.1246C65.4523 88.7282 65.7958 88.5433 65.7958 88.6754C65.7958 89.0189 64.4746 90.2344 63.814 90.4987C63.3912 90.6837 63.5233 90.7629 64.5538 91.0007ZM75.0708 91.4235C75.8372 91.0007 75.6786 90.7101 74.7802 90.8422C73.8817 90.9743 73.8289 90.8686 74.4102 89.9702C74.6481 89.6267 74.7802 89.1246 74.7273 88.8603C74.6481 88.5168 74.4631 88.6754 74.0403 89.521C73.7232 90.1287 73.274 90.6308 73.0626 90.6308C72.402 90.6308 72.3491 91.1593 72.9833 91.3971C73.8025 91.7406 74.4367 91.7406 75.0708 91.4235ZM65.9279 76.9957C65.2938 77.1014 63.3119 77.8942 61.5679 78.7662C59.7975 79.6118 58.2913 80.3252 58.1856 80.2988C55.4902 80.0081 59.2425 75.516 66.0601 70.9181C72.5869 66.5052 76.9998 64.1798 81.0956 62.9907C83.6588 62.2508 86.5391 62.1451 87.3583 62.7529C87.8075 63.0964 87.6489 63.1228 85.6935 63.1493C81.4656 63.1493 76.577 65.3161 68.6233 70.6274C64.501 73.3756 59.7182 77.3128 59.7182 77.947C59.7182 78.0791 60.4845 77.8149 61.4358 77.3921C63.4705 76.4672 65.558 75.9916 66.4829 76.203C67.4606 76.4672 67.2492 76.8108 65.9279 76.9957ZM76.1543 79.2683C78.6382 78.7662 78.7439 78.7398 78.7439 78.4756C78.7439 78.3434 77.7926 78.2113 76.6035 78.1585L74.4631 78.0792L76.4449 75.8331C77.5284 74.5912 78.7967 73.3492 79.246 73.0585C80.2237 72.4243 80.2765 71.9751 79.4838 71.7109L78.876 71.5259L79.5366 71.2881C79.9066 71.156 80.5936 71.1031 81.0692 71.1824C81.7827 71.2881 81.9413 71.2352 81.862 70.8653C81.7827 70.4953 81.492 70.4161 80.1972 70.4425C76.4185 70.4953 74.8066 71.4995 77.7662 71.9751C78.5853 72.1072 79.2724 72.3186 79.2724 72.4508C79.2724 72.5565 79.1403 72.6622 78.9817 72.6622C78.4796 72.6622 74.2253 76.9694 73.6968 78.0264C72.8776 79.5854 73.3268 79.8232 76.1543 79.2683ZM93.5945 69.0155C92.8282 69.0683 92.6432 69.2004 92.696 69.5704L92.7042 69.6242C92.7339 69.8197 92.7509 69.9319 92.7071 69.966C92.648 70.0121 92.4779 69.9156 92.0784 69.689L92.0783 69.689L92.009 69.6496C91.5069 69.3854 91.4541 69.2533 91.7448 69.0419C91.9297 68.8833 92.4318 68.6455 92.8282 68.5662L93.5681 68.3813L93.0131 67.7999C92.7225 67.4564 92.5639 67.1393 92.6432 67.0336C92.8546 66.8222 95.4442 67.1129 95.8141 67.4036C95.9727 67.5357 96.2105 67.5092 96.3691 67.3507C96.739 66.9808 97.2411 67.2714 97.2411 67.8528C97.2411 68.1699 97.1618 68.1963 96.924 67.9585C96.7126 67.7471 96.5276 67.7471 96.2898 67.932C96.0784 68.117 95.9198 68.117 95.7877 67.9056C95.7084 67.7735 95.2064 67.6414 94.6779 67.6414C94.1903 67.6414 93.9598 67.6414 93.9127 67.7343C93.8705 67.8176 93.9759 67.9757 94.1758 68.2756C94.5973 68.9341 94.5723 68.9362 93.6035 69.0147L93.5945 69.0155ZM89.5779 61.9865C89.5779 61.643 89.2608 61.0352 88.8645 60.6389L88.1246 59.899L92.0883 60.0575C94.2815 60.1632 96.7654 60.401 97.6374 60.6389C98.5094 60.8503 99.5136 61.0088 99.8835 61.0088C100.438 61.0088 100.333 60.9031 99.3022 60.3482C97.5053 59.4233 95.2064 58.9741 90.7935 58.657C85.5086 58.2871 82.8397 58.7891 83.3417 60.1104C83.421 60.3746 83.8438 60.5067 84.478 60.5067C85.7728 60.5067 87.8868 61.273 88.6002 61.9865C89.3665 62.7528 89.5779 62.7528 89.5779 61.9865ZM76.6828 131.959C78.8232 134.707 81.6506 137.825 82.9718 138.882C83.7646 139.516 84.4516 140.045 84.5045 140.045C84.5309 140.045 83.9495 138.829 83.2097 137.349C80.2237 131.404 78.4796 125.485 77.6605 118.667C77.4755 117.161 77.1848 115.893 76.8677 115.364C76.2336 114.307 76.2336 112.933 76.8942 111.638C77.2377 110.951 77.4227 110.079 77.4227 109.128V107.675L76.1543 108.996C74.9123 110.291 73.7232 110.819 73.7232 110.026C73.7232 109.445 75.6786 106.644 76.7092 105.772C77.5284 105.085 77.6341 104.847 77.8983 102.786C78.0833 101.544 78.5061 99.3508 78.8496 97.8975C79.2195 96.4441 79.4309 95.2022 79.3781 95.1493C79.1931 94.9644 72.9833 102.096 72.1377 104.372C71.9521 104.871 71.4507 105.746 71.0543 106.274L70.3673 107.156C70.3673 107.156 70.5807 108.391 70.8165 109.944C71.0548 111.512 71.1665 112.59 71.2661 113.551C71.3993 114.835 71.5106 115.909 71.8735 117.663C72.2963 119.83 72.7191 121.706 72.8248 121.838C72.9041 121.997 73.2476 123.212 73.5911 124.56C74.331 127.546 75.5729 130.505 76.6828 131.959ZM183.914 156.956L183.359 156.401C183.359 156.401 192.569 144.7 194.219 140.388C195.479 137.098 196.22 136.165 197.22 136.165C197.779 136.165 198.236 136.292 198.447 136.609C198.817 137.164 199.174 137.851 198.698 140.203C197.905 144.008 196.69 146.519 193.043 151.936C192.197 153.178 191.114 154.552 190.638 155.027C189.529 156.058 187.032 157.115 185.578 157.353C184.653 157.485 184.389 157.432 183.914 156.956Z" fill="#274772"/>
<path d="M257.083 182.806C260.371 173.849 259.873 171.941 259.303 171.754C259.303 171.754 258.047 172.468 257.493 173.974C256.462 176.801 252.935 184.2 251.613 185.521C250.054 187.08 250.054 187.08 248.469 187.08C246.883 187.08 242.311 184.693 241.688 182.339C240.692 178.573 244.981 165.491 245.086 164.752L244.373 164.25C243.897 164.699 237.71 183.46 229.575 178.572C228.644 178.012 226.669 175.374 226.51 173.974C225.63 169.904 229.67 155.675 230.357 152.752C230.972 150.136 234.173 147.708 238.11 147.708C244.162 147.708 243.349 152.997 246.059 154.861C247.26 155.687 249.234 154.19 249.843 154.076C253.252 153.442 254.558 154.18 257.057 156.164C258.986 157.695 260.413 160.724 261.984 161.792C262.857 162.385 263.782 161.574 264.086 161.422C265.329 160.798 267.997 161.264 268.736 161.792C269.821 162.265 272.479 164.82 272.899 166.306C274.802 173.041 268.793 187.973 266.524 190.774C262.768 195.41 253.796 191.763 257.083 182.806Z" fill="white"/>
<path fill-rule="evenodd" clip-rule="evenodd" d="M105.168 158.263C112.409 162.835 119.874 165.821 128.383 166.64C135.095 167.274 144.145 166.402 150.645 164.288C156.115 162.518 163.514 157.613 168.455 153.464C178.047 145.431 184.099 132.884 186.741 119.566C187.111 117.69 187.675 112.974 187.649 108.296C187.649 102.853 185.253 87.9775 177.994 79.4004C163.024 61.7101 138.415 53.7411 117.733 60.5501C110.272 63.0063 102.328 67.4565 96.3301 73.2699C88.7727 80.6423 83.1971 90.6837 80.9774 100.936C78.6521 111.77 81.6769 124.719 86.9354 135.341C91.1369 143.797 98.0602 153.745 105.168 158.263ZM175.722 126.33C170.754 141.26 157.806 152.411 141.529 155.794C139.045 156.296 137.327 156.481 133.839 156.534C131.382 156.613 128.924 156.587 128.422 156.534C117.033 155.16 108.366 150.958 100.386 142.978C96.8975 139.463 95.4177 137.561 93.2509 133.809C89.8422 127.863 88.0189 121.785 87.4639 114.466C85.5614 89.3889 103.504 68.487 128.766 66.3202C138.675 65.4746 149.667 68.5135 158.018 74.4326C161.109 76.6258 166.711 82.175 168.455 84.7646C169.169 85.7951 176.092 95.9157 177.307 101.729C178.867 109.287 178.259 118.747 175.722 126.33Z" fill="white"/>
<path fill-rule="evenodd" clip-rule="evenodd" d="M187.658 108.296C187.658 126.033 179.268 145.423 168.441 153.705C163.275 157.656 156.524 162.44 150.645 164.288C142.03 166.997 128.383 166.64 128.383 166.64C128.383 166.64 142.305 164.779 147.465 162.702C162.259 156.748 170.335 147.609 175.322 138.839C185.166 121.529 187.658 107.865 187.658 108.296Z" fill="#E7EAEE"/>
<path fill-rule="evenodd" clip-rule="evenodd" d="M128.686 153.363C121.631 152.464 114.628 149.954 108.974 146.228C105.618 144.035 100.544 138.882 98.0867 135.209C94.5722 129.924 92.2469 124.269 91.1106 118.192C90.2914 113.779 90.3179 106.988 91.137 103.05C91.9826 99.0338 93.066 95.9685 94.995 92.0841C97.2411 87.592 99.6193 84.2889 103.187 80.7216C109.264 74.6439 116.32 70.7859 124.723 68.9362C127.444 68.3549 137.301 67.8792 137.644 68.3285C137.724 68.4606 138.252 68.8041 138.807 69.0948C139.362 69.4119 140.842 70.5217 142.057 71.6051C143.88 73.1906 144.7 74.1947 146.285 76.6786C147.368 78.3698 148.241 79.9024 148.241 80.0345C148.241 80.3252 149.086 80.8537 149.562 80.8537C150.222 80.8537 150.672 78.8719 150.804 75.3838C150.883 73.4548 151.042 71.8693 151.147 71.8693C151.517 71.8693 155.587 74.1154 157.489 75.3838C161.215 77.8677 164.941 81.3558 167.689 85.0024C168.931 86.6407 169.116 87.0635 169.116 88.0676C169.116 88.9925 169.38 89.7059 170.199 91.1329C172.26 94.7266 173.872 99.2452 174.85 104.239C175.484 107.595 175.484 113.937 174.824 117.452C173.027 127.123 167.689 136.742 160.739 142.846C154.847 147.999 148.584 151.169 141.185 152.729C138.648 153.283 131.038 153.653 128.686 153.363ZM109.793 135.288C110.031 135.024 110.189 134.628 110.11 134.443C110.086 134.387 109.755 134.232 109.272 134.004L109.271 134.004L109.271 134.004L109.271 134.004C108.142 133.473 106.179 132.551 105.328 131.589C101.946 127.731 100.704 124.851 99.9378 118.905C99.1979 113.118 99.8195 109.206 101.153 102.918C101.804 99.851 103.533 97.3175 104.609 95.7412C105.341 94.6694 105.77 94.0402 105.353 93.9868C104.323 93.8282 104.164 93.9075 103.081 94.9381C100.756 97.1577 99.6985 98.9282 98.5887 102.337C96.8711 107.675 96.5392 122.1 99.9378 128.603C103.336 135.106 109.185 135.975 109.793 135.288ZM147.368 113.092C146.92 117.197 145.017 123.133 142.797 125.723C141.766 126.938 137.984 129.026 134.79 128.603C131.706 128.194 129.294 126.753 127.233 123.661C125.463 120.993 124.548 117.753 123.93 113.673C122.862 106.628 127.524 98.426 129.532 96.3913C131.567 94.3038 133.02 93.5639 134.87 93.5375C136.667 93.5375 137.829 93.9338 139.653 95.2286C142.982 97.554 148.24 105.115 147.368 113.092ZM111.748 91.2386C112.277 90.6308 112.356 90.3401 112.197 89.2039C112.092 88.1469 111.88 87.7241 111.325 87.2749C110.348 86.4821 109.132 86.4821 108.234 87.3277C107.6 87.9355 107.52 88.1469 107.6 89.6002C107.679 91.1593 107.732 91.265 108.604 91.7406C109.766 92.3748 110.903 92.1898 111.748 91.2386ZM128.237 74.9346C123.481 78.3434 121.42 79.7439 119.279 81.0651C117.588 82.1221 117.06 82.1486 117.06 81.1973C117.06 80.6952 117.429 80.1403 118.381 79.2683L119.702 78.0527L117.139 77.7092C114.259 77.3393 111.457 76.5465 110.85 75.9388C109.846 74.9082 110.718 74.6704 113.571 75.1989C114.84 75.4103 117.297 75.6745 119.041 75.7274L122.212 75.8595L124.511 74.1948C129.558 70.5482 134.79 68.487 137.301 69.1212C138.86 69.4912 138.675 69.914 136.904 70.1254C134.87 70.3632 133.628 71.0502 128.237 74.9346Z" fill="white"/>
<path d="M135.028 124.983C135.028 124.851 135.187 124.719 135.398 124.719C135.61 124.719 135.874 124.851 135.953 124.983C136.032 125.141 135.874 125.247 135.583 125.247C135.266 125.247 135.028 125.141 135.028 124.983Z" fill="white"/>
<path d="M136.614 124.745C136.614 124.454 137.274 124.19 138.014 124.19C138.595 124.216 138.595 124.216 138.093 124.586C137.512 125.036 136.614 125.115 136.614 124.745Z" fill="white"/>
<path d="M132.518 124.058C132.439 123.846 132.333 123.476 132.254 123.265C132.174 123.001 132.306 122.869 132.65 122.869C132.941 122.869 133.178 123.027 133.178 123.239C133.178 123.45 133.258 123.794 133.337 124.031C133.443 124.322 133.363 124.454 133.073 124.454C132.835 124.454 132.571 124.269 132.518 124.058Z" fill="white"/>
<path d="M133.918 123.397C133.786 122.604 134.077 122.34 135.028 122.34C135.319 122.34 135.557 122.604 135.662 123.054C135.874 123.82 135.53 124.19 134.605 124.19C134.183 124.19 133.998 124.005 133.918 123.397Z" fill="white"/>
<path d="M131.223 123.529C130.721 123.133 130.721 123.133 131.276 123.133C131.619 123.133 131.857 123.292 131.857 123.529C131.857 124.005 131.857 124.005 131.223 123.529Z" fill="white"/>
<path d="M136.534 123.503C136.191 123.159 136.349 122.129 136.772 121.97C137.538 121.679 137.882 121.812 138.041 122.499C138.146 122.895 138.199 123.238 138.146 123.265C137.935 123.503 136.693 123.661 136.534 123.503Z" fill="white"/>
<path d="M138.886 122.948C138.807 122.869 138.728 122.525 138.728 122.208C138.728 121.759 138.939 121.574 139.573 121.442C140.128 121.336 140.472 121.389 140.63 121.6C140.894 122.023 140.894 122.552 140.657 122.684C140.181 122.948 139.071 123.107 138.886 122.948Z" fill="white"/>
<path d="M130.008 122.129C130.008 121.812 130.245 121.547 130.589 121.468C131.276 121.283 131.25 121.257 131.382 121.944C131.435 122.34 131.302 122.499 130.747 122.552C130.166 122.631 130.008 122.525 130.008 122.129Z" fill="white"/>
<path d="M132.016 122.155C131.646 121.759 131.884 121.019 132.386 121.019C132.729 121.019 132.914 121.204 132.914 121.521C132.914 122.023 132.306 122.446 132.016 122.155Z" fill="white"/>
<path d="M133.601 121.362C133.39 120.86 133.839 120.49 134.711 120.49C135.108 120.49 135.292 120.649 135.292 120.993C135.292 121.283 135.055 121.547 134.711 121.653C133.839 121.865 133.786 121.865 133.601 121.362Z" fill="white"/>
<path d="M141.238 121.283C141.317 121.151 141.449 121.019 141.529 121.019C141.608 121.019 141.581 121.151 141.502 121.283C141.423 121.442 141.291 121.547 141.211 121.547C141.132 121.547 141.159 121.442 141.238 121.283Z" fill="white"/>
<path d="M135.98 120.834C135.768 120.306 136.032 120.041 136.878 119.909C137.354 119.856 137.565 119.962 137.618 120.332C137.803 121.204 136.297 121.68 135.98 120.834Z" fill="white"/>
<path d="M129.638 120.385C129.4 119.513 129.453 119.433 130.14 119.433C130.51 119.433 130.8 119.539 130.8 119.671C130.8 119.803 130.88 120.094 130.959 120.305C131.038 120.57 130.88 120.728 130.43 120.807C129.928 120.913 129.743 120.807 129.638 120.385Z" fill="white"/>
<path d="M138.463 120.094C138.463 119.618 138.648 119.407 139.15 119.275C139.89 119.09 140.313 119.46 140.313 120.305C140.313 120.649 140.102 120.755 139.388 120.755C138.569 120.755 138.463 120.675 138.463 120.094Z" fill="white"/>
<path d="M128.845 120.094C128.766 119.883 128.818 119.698 128.951 119.698C129.109 119.698 129.215 119.883 129.215 120.094C129.215 120.306 129.162 120.49 129.109 120.49C129.056 120.49 128.951 120.306 128.845 120.094Z" fill="white"/>
<path d="M131.514 120.306C131.144 119.962 131.355 119.222 131.831 119.09C132.121 119.011 132.412 119.037 132.491 119.117C132.809 119.407 132.624 120.174 132.227 120.332C131.725 120.517 131.725 120.517 131.514 120.306Z" fill="white"/>
<path d="M140.947 120.12C140.657 119.354 140.974 118.773 141.714 118.694C142.269 118.614 142.427 118.72 142.427 119.143C142.427 120.015 142.136 120.49 141.608 120.49C141.317 120.49 141.027 120.332 140.947 120.12Z" fill="white"/>
<path d="M133.363 119.777C133.046 119.486 133.152 118.958 133.601 118.799C134.103 118.614 135.16 119.143 134.87 119.434C134.5 119.751 133.548 119.988 133.363 119.777Z" fill="white"/>
<path d="M135.662 119.116C135.425 118.747 136.27 118.112 136.957 118.112C137.274 118.112 137.406 118.271 137.354 118.562C137.248 119.09 135.9 119.513 135.662 119.116Z" fill="white"/>
<path d="M128.422 118.932C128.422 118.799 128.343 118.509 128.264 118.271C128.184 118.033 128.211 117.848 128.369 117.848C128.713 117.848 128.977 118.852 128.66 119.064C128.528 119.143 128.422 119.09 128.422 118.932Z" fill="white"/>
<path d="M129.136 118.324C128.977 117.742 129.294 117.32 129.902 117.32C130.245 117.32 130.589 118.35 130.377 118.694C130.087 119.143 129.268 118.879 129.136 118.324Z" fill="white"/>
<path d="M130.985 118.456C130.589 118.059 130.827 117.108 131.355 116.976C131.752 116.87 131.963 117.002 132.174 117.478C132.333 117.822 132.412 118.165 132.359 118.218C132.095 118.456 131.144 118.641 130.985 118.456Z" fill="white"/>
<path d="M138.12 118.456C137.776 118.112 137.935 117.901 138.728 117.61C139.388 117.399 139.573 117.425 139.705 117.742C139.943 118.377 138.622 118.984 138.12 118.456Z" fill="white"/>
<path d="M140.445 117.848C140.181 117.425 140.551 117.055 141.238 117.055C142.057 117.055 142.295 117.742 141.555 117.954C140.762 118.165 140.63 118.139 140.445 117.848Z" fill="white"/>
<path d="M142.691 117.214C142.691 116.818 143.167 116.395 143.378 116.606C143.563 116.791 143.193 117.584 142.929 117.584C142.797 117.584 142.691 117.425 142.691 117.214Z" fill="white"/>
<path d="M128.078 116.87C127.973 116.791 127.893 116.448 127.92 116.157C127.92 115.655 127.946 115.655 128.184 116.236C128.448 116.87 128.396 117.188 128.078 116.87Z" fill="white"/>
<path d="M128.581 116.474C128.343 115.549 128.369 115.47 129.056 115.47C129.823 115.47 130.298 116.447 129.717 116.817C129.109 117.187 128.766 117.082 128.581 116.474Z" fill="white"/>
<path d="M137.671 117.002C137.671 116.923 137.803 116.5 137.961 116.025C138.331 114.968 139.15 114.915 139.335 115.945C139.415 116.342 139.441 116.685 139.415 116.712C139.283 116.87 137.671 117.108 137.671 117.002Z" fill="white"/>
<path d="M130.457 116.342C130.351 116.263 130.272 115.946 130.272 115.655C130.272 115.232 130.351 115.206 130.668 115.47C130.88 115.655 131.064 115.972 131.064 116.157C131.064 116.553 130.747 116.659 130.457 116.342Z" fill="white"/>
<path d="M139.97 115.813C139.811 114.994 140.155 114.624 140.974 114.73C141.37 114.783 141.502 115.021 141.502 115.602C141.502 116.263 141.396 116.421 140.815 116.474C140.234 116.553 140.102 116.421 139.97 115.813Z" fill="white"/>
<path d="M142.559 115.919C142.216 114.862 142.321 114.545 143.035 114.466C143.669 114.386 143.748 114.466 143.748 115.153C143.748 115.734 143.59 115.972 143.193 116.078C142.903 116.157 142.612 116.078 142.559 115.919Z" fill="white"/>
<path d="M127.682 114.413C127.682 113.911 127.735 113.699 127.814 113.964C127.867 114.201 127.867 114.624 127.814 114.888C127.735 115.126 127.682 114.915 127.682 114.413Z" fill="white"/>
<path d="M128.343 114.757C127.999 114.439 128.158 113.409 128.581 113.25C129.188 113.013 129.479 113.303 129.479 114.175C129.479 114.73 129.347 114.942 129.003 114.942C128.739 114.942 128.422 114.862 128.343 114.757Z" fill="white"/>
<path d="M129.928 114.043C129.823 113.647 129.77 113.224 129.875 113.145C130.14 112.88 130.298 113.303 130.219 114.069L130.14 114.809L129.928 114.043Z" fill="white"/>
<path d="M138.463 113.858C138.463 113.567 138.595 113.409 138.728 113.488C138.886 113.567 138.992 113.831 138.992 114.043C138.992 114.254 138.886 114.413 138.728 114.413C138.595 114.413 138.463 114.175 138.463 113.858Z" fill="white"/>
<path d="M139.652 114.201C139.282 113.805 139.573 113.092 140.181 112.933C140.947 112.748 140.974 112.748 141.211 113.514C141.37 113.99 141.264 114.096 140.577 114.201C140.154 114.281 139.732 114.254 139.652 114.201Z" fill="white"/>
<path d="M142.083 113.699C141.793 113.435 141.872 112.563 142.163 112.563C142.321 112.563 142.427 112.457 142.427 112.299C142.427 112.167 142.268 112.035 142.057 112.035C141.608 112.035 141.238 110.74 141.608 110.37C142.083 109.894 142.612 110.396 142.929 111.691C143.114 112.378 143.299 113.171 143.378 113.435C143.484 113.779 143.378 113.884 142.876 113.884C142.533 113.884 142.163 113.805 142.083 113.699Z" fill="white"/>
<path d="M143.51 112.299C143.326 111.506 142.85 109.921 142.506 108.758C141.978 107.067 141.925 106.644 142.216 106.459C142.401 106.327 142.638 106.221 142.718 106.221C143.008 106.221 144.065 111.638 143.96 112.695L143.88 113.752L143.51 112.299Z" fill="white"/>
<path d="M127.418 112.167C127.418 111.744 127.471 111.585 127.55 111.85C127.603 112.087 127.603 112.457 127.55 112.642C127.471 112.801 127.418 112.616 127.418 112.167Z" fill="white"/>
<path d="M127.946 112.114C128.052 111.189 128.818 110.977 129.03 111.823C129.215 112.51 129.268 112.431 128.475 112.695C127.92 112.854 127.867 112.801 127.946 112.114Z" fill="white"/>
<path d="M139.098 111.876C138.886 111.11 139.335 110.661 140.181 110.766C140.815 110.846 141.053 111.982 140.524 112.325C139.864 112.748 139.256 112.563 139.098 111.876Z" fill="white"/>
<path d="M129.479 111.665C129.479 111.215 129.611 110.978 129.902 110.978C130.166 110.978 130.272 111.163 130.219 111.559C130.087 112.404 129.479 112.484 129.479 111.665Z" fill="white"/>
<path d="M127.127 110.555C127.127 110.264 127.207 110.185 127.286 110.396C127.365 110.581 127.339 110.819 127.259 110.898C127.18 111.004 127.101 110.846 127.127 110.555Z" fill="white"/>
<path d="M127.629 110.476C127.629 110.079 127.788 109.921 128.184 109.921C128.554 109.921 128.686 110.053 128.633 110.37C128.501 111.057 127.629 111.136 127.629 110.476Z" fill="white"/>
<path d="M129.083 110.238C128.898 109.762 128.898 109.762 129.69 109.551C130.166 109.392 130.272 109.471 130.272 109.868C130.272 110.502 129.321 110.819 129.083 110.238Z" fill="white"/>
<path d="M138.648 109.868C138.463 109.207 138.807 108.864 139.732 108.864C140.181 108.864 140.313 109.022 140.313 109.524C140.313 109.921 140.155 110.185 139.943 110.185C139.732 110.185 139.388 110.264 139.177 110.344C138.939 110.423 138.754 110.264 138.648 109.868Z" fill="white"/>
<path d="M140.947 109.26C140.736 108.732 141.053 108.335 141.661 108.335C142.031 108.335 142.163 108.52 142.163 108.996C142.163 109.471 142.031 109.656 141.634 109.656C141.344 109.656 141.027 109.471 140.947 109.26Z" fill="white"/>
<path d="M127.365 108.89C127.365 108.335 127.973 107.701 128.237 107.992C128.343 108.071 128.422 108.441 128.422 108.784C128.422 109.207 128.263 109.392 127.893 109.392C127.55 109.392 127.365 109.207 127.365 108.89Z" fill="white"/>
<path d="M128.818 108.573C128.607 107.912 128.845 107.622 129.743 107.49C130.562 107.384 130.827 108.256 130.113 108.784C129.426 109.286 129.003 109.207 128.818 108.573Z" fill="white"/>
<path d="M138.384 108.415C138.199 108.256 138.12 107.278 138.278 107.278C138.305 107.278 138.701 107.173 139.177 107.04C139.97 106.803 140.022 106.829 139.996 107.543C139.97 108.071 139.811 108.335 139.415 108.441C138.701 108.626 138.595 108.626 138.384 108.415Z" fill="white"/>
<path d="M137.406 107.807C137.406 107.622 137.486 107.542 137.591 107.622C137.671 107.727 137.671 107.886 137.591 107.992C137.486 108.071 137.406 107.992 137.406 107.807Z" fill="white"/>
<path d="M140.366 107.384C140.445 106.935 141.264 106.274 141.449 106.485C141.529 106.565 141.661 106.882 141.74 107.225C141.925 107.754 141.846 107.807 141.106 107.807C140.472 107.807 140.287 107.701 140.366 107.384Z" fill="white"/>
<path d="M127.629 107.358C127.629 107.225 127.761 106.961 127.894 106.75C128.105 106.433 128.158 106.459 128.158 106.961C128.158 107.278 128.052 107.543 127.894 107.543C127.761 107.543 127.629 107.463 127.629 107.358Z" fill="white"/>
<path d="M128.422 106.776C128.422 106.036 128.977 105.798 129.4 106.353C129.664 106.75 129.664 106.882 129.4 107.067C128.845 107.41 128.422 107.305 128.422 106.776Z" fill="white"/>
<path d="M136.455 106.433C135.979 105.904 135.979 105.878 136.429 106.036C136.693 106.142 137.036 106.221 137.169 106.221C137.301 106.221 137.406 106.406 137.406 106.618C137.406 107.173 137.036 107.12 136.455 106.433Z" fill="white"/>
<path d="M130.774 106.406C129.637 105.534 129.479 103.579 130.536 103.579C131.249 103.579 131.91 104.689 131.804 105.719C131.725 106.671 131.408 106.882 130.774 106.406Z" fill="white"/>
<path d="M138.014 106.565C138.12 106.486 138.278 106.486 138.384 106.565C138.463 106.671 138.384 106.75 138.199 106.75C138.014 106.75 137.935 106.671 138.014 106.565Z" fill="white"/>
<path d="M142.004 105.534C142.084 105.296 142.163 105.058 142.163 105.006C142.163 104.953 142.295 104.9 142.427 104.9C142.586 104.9 142.691 105.138 142.691 105.428C142.691 105.746 142.506 105.957 142.269 105.957C141.978 105.957 141.899 105.825 142.004 105.534Z" fill="white"/>
<path d="M128.158 105.455C128.158 104.847 128.713 103.843 129.03 103.843C129.585 103.843 129.188 105.534 128.607 105.64C128.369 105.693 128.158 105.613 128.158 105.455Z" fill="white"/>
<path d="M134.103 105.164L133.311 104.979L134.024 104.794C134.764 104.583 135.292 104.741 135.292 105.191C135.292 105.455 135.266 105.455 134.103 105.164Z" fill="white"/>
<path d="M133.178 103.896C133.178 102.812 133.786 102.654 134.341 103.605C134.711 104.239 134.738 104.372 134.394 104.372C134.183 104.372 133.839 104.451 133.601 104.53C133.284 104.662 133.178 104.504 133.178 103.896Z" fill="white"/>
<path d="M137.776 104.266C136.587 103.737 135.821 102.337 135.821 100.672C135.821 99.483 135.927 99.1923 136.64 98.5317C137.089 98.1089 137.539 97.7654 137.671 97.7654C138.252 97.7654 140.392 99.8001 141.106 101.068L141.925 102.522L141.053 103.447C140.049 104.504 138.939 104.794 137.776 104.266Z" fill="white"/>
<path d="M132.254 103.579C132.174 103.447 132.227 103.314 132.359 103.314C132.518 103.314 132.65 103.447 132.65 103.579C132.65 103.737 132.597 103.843 132.544 103.843C132.465 103.843 132.333 103.737 132.254 103.579Z" fill="white"/>
<path d="M128.792 103.156C128.871 102.918 128.95 102.68 128.95 102.627C128.95 102.575 129.188 102.522 129.479 102.522C130.14 102.522 130.166 102.945 129.505 103.314C128.792 103.684 128.607 103.658 128.792 103.156Z" fill="white"/>
<path d="M130.879 102.839C130.272 102.759 130.087 102.416 130.483 102.178C130.589 102.099 131.064 101.967 131.54 101.861C132.254 101.702 132.386 101.755 132.386 102.205C132.386 102.759 131.831 102.997 130.879 102.839Z" fill="white"/>
<path d="M132.914 101.94C132.914 101.623 132.941 101.438 132.993 101.491C133.02 101.544 133.231 101.808 133.416 102.072C133.733 102.442 133.707 102.522 133.337 102.522C133.073 102.522 132.914 102.31 132.914 101.94Z" fill="white"/>
<path d="M129.215 101.755C129.215 101.597 129.347 101.412 129.479 101.333C129.638 101.253 129.743 101.359 129.743 101.571C129.743 101.808 129.638 101.993 129.479 101.993C129.347 101.993 129.215 101.888 129.215 101.755Z" fill="white"/>
<path d="M130.192 101.359C129.981 100.831 131.857 100.249 132.174 100.751C132.412 101.174 132.174 101.359 131.17 101.571C130.562 101.703 130.298 101.65 130.192 101.359Z" fill="white"/>
<path d="M132.676 100.514C132.676 100.223 132.756 100.144 132.835 100.355C132.914 100.54 132.888 100.778 132.808 100.857C132.729 100.963 132.65 100.804 132.676 100.514Z" fill="white"/>
<path d="M130.43 100.091C130.747 99.5094 131.672 98.5581 131.91 98.5581C132.174 98.5581 132.201 99.8001 131.936 99.9586C131.804 100.011 131.382 100.144 130.985 100.249C130.404 100.381 130.272 100.355 130.43 100.091Z" fill="white"/>
<path d="M132.544 99.4831C132.254 98.6904 132.386 98.3468 133.02 98.2411C133.68 98.109 133.68 98.109 133.258 98.9282C132.729 99.9852 132.756 99.9852 132.544 99.4831Z" fill="white"/>
<path d="M132.386 97.8974C132.386 97.8446 132.914 97.4746 133.575 97.1047C134.367 96.6291 134.922 96.4705 135.319 96.5762C135.794 96.7348 135.662 96.8405 134.5 97.3954C133.205 97.9767 132.386 98.1881 132.386 97.8974Z" fill="white"/>
<path d="M147.051 74.4851C146.338 73.4546 144.832 71.7898 143.748 70.7857C142.665 69.7816 141.951 68.9624 142.163 68.9624C142.744 68.9624 147.184 70.1779 148.293 70.6536C149.218 71.0499 149.245 71.1028 149.007 71.922C148.875 72.3976 148.769 73.5867 148.769 74.5644C148.769 75.5685 148.69 76.3613 148.584 76.3613C148.452 76.3613 147.791 75.5157 147.051 74.4851Z" fill="white"/>
<path d="M93.2773 154.525C92.1939 153.97 91.9561 153.653 90.582 150.932C88.6002 147.074 88.5473 146.175 90.4235 148.368C91.1634 149.24 92.881 151.037 94.2286 152.359C96.5276 154.578 96.6333 154.737 95.8669 154.631C95.312 154.552 95.1006 154.605 95.2328 154.816C95.5498 155.292 94.5457 155.16 93.2773 154.525Z" fill="white"/>
<path fill-rule="evenodd" clip-rule="evenodd" d="M137.562 202.669C137.343 202.148 137.587 201.548 138.108 201.328L138.677 201.087C144.212 198.718 147.389 197.296 149.548 195.037C151.707 192.778 151.965 189.459 152.371 187.44C152.482 186.886 153.737 187.859 154.291 187.971C154.845 188.082 155.204 188.621 155.093 189.176C154.605 191.603 153.292 193.917 151.178 196.114C149.071 198.304 144.992 200.651 138.902 203.215C138.381 203.434 137.781 203.19 137.562 202.669Z" fill="#274772"/>
<path fill-rule="evenodd" clip-rule="evenodd" d="M162.593 97.2345C163.078 96.9454 163.706 97.1047 163.996 97.5904C166.89 102.453 168.441 108.011 168.441 113.795C168.441 131.315 154.238 145.518 136.717 145.518C132.062 145.518 127.546 144.514 123.411 142.601C122.899 142.363 120.961 140.474 122.912 141.242C124.864 142.011 132.415 143.736 136.772 143.736C153.162 143.736 164.757 130.185 164.757 113.795C164.757 108.383 162.593 103.579 162.237 98.6373C162.196 98.0645 162.107 97.5236 162.593 97.2345Z" fill="#274772"/>
<path fill-rule="evenodd" clip-rule="evenodd" d="M61.2441 174.685C61.6059 174.251 62.2511 173.374 62.6854 173.735C64.4669 175.219 66.3679 176.938 68.4015 177.27C70.5176 177.616 73.028 177.616 75.9294 177.264C76.4905 177.196 77.0004 177.596 77.0683 178.157C77.1363 178.718 76.7365 179.228 76.1754 179.296C73.0942 179.669 70.3941 179.669 68.0718 179.29C65.667 178.898 63.4306 177.838 61.3755 176.127C60.9412 175.765 60.8824 175.12 61.2441 174.685Z" fill="#274772"/>
<path d="M82.9718 138.882C81.6506 137.825 78.8232 134.707 76.6828 131.959C75.573 130.505 74.331 127.546 73.5911 124.56C73.2476 123.212 72.9041 121.997 72.8248 121.838C72.7191 121.706 72.2963 119.83 71.8735 117.663C71.2393 114.598 71.3735 113.61 70.8165 109.944C70.5807 108.391 70.3673 107.156 70.3673 107.156L71.0543 106.274C71.4507 105.746 71.9521 104.871 72.1378 104.371C72.9833 102.096 79.1931 94.9643 79.3781 95.1493C79.4309 95.2021 79.2195 96.4441 78.8496 97.8974C78.5061 99.3508 78.0833 101.544 77.8983 102.786C77.6341 104.847 77.5284 105.085 76.7092 105.772C75.6786 106.644 73.7232 109.445 73.7232 110.026C73.7232 110.819 74.9123 110.291 76.1543 108.996L77.4227 107.675V109.128C77.4227 110.079 77.2377 110.951 76.8942 111.638C76.2336 112.933 76.2336 114.307 76.8678 115.364C77.1849 115.893 77.4755 117.161 77.6605 118.667C78.4797 125.485 80.2237 131.404 83.2097 137.349C83.9495 138.829 84.5309 140.045 84.5045 140.045C84.4516 140.045 83.7646 139.516 82.9718 138.882Z" fill="white"/>
<path fill-rule="evenodd" clip-rule="evenodd" d="M192.924 155.186L194.827 156.031C195.221 156.213 199.573 158.305 204.801 160.817C213.23 164.866 223.934 170.01 224 170.01C224.105 170.01 224.601 168.863 224.713 167.526C224.977 164.646 225.955 160.735 227.091 158.013C227.62 156.798 228.043 155.279 228.043 155.146C228.043 155.086 227.613 154.913 226.91 154.629C226.072 154.291 224.847 153.797 223.498 153.151C216.839 149.954 203.811 143.427 202.199 142.449C200.614 141.524 200.297 141.445 200.297 142.053C200.297 142.846 198.685 146.519 197.443 148.5C196.782 149.584 195.487 151.539 194.563 152.834L192.924 155.186ZM223.55 165.254C224.308 165.693 222.995 166.337 222.678 166.443C220.811 166.601 218.613 166.25 216.812 165.201C215.87 164.533 208.456 160.414 203.537 157.681C201.288 156.432 199.562 155.472 199.213 155.265C198.104 154.605 197.047 153.891 196.862 153.68C196.307 152.966 196.835 152.649 198.394 152.781C199.332 152.861 221.914 164.305 223.55 165.254Z" fill="white"/>
<path d="M173.952 157.564C173.264 157.326 172.525 156.798 172.049 156.19L171.256 155.212L174.057 152.438C178.364 148.21 181.535 143.589 184.389 138.436C185.341 136.719 188.168 129.792 188.511 129.026C189.04 127.916 189.436 127.493 190.573 126.859C191.92 126.066 193.453 125.802 194.113 126.251C195.382 127.097 195.382 129.765 194.113 134.363C192.713 139.41 190.837 143.031 186.952 148.236C186.345 149.029 185.208 150.588 184.389 151.671C182.196 154.578 180.769 155.979 178.84 157.062C176.938 158.119 175.828 158.251 173.952 157.564Z" fill="white"/>
<path d="M183.914 156.956L183.359 156.401C183.359 156.401 192.569 144.7 194.219 140.388C195.479 137.098 196.22 136.165 197.22 136.165C197.779 136.165 198.236 136.292 198.447 136.609C198.817 137.164 199.173 137.851 198.698 140.203C197.905 144.008 196.69 146.519 193.043 151.936C192.197 153.177 191.114 154.552 190.638 155.027C189.529 156.058 187.032 157.115 185.578 157.353C184.653 157.485 184.389 157.432 183.914 156.956Z" fill="white"/>
<path fill-rule="evenodd" clip-rule="evenodd" d="M199.384 144.72C199.917 143.501 200.297 142.438 200.297 142.053C200.297 141.445 200.614 141.524 202.199 142.449C203.811 143.427 216.839 149.954 223.497 153.151C225.981 154.34 228.043 155.014 228.043 155.146C228.043 155.279 198.819 146.013 199.384 144.72Z" fill="#E7EAEE"/>
<path fill-rule="evenodd" clip-rule="evenodd" d="M108.974 146.228C105.618 144.035 100.544 138.882 98.0867 135.209C94.5722 129.924 92.2468 124.269 91.1106 118.191C90.2914 113.779 90.3179 106.987 91.137 103.05C91.9826 99.0337 93.066 95.9684 94.995 92.084C97.2411 87.5918 99.6193 84.2888 103.187 80.7215C106.685 77.2232 91.137 91.6899 94.995 117.574C98.0867 139.264 111.374 147.809 108.974 146.228Z" fill="#E7EAEE"/>
</svg>
